G04 #@! TF.FileFunction,Legend,Top*
%FSLAX46Y46*%
G04 Gerber Fmt 4.6, Leading zero omitted, Abs format (unit mm)*
G04 Created by KiCad (PCBNEW 4.0.7) date 2024 March 18, Monday 14:50:24*
%MOMM*%
%LPD*%
G01*
G04 APERTURE LIST*
%ADD10C,0.100000*%
%ADD11C,0.150000*%
%ADD12C,0.300000*%
%ADD13C,0.120000*%
G04 APERTURE END LIST*
D10*
X107251429Y-138037143D02*
X107251429Y-137965714D01*
X107180000Y-138180000D02*
X107180000Y-137965714D01*
X107108572Y-138322857D02*
X107108572Y-137965714D01*
X107037143Y-138465714D02*
X107037143Y-137965714D01*
X106965715Y-138537143D02*
X106965715Y-137965714D01*
X106894286Y-138680000D02*
X106894286Y-137965714D01*
X106822858Y-138822857D02*
X106822858Y-137965714D01*
X106751429Y-138965714D02*
X106751429Y-137965714D01*
X106680000Y-139108571D02*
X106680000Y-137965714D01*
X106608572Y-138965714D02*
X106608572Y-137965714D01*
X106537143Y-138822857D02*
X106537143Y-137965714D01*
X106465715Y-138680000D02*
X106465715Y-137965714D01*
X106394286Y-138537143D02*
X106394286Y-137965714D01*
X106322858Y-138465714D02*
X106322858Y-137965714D01*
X106251429Y-138322857D02*
X106251429Y-137965714D01*
X106180000Y-138180000D02*
X106180000Y-137965714D01*
X106108572Y-137965714D02*
X106680000Y-139037143D01*
X107251429Y-137965714D01*
X106108572Y-138037143D02*
X106108572Y-137965714D01*
X106680000Y-139108571D02*
X106037143Y-137965714D01*
X107322858Y-137965714D01*
X106680000Y-139108571D01*
D11*
X196485238Y-55062381D02*
X196151904Y-54586190D01*
X195913809Y-55062381D02*
X195913809Y-54062381D01*
X196294762Y-54062381D01*
X196390000Y-54110000D01*
X196437619Y-54157619D01*
X196485238Y-54252857D01*
X196485238Y-54395714D01*
X196437619Y-54490952D01*
X196390000Y-54538571D01*
X196294762Y-54586190D01*
X195913809Y-54586190D01*
X196913809Y-54538571D02*
X197247143Y-54538571D01*
X197390000Y-55062381D02*
X196913809Y-55062381D01*
X196913809Y-54062381D01*
X197390000Y-54062381D01*
X197675714Y-54062381D02*
X198009047Y-55062381D01*
X198342381Y-54062381D01*
X198628095Y-54157619D02*
X198675714Y-54110000D01*
X198770952Y-54062381D01*
X199009048Y-54062381D01*
X199104286Y-54110000D01*
X199151905Y-54157619D01*
X199199524Y-54252857D01*
X199199524Y-54348095D01*
X199151905Y-54490952D01*
X198580476Y-55062381D01*
X199199524Y-55062381D01*
D12*
X169105715Y-56328571D02*
X169605715Y-57828571D01*
X170105715Y-56328571D01*
X170605715Y-57828571D02*
X170605715Y-56328571D01*
X171320001Y-57828571D02*
X171320001Y-56328571D01*
X171677144Y-56328571D01*
X171891429Y-56400000D01*
X172034287Y-56542857D01*
X172105715Y-56685714D01*
X172177144Y-56971429D01*
X172177144Y-57185714D01*
X172105715Y-57471429D01*
X172034287Y-57614286D01*
X171891429Y-57757143D01*
X171677144Y-57828571D01*
X171320001Y-57828571D01*
X172820001Y-57042857D02*
X173320001Y-57042857D01*
X173534287Y-57828571D02*
X172820001Y-57828571D01*
X172820001Y-56328571D01*
X173534287Y-56328571D01*
X174462858Y-56328571D02*
X174748572Y-56328571D01*
X174891430Y-56400000D01*
X175034287Y-56542857D01*
X175105715Y-56828571D01*
X175105715Y-57328571D01*
X175034287Y-57614286D01*
X174891430Y-57757143D01*
X174748572Y-57828571D01*
X174462858Y-57828571D01*
X174320001Y-57757143D01*
X174177144Y-57614286D01*
X174105715Y-57328571D01*
X174105715Y-56828571D01*
X174177144Y-56542857D01*
X174320001Y-56400000D01*
X174462858Y-56328571D01*
X177748573Y-57685714D02*
X177677144Y-57757143D01*
X177462858Y-57828571D01*
X177320001Y-57828571D01*
X177105716Y-57757143D01*
X176962858Y-57614286D01*
X176891430Y-57471429D01*
X176820001Y-57185714D01*
X176820001Y-56971429D01*
X176891430Y-56685714D01*
X176962858Y-56542857D01*
X177105716Y-56400000D01*
X177320001Y-56328571D01*
X177462858Y-56328571D01*
X177677144Y-56400000D01*
X177748573Y-56471429D01*
X178320001Y-57400000D02*
X179034287Y-57400000D01*
X178177144Y-57828571D02*
X178677144Y-56328571D01*
X179177144Y-57828571D01*
X180534287Y-57828571D02*
X180034287Y-57114286D01*
X179677144Y-57828571D02*
X179677144Y-56328571D01*
X180248572Y-56328571D01*
X180391430Y-56400000D01*
X180462858Y-56471429D01*
X180534287Y-56614286D01*
X180534287Y-56828571D01*
X180462858Y-56971429D01*
X180391430Y-57042857D01*
X180248572Y-57114286D01*
X179677144Y-57114286D01*
X181177144Y-57828571D02*
X181177144Y-56328571D01*
X181534287Y-56328571D01*
X181748572Y-56400000D01*
X181891430Y-56542857D01*
X181962858Y-56685714D01*
X182034287Y-56971429D01*
X182034287Y-57185714D01*
X181962858Y-57471429D01*
X181891430Y-57614286D01*
X181748572Y-57757143D01*
X181534287Y-57828571D01*
X181177144Y-57828571D01*
X183891429Y-57828571D02*
X184177144Y-57828571D01*
X184320001Y-57757143D01*
X184391429Y-57685714D01*
X184534287Y-57471429D01*
X184605715Y-57185714D01*
X184605715Y-56614286D01*
X184534287Y-56471429D01*
X184462858Y-56400000D01*
X184320001Y-56328571D01*
X184034287Y-56328571D01*
X183891429Y-56400000D01*
X183820001Y-56471429D01*
X183748572Y-56614286D01*
X183748572Y-56971429D01*
X183820001Y-57114286D01*
X183891429Y-57185714D01*
X184034287Y-57257143D01*
X184320001Y-57257143D01*
X184462858Y-57185714D01*
X184534287Y-57114286D01*
X184605715Y-56971429D01*
X185320000Y-57828571D02*
X185605715Y-57828571D01*
X185748572Y-57757143D01*
X185820000Y-57685714D01*
X185962858Y-57471429D01*
X186034286Y-57185714D01*
X186034286Y-56614286D01*
X185962858Y-56471429D01*
X185891429Y-56400000D01*
X185748572Y-56328571D01*
X185462858Y-56328571D01*
X185320000Y-56400000D01*
X185248572Y-56471429D01*
X185177143Y-56614286D01*
X185177143Y-56971429D01*
X185248572Y-57114286D01*
X185320000Y-57185714D01*
X185462858Y-57257143D01*
X185748572Y-57257143D01*
X185891429Y-57185714D01*
X185962858Y-57114286D01*
X186034286Y-56971429D01*
X187462857Y-57828571D02*
X186605714Y-57828571D01*
X187034286Y-57828571D02*
X187034286Y-56328571D01*
X186891429Y-56542857D01*
X186748571Y-56685714D01*
X186605714Y-56757143D01*
X188320000Y-56971429D02*
X188177142Y-56900000D01*
X188105714Y-56828571D01*
X188034285Y-56685714D01*
X188034285Y-56614286D01*
X188105714Y-56471429D01*
X188177142Y-56400000D01*
X188320000Y-56328571D01*
X188605714Y-56328571D01*
X188748571Y-56400000D01*
X188820000Y-56471429D01*
X188891428Y-56614286D01*
X188891428Y-56685714D01*
X188820000Y-56828571D01*
X188748571Y-56900000D01*
X188605714Y-56971429D01*
X188320000Y-56971429D01*
X188177142Y-57042857D01*
X188105714Y-57114286D01*
X188034285Y-57257143D01*
X188034285Y-57542857D01*
X188105714Y-57685714D01*
X188177142Y-57757143D01*
X188320000Y-57828571D01*
X188605714Y-57828571D01*
X188748571Y-57757143D01*
X188820000Y-57685714D01*
X188891428Y-57542857D01*
X188891428Y-57257143D01*
X188820000Y-57114286D01*
X188748571Y-57042857D01*
X188605714Y-56971429D01*
D11*
X167760476Y-60745714D02*
X168141428Y-60745714D01*
X167903333Y-61412381D02*
X167903333Y-60555238D01*
X167950952Y-60460000D01*
X168046190Y-60412381D01*
X168141428Y-60412381D01*
X168617619Y-61412381D02*
X168522381Y-61364762D01*
X168474762Y-61317143D01*
X168427143Y-61221905D01*
X168427143Y-60936190D01*
X168474762Y-60840952D01*
X168522381Y-60793333D01*
X168617619Y-60745714D01*
X168760477Y-60745714D01*
X168855715Y-60793333D01*
X168903334Y-60840952D01*
X168950953Y-60936190D01*
X168950953Y-61221905D01*
X168903334Y-61317143D01*
X168855715Y-61364762D01*
X168760477Y-61412381D01*
X168617619Y-61412381D01*
X169379524Y-61412381D02*
X169379524Y-60745714D01*
X169379524Y-60936190D02*
X169427143Y-60840952D01*
X169474762Y-60793333D01*
X169570000Y-60745714D01*
X169665239Y-60745714D01*
X170760477Y-61412381D02*
X170760477Y-60412381D01*
X171141430Y-60412381D01*
X171236668Y-60460000D01*
X171284287Y-60507619D01*
X171331906Y-60602857D01*
X171331906Y-60745714D01*
X171284287Y-60840952D01*
X171236668Y-60888571D01*
X171141430Y-60936190D01*
X170760477Y-60936190D01*
X172331906Y-61317143D02*
X172284287Y-61364762D01*
X172141430Y-61412381D01*
X172046192Y-61412381D01*
X171903334Y-61364762D01*
X171808096Y-61269524D01*
X171760477Y-61174286D01*
X171712858Y-60983810D01*
X171712858Y-60840952D01*
X171760477Y-60650476D01*
X171808096Y-60555238D01*
X171903334Y-60460000D01*
X172046192Y-60412381D01*
X172141430Y-60412381D01*
X172284287Y-60460000D01*
X172331906Y-60507619D01*
X172760477Y-61031429D02*
X173522382Y-61031429D01*
X174141429Y-60840952D02*
X174046191Y-60793333D01*
X173998572Y-60745714D01*
X173950953Y-60650476D01*
X173950953Y-60602857D01*
X173998572Y-60507619D01*
X174046191Y-60460000D01*
X174141429Y-60412381D01*
X174331906Y-60412381D01*
X174427144Y-60460000D01*
X174474763Y-60507619D01*
X174522382Y-60602857D01*
X174522382Y-60650476D01*
X174474763Y-60745714D01*
X174427144Y-60793333D01*
X174331906Y-60840952D01*
X174141429Y-60840952D01*
X174046191Y-60888571D01*
X173998572Y-60936190D01*
X173950953Y-61031429D01*
X173950953Y-61221905D01*
X173998572Y-61317143D01*
X174046191Y-61364762D01*
X174141429Y-61412381D01*
X174331906Y-61412381D01*
X174427144Y-61364762D01*
X174474763Y-61317143D01*
X174522382Y-61221905D01*
X174522382Y-61031429D01*
X174474763Y-60936190D01*
X174427144Y-60888571D01*
X174331906Y-60840952D01*
X175141429Y-60412381D02*
X175236668Y-60412381D01*
X175331906Y-60460000D01*
X175379525Y-60507619D01*
X175427144Y-60602857D01*
X175474763Y-60793333D01*
X175474763Y-61031429D01*
X175427144Y-61221905D01*
X175379525Y-61317143D01*
X175331906Y-61364762D01*
X175236668Y-61412381D01*
X175141429Y-61412381D01*
X175046191Y-61364762D01*
X174998572Y-61317143D01*
X174950953Y-61221905D01*
X174903334Y-61031429D01*
X174903334Y-60793333D01*
X174950953Y-60602857D01*
X174998572Y-60507619D01*
X175046191Y-60460000D01*
X175141429Y-60412381D01*
X176427144Y-61412381D02*
X175855715Y-61412381D01*
X176141429Y-61412381D02*
X176141429Y-60412381D01*
X176046191Y-60555238D01*
X175950953Y-60650476D01*
X175855715Y-60698095D01*
X176808096Y-60507619D02*
X176855715Y-60460000D01*
X176950953Y-60412381D01*
X177189049Y-60412381D01*
X177284287Y-60460000D01*
X177331906Y-60507619D01*
X177379525Y-60602857D01*
X177379525Y-60698095D01*
X177331906Y-60840952D01*
X176760477Y-61412381D01*
X177379525Y-61412381D01*
X179379525Y-61412381D02*
X179331906Y-61412381D01*
X179236668Y-61364762D01*
X179093811Y-61221905D01*
X178855716Y-60936190D01*
X178760477Y-60793333D01*
X178712858Y-60650476D01*
X178712858Y-60555238D01*
X178760477Y-60460000D01*
X178855716Y-60412381D01*
X178903335Y-60412381D01*
X178998573Y-60460000D01*
X179046192Y-60555238D01*
X179046192Y-60602857D01*
X178998573Y-60698095D01*
X178950954Y-60745714D01*
X178665239Y-60936190D01*
X178617620Y-60983810D01*
X178570001Y-61079048D01*
X178570001Y-61221905D01*
X178617620Y-61317143D01*
X178665239Y-61364762D01*
X178760477Y-61412381D01*
X178903335Y-61412381D01*
X178998573Y-61364762D01*
X179046192Y-61317143D01*
X179189049Y-61126667D01*
X179236668Y-60983810D01*
X179236668Y-60888571D01*
X180570001Y-61412381D02*
X180570001Y-60412381D01*
X180950954Y-60412381D01*
X181046192Y-60460000D01*
X181093811Y-60507619D01*
X181141430Y-60602857D01*
X181141430Y-60745714D01*
X181093811Y-60840952D01*
X181046192Y-60888571D01*
X180950954Y-60936190D01*
X180570001Y-60936190D01*
X182141430Y-61317143D02*
X182093811Y-61364762D01*
X181950954Y-61412381D01*
X181855716Y-61412381D01*
X181712858Y-61364762D01*
X181617620Y-61269524D01*
X181570001Y-61174286D01*
X181522382Y-60983810D01*
X181522382Y-60840952D01*
X181570001Y-60650476D01*
X181617620Y-60555238D01*
X181712858Y-60460000D01*
X181855716Y-60412381D01*
X181950954Y-60412381D01*
X182093811Y-60460000D01*
X182141430Y-60507619D01*
X182570001Y-61031429D02*
X183331906Y-61031429D01*
X183950953Y-60840952D02*
X183855715Y-60793333D01*
X183808096Y-60745714D01*
X183760477Y-60650476D01*
X183760477Y-60602857D01*
X183808096Y-60507619D01*
X183855715Y-60460000D01*
X183950953Y-60412381D01*
X184141430Y-60412381D01*
X184236668Y-60460000D01*
X184284287Y-60507619D01*
X184331906Y-60602857D01*
X184331906Y-60650476D01*
X184284287Y-60745714D01*
X184236668Y-60793333D01*
X184141430Y-60840952D01*
X183950953Y-60840952D01*
X183855715Y-60888571D01*
X183808096Y-60936190D01*
X183760477Y-61031429D01*
X183760477Y-61221905D01*
X183808096Y-61317143D01*
X183855715Y-61364762D01*
X183950953Y-61412381D01*
X184141430Y-61412381D01*
X184236668Y-61364762D01*
X184284287Y-61317143D01*
X184331906Y-61221905D01*
X184331906Y-61031429D01*
X184284287Y-60936190D01*
X184236668Y-60888571D01*
X184141430Y-60840952D01*
X184950953Y-60412381D02*
X185046192Y-60412381D01*
X185141430Y-60460000D01*
X185189049Y-60507619D01*
X185236668Y-60602857D01*
X185284287Y-60793333D01*
X185284287Y-61031429D01*
X185236668Y-61221905D01*
X185189049Y-61317143D01*
X185141430Y-61364762D01*
X185046192Y-61412381D01*
X184950953Y-61412381D01*
X184855715Y-61364762D01*
X184808096Y-61317143D01*
X184760477Y-61221905D01*
X184712858Y-61031429D01*
X184712858Y-60793333D01*
X184760477Y-60602857D01*
X184808096Y-60507619D01*
X184855715Y-60460000D01*
X184950953Y-60412381D01*
X185903334Y-60412381D02*
X185998573Y-60412381D01*
X186093811Y-60460000D01*
X186141430Y-60507619D01*
X186189049Y-60602857D01*
X186236668Y-60793333D01*
X186236668Y-61031429D01*
X186189049Y-61221905D01*
X186141430Y-61317143D01*
X186093811Y-61364762D01*
X185998573Y-61412381D01*
X185903334Y-61412381D01*
X185808096Y-61364762D01*
X185760477Y-61317143D01*
X185712858Y-61221905D01*
X185665239Y-61031429D01*
X185665239Y-60793333D01*
X185712858Y-60602857D01*
X185760477Y-60507619D01*
X185808096Y-60460000D01*
X185903334Y-60412381D01*
X187189049Y-61412381D02*
X186617620Y-61412381D01*
X186903334Y-61412381D02*
X186903334Y-60412381D01*
X186808096Y-60555238D01*
X186712858Y-60650476D01*
X186617620Y-60698095D01*
X187617620Y-61412381D02*
X187617620Y-60745714D01*
X187617620Y-60840952D02*
X187665239Y-60793333D01*
X187760477Y-60745714D01*
X187903335Y-60745714D01*
X187998573Y-60793333D01*
X188046192Y-60888571D01*
X188046192Y-61412381D01*
X188046192Y-60888571D02*
X188093811Y-60793333D01*
X188189049Y-60745714D01*
X188331906Y-60745714D01*
X188427144Y-60793333D01*
X188474763Y-60888571D01*
X188474763Y-61412381D01*
X188950953Y-61412381D02*
X188950953Y-60412381D01*
X189046191Y-61031429D02*
X189331906Y-61412381D01*
X189331906Y-60745714D02*
X188950953Y-61126667D01*
X189712858Y-60507619D02*
X189760477Y-60460000D01*
X189855715Y-60412381D01*
X190093811Y-60412381D01*
X190189049Y-60460000D01*
X190236668Y-60507619D01*
X190284287Y-60602857D01*
X190284287Y-60698095D01*
X190236668Y-60840952D01*
X189665239Y-61412381D01*
X190284287Y-61412381D01*
X173181904Y-66016190D02*
X173134285Y-65968571D01*
X173039047Y-65920952D01*
X172943809Y-65920952D01*
X172848571Y-65968571D01*
X172800951Y-66016190D01*
X172753332Y-66111429D01*
X172753332Y-66206667D01*
X172800951Y-66301905D01*
X172848571Y-66349524D01*
X172943809Y-66397143D01*
X173039047Y-66397143D01*
X173134285Y-66349524D01*
X173181904Y-66301905D01*
X173181904Y-65920952D02*
X173181904Y-66301905D01*
X173229523Y-66349524D01*
X173277142Y-66349524D01*
X173372380Y-66301905D01*
X173419999Y-66206667D01*
X173419999Y-65968571D01*
X173324761Y-65825714D01*
X173181904Y-65730476D01*
X172991428Y-65682857D01*
X172800951Y-65730476D01*
X172658094Y-65825714D01*
X172562856Y-65968571D01*
X172515237Y-66159048D01*
X172562856Y-66349524D01*
X172658094Y-66492381D01*
X172800951Y-66587619D01*
X172991428Y-66635238D01*
X173181904Y-66587619D01*
X173324761Y-66492381D01*
X174277142Y-66444762D02*
X174181904Y-66492381D01*
X173991427Y-66492381D01*
X173896189Y-66444762D01*
X173848570Y-66397143D01*
X173800951Y-66301905D01*
X173800951Y-66016190D01*
X173848570Y-65920952D01*
X173896189Y-65873333D01*
X173991427Y-65825714D01*
X174181904Y-65825714D01*
X174277142Y-65873333D01*
X174705713Y-66492381D02*
X174705713Y-65492381D01*
X175134285Y-66492381D02*
X175134285Y-65968571D01*
X175086666Y-65873333D01*
X174991428Y-65825714D01*
X174848570Y-65825714D01*
X174753332Y-65873333D01*
X174705713Y-65920952D01*
X175610475Y-66492381D02*
X175610475Y-65825714D01*
X175610475Y-65492381D02*
X175562856Y-65540000D01*
X175610475Y-65587619D01*
X175658094Y-65540000D01*
X175610475Y-65492381D01*
X175610475Y-65587619D01*
X176515237Y-65825714D02*
X176515237Y-66825714D01*
X176515237Y-66444762D02*
X176419999Y-66492381D01*
X176229522Y-66492381D01*
X176134284Y-66444762D01*
X176086665Y-66397143D01*
X176039046Y-66301905D01*
X176039046Y-66016190D01*
X176086665Y-65920952D01*
X176134284Y-65873333D01*
X176229522Y-65825714D01*
X176419999Y-65825714D01*
X176515237Y-65873333D01*
X177134284Y-66492381D02*
X177039046Y-66444762D01*
X176991427Y-66349524D01*
X176991427Y-65492381D01*
X177943809Y-66492381D02*
X177943809Y-65968571D01*
X177896190Y-65873333D01*
X177800952Y-65825714D01*
X177610475Y-65825714D01*
X177515237Y-65873333D01*
X177943809Y-66444762D02*
X177848571Y-66492381D01*
X177610475Y-66492381D01*
X177515237Y-66444762D01*
X177467618Y-66349524D01*
X177467618Y-66254286D01*
X177515237Y-66159048D01*
X177610475Y-66111429D01*
X177848571Y-66111429D01*
X177943809Y-66063810D01*
X178419999Y-65825714D02*
X178419999Y-66825714D01*
X178419999Y-65873333D02*
X178515237Y-65825714D01*
X178705714Y-65825714D01*
X178800952Y-65873333D01*
X178848571Y-65920952D01*
X178896190Y-66016190D01*
X178896190Y-66301905D01*
X178848571Y-66397143D01*
X178800952Y-66444762D01*
X178705714Y-66492381D01*
X178515237Y-66492381D01*
X178419999Y-66444762D01*
X179324761Y-65825714D02*
X179324761Y-66825714D01*
X179324761Y-65873333D02*
X179419999Y-65825714D01*
X179610476Y-65825714D01*
X179705714Y-65873333D01*
X179753333Y-65920952D01*
X179800952Y-66016190D01*
X179800952Y-66301905D01*
X179753333Y-66397143D01*
X179705714Y-66444762D01*
X179610476Y-66492381D01*
X179419999Y-66492381D01*
X179324761Y-66444762D01*
X180610476Y-66444762D02*
X180515238Y-66492381D01*
X180324761Y-66492381D01*
X180229523Y-66444762D01*
X180181904Y-66349524D01*
X180181904Y-65968571D01*
X180229523Y-65873333D01*
X180324761Y-65825714D01*
X180515238Y-65825714D01*
X180610476Y-65873333D01*
X180658095Y-65968571D01*
X180658095Y-66063810D01*
X180181904Y-66159048D01*
X181800952Y-65587619D02*
X181848571Y-65540000D01*
X181943809Y-65492381D01*
X182181905Y-65492381D01*
X182277143Y-65540000D01*
X182324762Y-65587619D01*
X182372381Y-65682857D01*
X182372381Y-65778095D01*
X182324762Y-65920952D01*
X181753333Y-66492381D01*
X182372381Y-66492381D01*
X182991428Y-65492381D02*
X183086667Y-65492381D01*
X183181905Y-65540000D01*
X183229524Y-65587619D01*
X183277143Y-65682857D01*
X183324762Y-65873333D01*
X183324762Y-66111429D01*
X183277143Y-66301905D01*
X183229524Y-66397143D01*
X183181905Y-66444762D01*
X183086667Y-66492381D01*
X182991428Y-66492381D01*
X182896190Y-66444762D01*
X182848571Y-66397143D01*
X182800952Y-66301905D01*
X182753333Y-66111429D01*
X182753333Y-65873333D01*
X182800952Y-65682857D01*
X182848571Y-65587619D01*
X182896190Y-65540000D01*
X182991428Y-65492381D01*
X183705714Y-65587619D02*
X183753333Y-65540000D01*
X183848571Y-65492381D01*
X184086667Y-65492381D01*
X184181905Y-65540000D01*
X184229524Y-65587619D01*
X184277143Y-65682857D01*
X184277143Y-65778095D01*
X184229524Y-65920952D01*
X183658095Y-66492381D01*
X184277143Y-66492381D01*
X185134286Y-65825714D02*
X185134286Y-66492381D01*
X184896190Y-65444762D02*
X184658095Y-66159048D01*
X185277143Y-66159048D01*
D10*
X155900000Y-51880000D02*
X155900000Y-62880000D01*
X155900000Y-62880000D02*
X148900000Y-62880000D01*
X148900000Y-62880000D02*
X148900000Y-51880000D01*
X148900000Y-51880000D02*
X150900000Y-51880000D01*
X155400000Y-51880000D02*
X155900000Y-51880000D01*
X155400000Y-51880000D02*
X152400000Y-51880000D01*
X153900000Y-51880000D02*
X150900000Y-51880000D01*
D13*
X123599000Y-72997000D02*
X123599000Y-71823000D01*
X125321000Y-72997000D02*
X125321000Y-71823000D01*
X108359000Y-72997000D02*
X108359000Y-71823000D01*
X110081000Y-72997000D02*
X110081000Y-71823000D01*
X130203000Y-67719000D02*
X131377000Y-67719000D01*
X130203000Y-69441000D02*
X131377000Y-69441000D01*
X136144278Y-67219723D02*
G75*
G03X140755580Y-67220000I2305722J1179723D01*
G01*
X136144278Y-64860277D02*
G75*
G02X140755580Y-64860000I2305722J-1179723D01*
G01*
X136144278Y-64860277D02*
G75*
G03X136144420Y-67220000I2305722J-1179723D01*
G01*
X138450000Y-68590000D02*
X138450000Y-63490000D01*
X138410000Y-68590000D02*
X138410000Y-63490000D01*
X138370000Y-68589000D02*
X138370000Y-63491000D01*
X138330000Y-68588000D02*
X138330000Y-63492000D01*
X138290000Y-68586000D02*
X138290000Y-63494000D01*
X138250000Y-68583000D02*
X138250000Y-63497000D01*
X138210000Y-68579000D02*
X138210000Y-63501000D01*
X138170000Y-68575000D02*
X138170000Y-67020000D01*
X138170000Y-65060000D02*
X138170000Y-63505000D01*
X138130000Y-68571000D02*
X138130000Y-67020000D01*
X138130000Y-65060000D02*
X138130000Y-63509000D01*
X138090000Y-68565000D02*
X138090000Y-67020000D01*
X138090000Y-65060000D02*
X138090000Y-63515000D01*
X138050000Y-68559000D02*
X138050000Y-67020000D01*
X138050000Y-65060000D02*
X138050000Y-63521000D01*
X138010000Y-68553000D02*
X138010000Y-67020000D01*
X138010000Y-65060000D02*
X138010000Y-63527000D01*
X137970000Y-68546000D02*
X137970000Y-67020000D01*
X137970000Y-65060000D02*
X137970000Y-63534000D01*
X137930000Y-68538000D02*
X137930000Y-67020000D01*
X137930000Y-65060000D02*
X137930000Y-63542000D01*
X137890000Y-68529000D02*
X137890000Y-67020000D01*
X137890000Y-65060000D02*
X137890000Y-63551000D01*
X137850000Y-68520000D02*
X137850000Y-67020000D01*
X137850000Y-65060000D02*
X137850000Y-63560000D01*
X137810000Y-68510000D02*
X137810000Y-67020000D01*
X137810000Y-65060000D02*
X137810000Y-63570000D01*
X137770000Y-68500000D02*
X137770000Y-67020000D01*
X137770000Y-65060000D02*
X137770000Y-63580000D01*
X137729000Y-68488000D02*
X137729000Y-67020000D01*
X137729000Y-65060000D02*
X137729000Y-63592000D01*
X137689000Y-68476000D02*
X137689000Y-67020000D01*
X137689000Y-65060000D02*
X137689000Y-63604000D01*
X137649000Y-68464000D02*
X137649000Y-67020000D01*
X137649000Y-65060000D02*
X137649000Y-63616000D01*
X137609000Y-68450000D02*
X137609000Y-67020000D01*
X137609000Y-65060000D02*
X137609000Y-63630000D01*
X137569000Y-68436000D02*
X137569000Y-67020000D01*
X137569000Y-65060000D02*
X137569000Y-63644000D01*
X137529000Y-68422000D02*
X137529000Y-67020000D01*
X137529000Y-65060000D02*
X137529000Y-63658000D01*
X137489000Y-68406000D02*
X137489000Y-67020000D01*
X137489000Y-65060000D02*
X137489000Y-63674000D01*
X137449000Y-68390000D02*
X137449000Y-67020000D01*
X137449000Y-65060000D02*
X137449000Y-63690000D01*
X137409000Y-68373000D02*
X137409000Y-67020000D01*
X137409000Y-65060000D02*
X137409000Y-63707000D01*
X137369000Y-68355000D02*
X137369000Y-67020000D01*
X137369000Y-65060000D02*
X137369000Y-63725000D01*
X137329000Y-68336000D02*
X137329000Y-67020000D01*
X137329000Y-65060000D02*
X137329000Y-63744000D01*
X137289000Y-68316000D02*
X137289000Y-67020000D01*
X137289000Y-65060000D02*
X137289000Y-63764000D01*
X137249000Y-68296000D02*
X137249000Y-67020000D01*
X137249000Y-65060000D02*
X137249000Y-63784000D01*
X137209000Y-68274000D02*
X137209000Y-67020000D01*
X137209000Y-65060000D02*
X137209000Y-63806000D01*
X137169000Y-68252000D02*
X137169000Y-67020000D01*
X137169000Y-65060000D02*
X137169000Y-63828000D01*
X137129000Y-68229000D02*
X137129000Y-67020000D01*
X137129000Y-65060000D02*
X137129000Y-63851000D01*
X137089000Y-68205000D02*
X137089000Y-67020000D01*
X137089000Y-65060000D02*
X137089000Y-63875000D01*
X137049000Y-68180000D02*
X137049000Y-67020000D01*
X137049000Y-65060000D02*
X137049000Y-63900000D01*
X137009000Y-68153000D02*
X137009000Y-67020000D01*
X137009000Y-65060000D02*
X137009000Y-63927000D01*
X136969000Y-68126000D02*
X136969000Y-67020000D01*
X136969000Y-65060000D02*
X136969000Y-63954000D01*
X136929000Y-68098000D02*
X136929000Y-67020000D01*
X136929000Y-65060000D02*
X136929000Y-63982000D01*
X136889000Y-68068000D02*
X136889000Y-67020000D01*
X136889000Y-65060000D02*
X136889000Y-64012000D01*
X136849000Y-68037000D02*
X136849000Y-67020000D01*
X136849000Y-65060000D02*
X136849000Y-64043000D01*
X136809000Y-68005000D02*
X136809000Y-67020000D01*
X136809000Y-65060000D02*
X136809000Y-64075000D01*
X136769000Y-67972000D02*
X136769000Y-67020000D01*
X136769000Y-65060000D02*
X136769000Y-64108000D01*
X136729000Y-67937000D02*
X136729000Y-67020000D01*
X136729000Y-65060000D02*
X136729000Y-64143000D01*
X136689000Y-67901000D02*
X136689000Y-67020000D01*
X136689000Y-65060000D02*
X136689000Y-64179000D01*
X136649000Y-67863000D02*
X136649000Y-67020000D01*
X136649000Y-65060000D02*
X136649000Y-64217000D01*
X136609000Y-67823000D02*
X136609000Y-67020000D01*
X136609000Y-65060000D02*
X136609000Y-64257000D01*
X136569000Y-67782000D02*
X136569000Y-67020000D01*
X136569000Y-65060000D02*
X136569000Y-64298000D01*
X136529000Y-67739000D02*
X136529000Y-67020000D01*
X136529000Y-65060000D02*
X136529000Y-64341000D01*
X136489000Y-67694000D02*
X136489000Y-67020000D01*
X136489000Y-65060000D02*
X136489000Y-64386000D01*
X136449000Y-67646000D02*
X136449000Y-67020000D01*
X136449000Y-65060000D02*
X136449000Y-64434000D01*
X136409000Y-67596000D02*
X136409000Y-67020000D01*
X136409000Y-65060000D02*
X136409000Y-64484000D01*
X136369000Y-67544000D02*
X136369000Y-67020000D01*
X136369000Y-65060000D02*
X136369000Y-64536000D01*
X136329000Y-67488000D02*
X136329000Y-67020000D01*
X136329000Y-65060000D02*
X136329000Y-64592000D01*
X136289000Y-67430000D02*
X136289000Y-67020000D01*
X136289000Y-65060000D02*
X136289000Y-64650000D01*
X136249000Y-67367000D02*
X136249000Y-67020000D01*
X136249000Y-65060000D02*
X136249000Y-64713000D01*
X136209000Y-67301000D02*
X136209000Y-64779000D01*
X136169000Y-67229000D02*
X136169000Y-64851000D01*
X136129000Y-67152000D02*
X136129000Y-64928000D01*
X136089000Y-67068000D02*
X136089000Y-65012000D01*
X136049000Y-66974000D02*
X136049000Y-65106000D01*
X136009000Y-66869000D02*
X136009000Y-65211000D01*
X135969000Y-66747000D02*
X135969000Y-65333000D01*
X135929000Y-66599000D02*
X135929000Y-65481000D01*
X135889000Y-66394000D02*
X135889000Y-65686000D01*
X141900000Y-66040000D02*
X140700000Y-66040000D01*
X141300000Y-66690000D02*
X141300000Y-65390000D01*
X113440000Y-64090000D02*
X115160000Y-64090000D01*
X115160000Y-64090000D02*
X115160000Y-60370000D01*
X115160000Y-60370000D02*
X113440000Y-60370000D01*
X113440000Y-60370000D02*
X113440000Y-64090000D01*
X114300000Y-65160000D02*
X114300000Y-64090000D01*
X114300000Y-59300000D02*
X114300000Y-60370000D01*
X122780000Y-60370000D02*
X121060000Y-60370000D01*
X121060000Y-60370000D02*
X121060000Y-64090000D01*
X121060000Y-64090000D02*
X122780000Y-64090000D01*
X122780000Y-64090000D02*
X122780000Y-60370000D01*
X121920000Y-59300000D02*
X121920000Y-60370000D01*
X121920000Y-65160000D02*
X121920000Y-64090000D01*
X120240000Y-60370000D02*
X118520000Y-60370000D01*
X118520000Y-60370000D02*
X118520000Y-64090000D01*
X118520000Y-64090000D02*
X120240000Y-64090000D01*
X120240000Y-64090000D02*
X120240000Y-60370000D01*
X119380000Y-59300000D02*
X119380000Y-60370000D01*
X119380000Y-65160000D02*
X119380000Y-64090000D01*
X117700000Y-60370000D02*
X115980000Y-60370000D01*
X115980000Y-60370000D02*
X115980000Y-64090000D01*
X115980000Y-64090000D02*
X117700000Y-64090000D01*
X117700000Y-64090000D02*
X117700000Y-60370000D01*
X116840000Y-59300000D02*
X116840000Y-60370000D01*
X116840000Y-65160000D02*
X116840000Y-64090000D01*
X115840000Y-79890000D02*
X110260000Y-79890000D01*
X110260000Y-79890000D02*
X110260000Y-130930000D01*
X110260000Y-130930000D02*
X123420000Y-130930000D01*
X123420000Y-130930000D02*
X123420000Y-79890000D01*
X123420000Y-79890000D02*
X117840000Y-79890000D01*
X107830000Y-79890000D02*
X107830000Y-130930000D01*
X107830000Y-130930000D02*
X125850000Y-130930000D01*
X125850000Y-130930000D02*
X125850000Y-79890000D01*
X125850000Y-79890000D02*
X107830000Y-79890000D01*
X117840000Y-79890000D02*
G75*
G02X115840000Y-79890000I-1000000J0D01*
G01*
X186960000Y-74810000D02*
X181380000Y-74810000D01*
X181380000Y-74810000D02*
X181380000Y-110610000D01*
X181380000Y-110610000D02*
X194540000Y-110610000D01*
X194540000Y-110610000D02*
X194540000Y-74810000D01*
X194540000Y-74810000D02*
X188960000Y-74810000D01*
X178950000Y-74810000D02*
X178950000Y-110610000D01*
X178950000Y-110610000D02*
X196970000Y-110610000D01*
X196970000Y-110610000D02*
X196970000Y-74810000D01*
X196970000Y-74810000D02*
X178950000Y-74810000D01*
X188960000Y-74810000D02*
G75*
G02X186960000Y-74810000I-1000000J0D01*
G01*
X138310000Y-111490000D02*
X138310000Y-113260000D01*
X138310000Y-113260000D02*
X163950000Y-113260000D01*
X163950000Y-113260000D02*
X163950000Y-107720000D01*
X163950000Y-107720000D02*
X138310000Y-107720000D01*
X138310000Y-107720000D02*
X138310000Y-109490000D01*
X138310000Y-115690000D02*
X163950000Y-115690000D01*
X163950000Y-115690000D02*
X163950000Y-105290000D01*
X163950000Y-105290000D02*
X138310000Y-105290000D01*
X138310000Y-105290000D02*
X138310000Y-115690000D01*
X138310000Y-109490000D02*
G75*
G02X138310000Y-111490000I0J-1000000D01*
G01*
X138310000Y-96250000D02*
X138310000Y-98020000D01*
X138310000Y-98020000D02*
X163950000Y-98020000D01*
X163950000Y-98020000D02*
X163950000Y-92480000D01*
X163950000Y-92480000D02*
X138310000Y-92480000D01*
X138310000Y-92480000D02*
X138310000Y-94250000D01*
X138310000Y-100450000D02*
X163950000Y-100450000D01*
X163950000Y-100450000D02*
X163950000Y-90050000D01*
X163950000Y-90050000D02*
X138310000Y-90050000D01*
X138310000Y-90050000D02*
X138310000Y-100450000D01*
X138310000Y-94250000D02*
G75*
G02X138310000Y-96250000I0J-1000000D01*
G01*
X138310000Y-81010000D02*
X138310000Y-82780000D01*
X138310000Y-82780000D02*
X163950000Y-82780000D01*
X163950000Y-82780000D02*
X163950000Y-77240000D01*
X163950000Y-77240000D02*
X138310000Y-77240000D01*
X138310000Y-77240000D02*
X138310000Y-79010000D01*
X138310000Y-85210000D02*
X163950000Y-85210000D01*
X163950000Y-85210000D02*
X163950000Y-74810000D01*
X163950000Y-74810000D02*
X138310000Y-74810000D01*
X138310000Y-74810000D02*
X138310000Y-85210000D01*
X138310000Y-79010000D02*
G75*
G02X138310000Y-81010000I0J-1000000D01*
G01*
X156090000Y-126730000D02*
X156090000Y-128500000D01*
X156090000Y-128500000D02*
X174110000Y-128500000D01*
X174110000Y-128500000D02*
X174110000Y-122960000D01*
X174110000Y-122960000D02*
X156090000Y-122960000D01*
X156090000Y-122960000D02*
X156090000Y-124730000D01*
X156090000Y-130930000D02*
X174110000Y-130930000D01*
X174110000Y-130930000D02*
X174110000Y-120530000D01*
X174110000Y-120530000D02*
X156090000Y-120530000D01*
X156090000Y-120530000D02*
X156090000Y-130930000D01*
X156090000Y-124730000D02*
G75*
G02X156090000Y-126730000I0J-1000000D01*
G01*
X130690000Y-126730000D02*
X130690000Y-128500000D01*
X130690000Y-128500000D02*
X151250000Y-128500000D01*
X151250000Y-128500000D02*
X151250000Y-122960000D01*
X151250000Y-122960000D02*
X130690000Y-122960000D01*
X130690000Y-122960000D02*
X130690000Y-124730000D01*
X130690000Y-130930000D02*
X151250000Y-130930000D01*
X151250000Y-130930000D02*
X151250000Y-120530000D01*
X151250000Y-120530000D02*
X130690000Y-120530000D01*
X130690000Y-120530000D02*
X130690000Y-130930000D01*
X130690000Y-124730000D02*
G75*
G02X130690000Y-126730000I0J-1000000D01*
G01*
X178950000Y-126730000D02*
X178950000Y-128500000D01*
X178950000Y-128500000D02*
X196970000Y-128500000D01*
X196970000Y-128500000D02*
X196970000Y-122960000D01*
X196970000Y-122960000D02*
X178950000Y-122960000D01*
X178950000Y-122960000D02*
X178950000Y-124730000D01*
X178950000Y-130930000D02*
X196970000Y-130930000D01*
X196970000Y-130930000D02*
X196970000Y-120530000D01*
X196970000Y-120530000D02*
X178950000Y-120530000D01*
X178950000Y-120530000D02*
X178950000Y-130930000D01*
X178950000Y-124730000D02*
G75*
G02X178950000Y-126730000I0J-1000000D01*
G01*
X103124278Y-135799723D02*
G75*
G03X107735580Y-135800000I2305722J1179723D01*
G01*
X103124278Y-133440277D02*
G75*
G02X107735580Y-133440000I2305722J-1179723D01*
G01*
X103124278Y-133440277D02*
G75*
G03X103124420Y-135800000I2305722J-1179723D01*
G01*
X105430000Y-137170000D02*
X105430000Y-132070000D01*
X105390000Y-137170000D02*
X105390000Y-132070000D01*
X105350000Y-137169000D02*
X105350000Y-132071000D01*
X105310000Y-137168000D02*
X105310000Y-132072000D01*
X105270000Y-137166000D02*
X105270000Y-132074000D01*
X105230000Y-137163000D02*
X105230000Y-132077000D01*
X105190000Y-137159000D02*
X105190000Y-132081000D01*
X105150000Y-137155000D02*
X105150000Y-135600000D01*
X105150000Y-133640000D02*
X105150000Y-132085000D01*
X105110000Y-137151000D02*
X105110000Y-135600000D01*
X105110000Y-133640000D02*
X105110000Y-132089000D01*
X105070000Y-137145000D02*
X105070000Y-135600000D01*
X105070000Y-133640000D02*
X105070000Y-132095000D01*
X105030000Y-137139000D02*
X105030000Y-135600000D01*
X105030000Y-133640000D02*
X105030000Y-132101000D01*
X104990000Y-137133000D02*
X104990000Y-135600000D01*
X104990000Y-133640000D02*
X104990000Y-132107000D01*
X104950000Y-137126000D02*
X104950000Y-135600000D01*
X104950000Y-133640000D02*
X104950000Y-132114000D01*
X104910000Y-137118000D02*
X104910000Y-135600000D01*
X104910000Y-133640000D02*
X104910000Y-132122000D01*
X104870000Y-137109000D02*
X104870000Y-135600000D01*
X104870000Y-133640000D02*
X104870000Y-132131000D01*
X104830000Y-137100000D02*
X104830000Y-135600000D01*
X104830000Y-133640000D02*
X104830000Y-132140000D01*
X104790000Y-137090000D02*
X104790000Y-135600000D01*
X104790000Y-133640000D02*
X104790000Y-132150000D01*
X104750000Y-137080000D02*
X104750000Y-135600000D01*
X104750000Y-133640000D02*
X104750000Y-132160000D01*
X104709000Y-137068000D02*
X104709000Y-135600000D01*
X104709000Y-133640000D02*
X104709000Y-132172000D01*
X104669000Y-137056000D02*
X104669000Y-135600000D01*
X104669000Y-133640000D02*
X104669000Y-132184000D01*
X104629000Y-137044000D02*
X104629000Y-135600000D01*
X104629000Y-133640000D02*
X104629000Y-132196000D01*
X104589000Y-137030000D02*
X104589000Y-135600000D01*
X104589000Y-133640000D02*
X104589000Y-132210000D01*
X104549000Y-137016000D02*
X104549000Y-135600000D01*
X104549000Y-133640000D02*
X104549000Y-132224000D01*
X104509000Y-137002000D02*
X104509000Y-135600000D01*
X104509000Y-133640000D02*
X104509000Y-132238000D01*
X104469000Y-136986000D02*
X104469000Y-135600000D01*
X104469000Y-133640000D02*
X104469000Y-132254000D01*
X104429000Y-136970000D02*
X104429000Y-135600000D01*
X104429000Y-133640000D02*
X104429000Y-132270000D01*
X104389000Y-136953000D02*
X104389000Y-135600000D01*
X104389000Y-133640000D02*
X104389000Y-132287000D01*
X104349000Y-136935000D02*
X104349000Y-135600000D01*
X104349000Y-133640000D02*
X104349000Y-132305000D01*
X104309000Y-136916000D02*
X104309000Y-135600000D01*
X104309000Y-133640000D02*
X104309000Y-132324000D01*
X104269000Y-136896000D02*
X104269000Y-135600000D01*
X104269000Y-133640000D02*
X104269000Y-132344000D01*
X104229000Y-136876000D02*
X104229000Y-135600000D01*
X104229000Y-133640000D02*
X104229000Y-132364000D01*
X104189000Y-136854000D02*
X104189000Y-135600000D01*
X104189000Y-133640000D02*
X104189000Y-132386000D01*
X104149000Y-136832000D02*
X104149000Y-135600000D01*
X104149000Y-133640000D02*
X104149000Y-132408000D01*
X104109000Y-136809000D02*
X104109000Y-135600000D01*
X104109000Y-133640000D02*
X104109000Y-132431000D01*
X104069000Y-136785000D02*
X104069000Y-135600000D01*
X104069000Y-133640000D02*
X104069000Y-132455000D01*
X104029000Y-136760000D02*
X104029000Y-135600000D01*
X104029000Y-133640000D02*
X104029000Y-132480000D01*
X103989000Y-136733000D02*
X103989000Y-135600000D01*
X103989000Y-133640000D02*
X103989000Y-132507000D01*
X103949000Y-136706000D02*
X103949000Y-135600000D01*
X103949000Y-133640000D02*
X103949000Y-132534000D01*
X103909000Y-136678000D02*
X103909000Y-135600000D01*
X103909000Y-133640000D02*
X103909000Y-132562000D01*
X103869000Y-136648000D02*
X103869000Y-135600000D01*
X103869000Y-133640000D02*
X103869000Y-132592000D01*
X103829000Y-136617000D02*
X103829000Y-135600000D01*
X103829000Y-133640000D02*
X103829000Y-132623000D01*
X103789000Y-136585000D02*
X103789000Y-135600000D01*
X103789000Y-133640000D02*
X103789000Y-132655000D01*
X103749000Y-136552000D02*
X103749000Y-135600000D01*
X103749000Y-133640000D02*
X103749000Y-132688000D01*
X103709000Y-136517000D02*
X103709000Y-135600000D01*
X103709000Y-133640000D02*
X103709000Y-132723000D01*
X103669000Y-136481000D02*
X103669000Y-135600000D01*
X103669000Y-133640000D02*
X103669000Y-132759000D01*
X103629000Y-136443000D02*
X103629000Y-135600000D01*
X103629000Y-133640000D02*
X103629000Y-132797000D01*
X103589000Y-136403000D02*
X103589000Y-135600000D01*
X103589000Y-133640000D02*
X103589000Y-132837000D01*
X103549000Y-136362000D02*
X103549000Y-135600000D01*
X103549000Y-133640000D02*
X103549000Y-132878000D01*
X103509000Y-136319000D02*
X103509000Y-135600000D01*
X103509000Y-133640000D02*
X103509000Y-132921000D01*
X103469000Y-136274000D02*
X103469000Y-135600000D01*
X103469000Y-133640000D02*
X103469000Y-132966000D01*
X103429000Y-136226000D02*
X103429000Y-135600000D01*
X103429000Y-133640000D02*
X103429000Y-133014000D01*
X103389000Y-136176000D02*
X103389000Y-135600000D01*
X103389000Y-133640000D02*
X103389000Y-133064000D01*
X103349000Y-136124000D02*
X103349000Y-135600000D01*
X103349000Y-133640000D02*
X103349000Y-133116000D01*
X103309000Y-136068000D02*
X103309000Y-135600000D01*
X103309000Y-133640000D02*
X103309000Y-133172000D01*
X103269000Y-136010000D02*
X103269000Y-135600000D01*
X103269000Y-133640000D02*
X103269000Y-133230000D01*
X103229000Y-135947000D02*
X103229000Y-135600000D01*
X103229000Y-133640000D02*
X103229000Y-133293000D01*
X103189000Y-135881000D02*
X103189000Y-133359000D01*
X103149000Y-135809000D02*
X103149000Y-133431000D01*
X103109000Y-135732000D02*
X103109000Y-133508000D01*
X103069000Y-135648000D02*
X103069000Y-133592000D01*
X103029000Y-135554000D02*
X103029000Y-133686000D01*
X102989000Y-135449000D02*
X102989000Y-133791000D01*
X102949000Y-135327000D02*
X102949000Y-133913000D01*
X102909000Y-135179000D02*
X102909000Y-134061000D01*
X102869000Y-134974000D02*
X102869000Y-134266000D01*
X108880000Y-134620000D02*
X107680000Y-134620000D01*
X108280000Y-135270000D02*
X108280000Y-133970000D01*
X135432180Y-59599136D02*
G75*
G03X141467482Y-59600000I3017820J1179136D01*
G01*
X135432180Y-57240864D02*
G75*
G02X141467482Y-57240000I3017820J-1179136D01*
G01*
X135432180Y-57240864D02*
G75*
G03X135432518Y-59600000I3017820J-1179136D01*
G01*
X138450000Y-61620000D02*
X138450000Y-55220000D01*
X138410000Y-61620000D02*
X138410000Y-55220000D01*
X138370000Y-61620000D02*
X138370000Y-55220000D01*
X138330000Y-61618000D02*
X138330000Y-55222000D01*
X138290000Y-61617000D02*
X138290000Y-55223000D01*
X138250000Y-61614000D02*
X138250000Y-55226000D01*
X138210000Y-61612000D02*
X138210000Y-55228000D01*
X138170000Y-61608000D02*
X138170000Y-59400000D01*
X138170000Y-57440000D02*
X138170000Y-55232000D01*
X138130000Y-61605000D02*
X138130000Y-59400000D01*
X138130000Y-57440000D02*
X138130000Y-55235000D01*
X138090000Y-61600000D02*
X138090000Y-59400000D01*
X138090000Y-57440000D02*
X138090000Y-55240000D01*
X138050000Y-61596000D02*
X138050000Y-59400000D01*
X138050000Y-57440000D02*
X138050000Y-55244000D01*
X138010000Y-61590000D02*
X138010000Y-59400000D01*
X138010000Y-57440000D02*
X138010000Y-55250000D01*
X137970000Y-61585000D02*
X137970000Y-59400000D01*
X137970000Y-57440000D02*
X137970000Y-55255000D01*
X137930000Y-61578000D02*
X137930000Y-59400000D01*
X137930000Y-57440000D02*
X137930000Y-55262000D01*
X137890000Y-61572000D02*
X137890000Y-59400000D01*
X137890000Y-57440000D02*
X137890000Y-55268000D01*
X137850000Y-61564000D02*
X137850000Y-59400000D01*
X137850000Y-57440000D02*
X137850000Y-55276000D01*
X137810000Y-61557000D02*
X137810000Y-59400000D01*
X137810000Y-57440000D02*
X137810000Y-55283000D01*
X137770000Y-61548000D02*
X137770000Y-59400000D01*
X137770000Y-57440000D02*
X137770000Y-55292000D01*
X137729000Y-61539000D02*
X137729000Y-59400000D01*
X137729000Y-57440000D02*
X137729000Y-55301000D01*
X137689000Y-61530000D02*
X137689000Y-59400000D01*
X137689000Y-57440000D02*
X137689000Y-55310000D01*
X137649000Y-61520000D02*
X137649000Y-59400000D01*
X137649000Y-57440000D02*
X137649000Y-55320000D01*
X137609000Y-61510000D02*
X137609000Y-59400000D01*
X137609000Y-57440000D02*
X137609000Y-55330000D01*
X137569000Y-61499000D02*
X137569000Y-59400000D01*
X137569000Y-57440000D02*
X137569000Y-55341000D01*
X137529000Y-61487000D02*
X137529000Y-59400000D01*
X137529000Y-57440000D02*
X137529000Y-55353000D01*
X137489000Y-61475000D02*
X137489000Y-59400000D01*
X137489000Y-57440000D02*
X137489000Y-55365000D01*
X137449000Y-61462000D02*
X137449000Y-59400000D01*
X137449000Y-57440000D02*
X137449000Y-55378000D01*
X137409000Y-61449000D02*
X137409000Y-59400000D01*
X137409000Y-57440000D02*
X137409000Y-55391000D01*
X137369000Y-61435000D02*
X137369000Y-59400000D01*
X137369000Y-57440000D02*
X137369000Y-55405000D01*
X137329000Y-61421000D02*
X137329000Y-59400000D01*
X137329000Y-57440000D02*
X137329000Y-55419000D01*
X137289000Y-61406000D02*
X137289000Y-59400000D01*
X137289000Y-57440000D02*
X137289000Y-55434000D01*
X137249000Y-61390000D02*
X137249000Y-59400000D01*
X137249000Y-57440000D02*
X137249000Y-55450000D01*
X137209000Y-61374000D02*
X137209000Y-59400000D01*
X137209000Y-57440000D02*
X137209000Y-55466000D01*
X137169000Y-61357000D02*
X137169000Y-59400000D01*
X137169000Y-57440000D02*
X137169000Y-55483000D01*
X137129000Y-61339000D02*
X137129000Y-59400000D01*
X137129000Y-57440000D02*
X137129000Y-55501000D01*
X137089000Y-61321000D02*
X137089000Y-59400000D01*
X137089000Y-57440000D02*
X137089000Y-55519000D01*
X137049000Y-61302000D02*
X137049000Y-59400000D01*
X137049000Y-57440000D02*
X137049000Y-55538000D01*
X137009000Y-61283000D02*
X137009000Y-59400000D01*
X137009000Y-57440000D02*
X137009000Y-55557000D01*
X136969000Y-61263000D02*
X136969000Y-59400000D01*
X136969000Y-57440000D02*
X136969000Y-55577000D01*
X136929000Y-61242000D02*
X136929000Y-59400000D01*
X136929000Y-57440000D02*
X136929000Y-55598000D01*
X136889000Y-61220000D02*
X136889000Y-59400000D01*
X136889000Y-57440000D02*
X136889000Y-55620000D01*
X136849000Y-61198000D02*
X136849000Y-59400000D01*
X136849000Y-57440000D02*
X136849000Y-55642000D01*
X136809000Y-61175000D02*
X136809000Y-59400000D01*
X136809000Y-57440000D02*
X136809000Y-55665000D01*
X136769000Y-61151000D02*
X136769000Y-59400000D01*
X136769000Y-57440000D02*
X136769000Y-55689000D01*
X136729000Y-61126000D02*
X136729000Y-59400000D01*
X136729000Y-57440000D02*
X136729000Y-55714000D01*
X136689000Y-61101000D02*
X136689000Y-59400000D01*
X136689000Y-57440000D02*
X136689000Y-55739000D01*
X136649000Y-61074000D02*
X136649000Y-59400000D01*
X136649000Y-57440000D02*
X136649000Y-55766000D01*
X136609000Y-61047000D02*
X136609000Y-59400000D01*
X136609000Y-57440000D02*
X136609000Y-55793000D01*
X136569000Y-61019000D02*
X136569000Y-59400000D01*
X136569000Y-57440000D02*
X136569000Y-55821000D01*
X136529000Y-60990000D02*
X136529000Y-59400000D01*
X136529000Y-57440000D02*
X136529000Y-55850000D01*
X136489000Y-60960000D02*
X136489000Y-59400000D01*
X136489000Y-57440000D02*
X136489000Y-55880000D01*
X136449000Y-60930000D02*
X136449000Y-59400000D01*
X136449000Y-57440000D02*
X136449000Y-55910000D01*
X136409000Y-60898000D02*
X136409000Y-59400000D01*
X136409000Y-57440000D02*
X136409000Y-55942000D01*
X136369000Y-60865000D02*
X136369000Y-59400000D01*
X136369000Y-57440000D02*
X136369000Y-55975000D01*
X136329000Y-60831000D02*
X136329000Y-59400000D01*
X136329000Y-57440000D02*
X136329000Y-56009000D01*
X136289000Y-60795000D02*
X136289000Y-59400000D01*
X136289000Y-57440000D02*
X136289000Y-56045000D01*
X136249000Y-60759000D02*
X136249000Y-59400000D01*
X136249000Y-57440000D02*
X136249000Y-56081000D01*
X136209000Y-60721000D02*
X136209000Y-56119000D01*
X136169000Y-60682000D02*
X136169000Y-56158000D01*
X136129000Y-60642000D02*
X136129000Y-56198000D01*
X136089000Y-60600000D02*
X136089000Y-56240000D01*
X136049000Y-60557000D02*
X136049000Y-56283000D01*
X136009000Y-60512000D02*
X136009000Y-56328000D01*
X135969000Y-60465000D02*
X135969000Y-56375000D01*
X135929000Y-60417000D02*
X135929000Y-56423000D01*
X135889000Y-60366000D02*
X135889000Y-56474000D01*
X135849000Y-60314000D02*
X135849000Y-56526000D01*
X135809000Y-60259000D02*
X135809000Y-56581000D01*
X135769000Y-60201000D02*
X135769000Y-56639000D01*
X135729000Y-60141000D02*
X135729000Y-56699000D01*
X135689000Y-60078000D02*
X135689000Y-56762000D01*
X135649000Y-60011000D02*
X135649000Y-56829000D01*
X135609000Y-59940000D02*
X135609000Y-56900000D01*
X135569000Y-59865000D02*
X135569000Y-56975000D01*
X135529000Y-59784000D02*
X135529000Y-57056000D01*
X135489000Y-59698000D02*
X135489000Y-57142000D01*
X135449000Y-59604000D02*
X135449000Y-57236000D01*
X135409000Y-59501000D02*
X135409000Y-57339000D01*
X135369000Y-59386000D02*
X135369000Y-57454000D01*
X135329000Y-59254000D02*
X135329000Y-57586000D01*
X135289000Y-59096000D02*
X135289000Y-57744000D01*
X135249000Y-58888000D02*
X135249000Y-57952000D01*
X141900000Y-58420000D02*
X140700000Y-58420000D01*
X141300000Y-59070000D02*
X141300000Y-57770000D01*
X194917000Y-74521000D02*
X193743000Y-74521000D01*
X194917000Y-72799000D02*
X193743000Y-72799000D01*
X138021000Y-76863000D02*
X138021000Y-78037000D01*
X136299000Y-76863000D02*
X136299000Y-78037000D01*
X198981000Y-127663000D02*
X198981000Y-128837000D01*
X197259000Y-127663000D02*
X197259000Y-128837000D01*
X123797000Y-79601000D02*
X122623000Y-79601000D01*
X123797000Y-77879000D02*
X122623000Y-77879000D01*
X112620000Y-60370000D02*
X110900000Y-60370000D01*
X110900000Y-60370000D02*
X110900000Y-64090000D01*
X110900000Y-64090000D02*
X112620000Y-64090000D01*
X112620000Y-64090000D02*
X112620000Y-60370000D01*
X111760000Y-59300000D02*
X111760000Y-60370000D01*
X111760000Y-65160000D02*
X111760000Y-64090000D01*
D11*
X128622305Y-63226990D02*
G75*
G03X129110000Y-63930000I2187695J996990D01*
G01*
X132997695Y-63226990D02*
G75*
G02X132510000Y-63930000I-2187695J996990D01*
G01*
X129110000Y-63930000D02*
X132510000Y-63930000D01*
X128625121Y-61236873D02*
G75*
G02X130810000Y-59830000I2184879J-993127D01*
G01*
X132994879Y-61236873D02*
G75*
G03X130810000Y-59830000I-2184879J-993127D01*
G01*
D13*
X113540000Y-69865000D02*
X119940000Y-69865000D01*
X113540000Y-74915000D02*
X119940000Y-74915000D01*
X113540000Y-74915000D02*
G75*
G02X113540000Y-69865000I0J2525000D01*
G01*
X119940000Y-74915000D02*
G75*
G03X119940000Y-69865000I0J2525000D01*
G01*
D11*
X148328572Y-65222381D02*
X147995238Y-64746190D01*
X147757143Y-65222381D02*
X147757143Y-64222381D01*
X148138096Y-64222381D01*
X148233334Y-64270000D01*
X148280953Y-64317619D01*
X148328572Y-64412857D01*
X148328572Y-64555714D01*
X148280953Y-64650952D01*
X148233334Y-64698571D01*
X148138096Y-64746190D01*
X147757143Y-64746190D01*
X149042858Y-64222381D02*
X149042858Y-64936667D01*
X148995238Y-65079524D01*
X148900000Y-65174762D01*
X148757143Y-65222381D01*
X148661905Y-65222381D01*
X149519048Y-64841429D02*
X150280953Y-64841429D01*
X150709524Y-64317619D02*
X150757143Y-64270000D01*
X150852381Y-64222381D01*
X151090477Y-64222381D01*
X151185715Y-64270000D01*
X151233334Y-64317619D01*
X151280953Y-64412857D01*
X151280953Y-64508095D01*
X151233334Y-64650952D01*
X150661905Y-65222381D01*
X151280953Y-65222381D01*
X152138096Y-64555714D02*
X152138096Y-65222381D01*
X151900000Y-64174762D02*
X151661905Y-64889048D01*
X152280953Y-64889048D01*
X153185715Y-65222381D02*
X152614286Y-65222381D01*
X152900000Y-65222381D02*
X152900000Y-64222381D01*
X152804762Y-64365238D01*
X152709524Y-64460476D01*
X152614286Y-64508095D01*
X153804762Y-64222381D02*
X153900001Y-64222381D01*
X153995239Y-64270000D01*
X154042858Y-64317619D01*
X154090477Y-64412857D01*
X154138096Y-64603333D01*
X154138096Y-64841429D01*
X154090477Y-65031905D01*
X154042858Y-65127143D01*
X153995239Y-65174762D01*
X153900001Y-65222381D01*
X153804762Y-65222381D01*
X153709524Y-65174762D01*
X153661905Y-65127143D01*
X153614286Y-65031905D01*
X153566667Y-64841429D01*
X153566667Y-64603333D01*
X153614286Y-64412857D01*
X153661905Y-64317619D01*
X153709524Y-64270000D01*
X153804762Y-64222381D01*
X154566667Y-65222381D02*
X154566667Y-64222381D01*
X155138096Y-65222381D01*
X155138096Y-64222381D01*
X156328572Y-64174762D02*
X155471429Y-65460476D01*
X156852381Y-64746190D02*
X156852381Y-65222381D01*
X156519048Y-64222381D02*
X156852381Y-64746190D01*
X157185715Y-64222381D01*
X125785714Y-71937619D02*
X125833333Y-71890000D01*
X125928571Y-71842381D01*
X126166667Y-71842381D01*
X126261905Y-71890000D01*
X126309524Y-71937619D01*
X126357143Y-72032857D01*
X126357143Y-72128095D01*
X126309524Y-72270952D01*
X125738095Y-72842381D01*
X126357143Y-72842381D01*
X126738095Y-71937619D02*
X126785714Y-71890000D01*
X126880952Y-71842381D01*
X127119048Y-71842381D01*
X127214286Y-71890000D01*
X127261905Y-71937619D01*
X127309524Y-72032857D01*
X127309524Y-72128095D01*
X127261905Y-72270952D01*
X126690476Y-72842381D01*
X127309524Y-72842381D01*
X127738095Y-72175714D02*
X127738095Y-73175714D01*
X127738095Y-72223333D02*
X127833333Y-72175714D01*
X128023810Y-72175714D01*
X128119048Y-72223333D01*
X128166667Y-72270952D01*
X128214286Y-72366190D01*
X128214286Y-72651905D01*
X128166667Y-72747143D01*
X128119048Y-72794762D01*
X128023810Y-72842381D01*
X127833333Y-72842381D01*
X127738095Y-72794762D01*
X105465714Y-71937619D02*
X105513333Y-71890000D01*
X105608571Y-71842381D01*
X105846667Y-71842381D01*
X105941905Y-71890000D01*
X105989524Y-71937619D01*
X106037143Y-72032857D01*
X106037143Y-72128095D01*
X105989524Y-72270952D01*
X105418095Y-72842381D01*
X106037143Y-72842381D01*
X106418095Y-71937619D02*
X106465714Y-71890000D01*
X106560952Y-71842381D01*
X106799048Y-71842381D01*
X106894286Y-71890000D01*
X106941905Y-71937619D01*
X106989524Y-72032857D01*
X106989524Y-72128095D01*
X106941905Y-72270952D01*
X106370476Y-72842381D01*
X106989524Y-72842381D01*
X107418095Y-72175714D02*
X107418095Y-73175714D01*
X107418095Y-72223333D02*
X107513333Y-72175714D01*
X107703810Y-72175714D01*
X107799048Y-72223333D01*
X107846667Y-72270952D01*
X107894286Y-72366190D01*
X107894286Y-72651905D01*
X107846667Y-72747143D01*
X107799048Y-72794762D01*
X107703810Y-72842381D01*
X107513333Y-72842381D01*
X107418095Y-72794762D01*
X125785714Y-68032381D02*
X125880953Y-68032381D01*
X125976191Y-68080000D01*
X126023810Y-68127619D01*
X126071429Y-68222857D01*
X126119048Y-68413333D01*
X126119048Y-68651429D01*
X126071429Y-68841905D01*
X126023810Y-68937143D01*
X125976191Y-68984762D01*
X125880953Y-69032381D01*
X125785714Y-69032381D01*
X125690476Y-68984762D01*
X125642857Y-68937143D01*
X125595238Y-68841905D01*
X125547619Y-68651429D01*
X125547619Y-68413333D01*
X125595238Y-68222857D01*
X125642857Y-68127619D01*
X125690476Y-68080000D01*
X125785714Y-68032381D01*
X126547619Y-68937143D02*
X126595238Y-68984762D01*
X126547619Y-69032381D01*
X126500000Y-68984762D01*
X126547619Y-68937143D01*
X126547619Y-69032381D01*
X127547619Y-69032381D02*
X126976190Y-69032381D01*
X127261904Y-69032381D02*
X127261904Y-68032381D01*
X127166666Y-68175238D01*
X127071428Y-68270476D01*
X126976190Y-68318095D01*
X128404762Y-68365714D02*
X128404762Y-69032381D01*
X127976190Y-68365714D02*
X127976190Y-68889524D01*
X128023809Y-68984762D01*
X128119047Y-69032381D01*
X128261905Y-69032381D01*
X128357143Y-68984762D01*
X128404762Y-68937143D01*
X141597143Y-63952381D02*
X141025714Y-63952381D01*
X141311428Y-63952381D02*
X141311428Y-62952381D01*
X141216190Y-63095238D01*
X141120952Y-63190476D01*
X141025714Y-63238095D01*
X142216190Y-62952381D02*
X142311429Y-62952381D01*
X142406667Y-63000000D01*
X142454286Y-63047619D01*
X142501905Y-63142857D01*
X142549524Y-63333333D01*
X142549524Y-63571429D01*
X142501905Y-63761905D01*
X142454286Y-63857143D01*
X142406667Y-63904762D01*
X142311429Y-63952381D01*
X142216190Y-63952381D01*
X142120952Y-63904762D01*
X142073333Y-63857143D01*
X142025714Y-63761905D01*
X141978095Y-63571429D01*
X141978095Y-63333333D01*
X142025714Y-63142857D01*
X142073333Y-63047619D01*
X142120952Y-63000000D01*
X142216190Y-62952381D01*
X143406667Y-63285714D02*
X143406667Y-63952381D01*
X142978095Y-63285714D02*
X142978095Y-63809524D01*
X143025714Y-63904762D01*
X143120952Y-63952381D01*
X143263810Y-63952381D01*
X143359048Y-63904762D01*
X143406667Y-63857143D01*
X114752381Y-62349047D02*
X114752381Y-62920476D01*
X114752381Y-62634762D02*
X113752381Y-62634762D01*
X113895238Y-62730000D01*
X113990476Y-62825238D01*
X114038095Y-62920476D01*
X114752381Y-61920476D02*
X113752381Y-61920476D01*
X114371429Y-61825238D02*
X114752381Y-61539523D01*
X114085714Y-61539523D02*
X114466667Y-61920476D01*
X122372381Y-62896666D02*
X122372381Y-63468095D01*
X122372381Y-63182381D02*
X121372381Y-63182381D01*
X121515238Y-63277619D01*
X121610476Y-63372857D01*
X121658095Y-63468095D01*
X121800952Y-62325238D02*
X121753333Y-62420476D01*
X121705714Y-62468095D01*
X121610476Y-62515714D01*
X121562857Y-62515714D01*
X121467619Y-62468095D01*
X121420000Y-62420476D01*
X121372381Y-62325238D01*
X121372381Y-62134761D01*
X121420000Y-62039523D01*
X121467619Y-61991904D01*
X121562857Y-61944285D01*
X121610476Y-61944285D01*
X121705714Y-61991904D01*
X121753333Y-62039523D01*
X121800952Y-62134761D01*
X121800952Y-62325238D01*
X121848571Y-62420476D01*
X121896190Y-62468095D01*
X121991429Y-62515714D01*
X122181905Y-62515714D01*
X122277143Y-62468095D01*
X122324762Y-62420476D01*
X122372381Y-62325238D01*
X122372381Y-62134761D01*
X122324762Y-62039523D01*
X122277143Y-61991904D01*
X122181905Y-61944285D01*
X121991429Y-61944285D01*
X121896190Y-61991904D01*
X121848571Y-62039523D01*
X121800952Y-62134761D01*
X121372381Y-61325238D02*
X121372381Y-61229999D01*
X121420000Y-61134761D01*
X121467619Y-61087142D01*
X121562857Y-61039523D01*
X121753333Y-60991904D01*
X121991429Y-60991904D01*
X122181905Y-61039523D01*
X122277143Y-61087142D01*
X122324762Y-61134761D01*
X122372381Y-61229999D01*
X122372381Y-61325238D01*
X122324762Y-61420476D01*
X122277143Y-61468095D01*
X122181905Y-61515714D01*
X121991429Y-61563333D01*
X121753333Y-61563333D01*
X121562857Y-61515714D01*
X121467619Y-61468095D01*
X121420000Y-61420476D01*
X121372381Y-61325238D01*
X119165714Y-62991904D02*
X119832381Y-62991904D01*
X118784762Y-63230000D02*
X119499048Y-63468095D01*
X119499048Y-62849047D01*
X118832381Y-62563333D02*
X118832381Y-61896666D01*
X119832381Y-62325238D01*
X118832381Y-61325238D02*
X118832381Y-61229999D01*
X118880000Y-61134761D01*
X118927619Y-61087142D01*
X119022857Y-61039523D01*
X119213333Y-60991904D01*
X119451429Y-60991904D01*
X119641905Y-61039523D01*
X119737143Y-61087142D01*
X119784762Y-61134761D01*
X119832381Y-61229999D01*
X119832381Y-61325238D01*
X119784762Y-61420476D01*
X119737143Y-61468095D01*
X119641905Y-61515714D01*
X119451429Y-61563333D01*
X119213333Y-61563333D01*
X119022857Y-61515714D01*
X118927619Y-61468095D01*
X118880000Y-61420476D01*
X118832381Y-61325238D01*
X116387619Y-62920476D02*
X116340000Y-62872857D01*
X116292381Y-62777619D01*
X116292381Y-62539523D01*
X116340000Y-62444285D01*
X116387619Y-62396666D01*
X116482857Y-62349047D01*
X116578095Y-62349047D01*
X116720952Y-62396666D01*
X117292381Y-62968095D01*
X117292381Y-62349047D01*
X117292381Y-61920476D02*
X116292381Y-61920476D01*
X116911429Y-61825238D02*
X117292381Y-61539523D01*
X116625714Y-61539523D02*
X117006667Y-61920476D01*
X116292381Y-108648095D02*
X116292381Y-108076666D01*
X117292381Y-108362381D02*
X116292381Y-108362381D01*
X117292381Y-107743333D02*
X116292381Y-107743333D01*
X117006667Y-107409999D01*
X116292381Y-107076666D01*
X117292381Y-107076666D01*
X117244762Y-106648095D02*
X117292381Y-106505238D01*
X117292381Y-106267142D01*
X117244762Y-106171904D01*
X117197143Y-106124285D01*
X117101905Y-106076666D01*
X117006667Y-106076666D01*
X116911429Y-106124285D01*
X116863810Y-106171904D01*
X116816190Y-106267142D01*
X116768571Y-106457619D01*
X116720952Y-106552857D01*
X116673333Y-106600476D01*
X116578095Y-106648095D01*
X116482857Y-106648095D01*
X116387619Y-106600476D01*
X116340000Y-106552857D01*
X116292381Y-106457619D01*
X116292381Y-106219523D01*
X116340000Y-106076666D01*
X117292381Y-105600476D02*
X117292381Y-105410000D01*
X117244762Y-105314761D01*
X117197143Y-105267142D01*
X117054286Y-105171904D01*
X116863810Y-105124285D01*
X116482857Y-105124285D01*
X116387619Y-105171904D01*
X116340000Y-105219523D01*
X116292381Y-105314761D01*
X116292381Y-105505238D01*
X116340000Y-105600476D01*
X116387619Y-105648095D01*
X116482857Y-105695714D01*
X116720952Y-105695714D01*
X116816190Y-105648095D01*
X116863810Y-105600476D01*
X116911429Y-105505238D01*
X116911429Y-105314761D01*
X116863810Y-105219523D01*
X116816190Y-105171904D01*
X116720952Y-105124285D01*
X117292381Y-104648095D02*
X117292381Y-104457619D01*
X117244762Y-104362380D01*
X117197143Y-104314761D01*
X117054286Y-104219523D01*
X116863810Y-104171904D01*
X116482857Y-104171904D01*
X116387619Y-104219523D01*
X116340000Y-104267142D01*
X116292381Y-104362380D01*
X116292381Y-104552857D01*
X116340000Y-104648095D01*
X116387619Y-104695714D01*
X116482857Y-104743333D01*
X116720952Y-104743333D01*
X116816190Y-104695714D01*
X116863810Y-104648095D01*
X116911429Y-104552857D01*
X116911429Y-104362380D01*
X116863810Y-104267142D01*
X116816190Y-104219523D01*
X116720952Y-104171904D01*
X117292381Y-103219523D02*
X117292381Y-103790952D01*
X117292381Y-103505238D02*
X116292381Y-103505238D01*
X116435238Y-103600476D01*
X116530476Y-103695714D01*
X116578095Y-103790952D01*
X116720952Y-102648095D02*
X116673333Y-102743333D01*
X116625714Y-102790952D01*
X116530476Y-102838571D01*
X116482857Y-102838571D01*
X116387619Y-102790952D01*
X116340000Y-102743333D01*
X116292381Y-102648095D01*
X116292381Y-102457618D01*
X116340000Y-102362380D01*
X116387619Y-102314761D01*
X116482857Y-102267142D01*
X116530476Y-102267142D01*
X116625714Y-102314761D01*
X116673333Y-102362380D01*
X116720952Y-102457618D01*
X116720952Y-102648095D01*
X116768571Y-102743333D01*
X116816190Y-102790952D01*
X116911429Y-102838571D01*
X117101905Y-102838571D01*
X117197143Y-102790952D01*
X117244762Y-102743333D01*
X117292381Y-102648095D01*
X117292381Y-102457618D01*
X117244762Y-102362380D01*
X117197143Y-102314761D01*
X117101905Y-102267142D01*
X116911429Y-102267142D01*
X116816190Y-102314761D01*
X116768571Y-102362380D01*
X116720952Y-102457618D01*
X188412381Y-98924286D02*
X187412381Y-98924286D01*
X187888571Y-98924286D02*
X187888571Y-98352857D01*
X188412381Y-98352857D02*
X187412381Y-98352857D01*
X188412381Y-97876667D02*
X187412381Y-97876667D01*
X188126667Y-97543333D01*
X187412381Y-97210000D01*
X188412381Y-97210000D01*
X187412381Y-96305238D02*
X187412381Y-96495715D01*
X187460000Y-96590953D01*
X187507619Y-96638572D01*
X187650476Y-96733810D01*
X187840952Y-96781429D01*
X188221905Y-96781429D01*
X188317143Y-96733810D01*
X188364762Y-96686191D01*
X188412381Y-96590953D01*
X188412381Y-96400476D01*
X188364762Y-96305238D01*
X188317143Y-96257619D01*
X188221905Y-96210000D01*
X187983810Y-96210000D01*
X187888571Y-96257619D01*
X187840952Y-96305238D01*
X187793333Y-96400476D01*
X187793333Y-96590953D01*
X187840952Y-96686191D01*
X187888571Y-96733810D01*
X187983810Y-96781429D01*
X187507619Y-95829048D02*
X187460000Y-95781429D01*
X187412381Y-95686191D01*
X187412381Y-95448095D01*
X187460000Y-95352857D01*
X187507619Y-95305238D01*
X187602857Y-95257619D01*
X187698095Y-95257619D01*
X187840952Y-95305238D01*
X188412381Y-95876667D01*
X188412381Y-95257619D01*
X187507619Y-94876667D02*
X187460000Y-94829048D01*
X187412381Y-94733810D01*
X187412381Y-94495714D01*
X187460000Y-94400476D01*
X187507619Y-94352857D01*
X187602857Y-94305238D01*
X187698095Y-94305238D01*
X187840952Y-94352857D01*
X188412381Y-94924286D01*
X188412381Y-94305238D01*
X187412381Y-93400476D02*
X187412381Y-93876667D01*
X187888571Y-93924286D01*
X187840952Y-93876667D01*
X187793333Y-93781429D01*
X187793333Y-93543333D01*
X187840952Y-93448095D01*
X187888571Y-93400476D01*
X187983810Y-93352857D01*
X188221905Y-93352857D01*
X188317143Y-93400476D01*
X188364762Y-93448095D01*
X188412381Y-93543333D01*
X188412381Y-93781429D01*
X188364762Y-93876667D01*
X188317143Y-93924286D01*
X187412381Y-92495714D02*
X187412381Y-92686191D01*
X187460000Y-92781429D01*
X187507619Y-92829048D01*
X187650476Y-92924286D01*
X187840952Y-92971905D01*
X188221905Y-92971905D01*
X188317143Y-92924286D01*
X188364762Y-92876667D01*
X188412381Y-92781429D01*
X188412381Y-92590952D01*
X188364762Y-92495714D01*
X188317143Y-92448095D01*
X188221905Y-92400476D01*
X187983810Y-92400476D01*
X187888571Y-92448095D01*
X187840952Y-92495714D01*
X187793333Y-92590952D01*
X187793333Y-92781429D01*
X187840952Y-92876667D01*
X187888571Y-92924286D01*
X187983810Y-92971905D01*
X187888571Y-91638571D02*
X187936190Y-91495714D01*
X187983810Y-91448095D01*
X188079048Y-91400476D01*
X188221905Y-91400476D01*
X188317143Y-91448095D01*
X188364762Y-91495714D01*
X188412381Y-91590952D01*
X188412381Y-91971905D01*
X187412381Y-91971905D01*
X187412381Y-91638571D01*
X187460000Y-91543333D01*
X187507619Y-91495714D01*
X187602857Y-91448095D01*
X187698095Y-91448095D01*
X187793333Y-91495714D01*
X187840952Y-91543333D01*
X187888571Y-91638571D01*
X187888571Y-91971905D01*
X188412381Y-90495714D02*
X188412381Y-90971905D01*
X187412381Y-90971905D01*
X188364762Y-90210000D02*
X188412381Y-90067143D01*
X188412381Y-89829047D01*
X188364762Y-89733809D01*
X188317143Y-89686190D01*
X188221905Y-89638571D01*
X188126667Y-89638571D01*
X188031429Y-89686190D01*
X187983810Y-89733809D01*
X187936190Y-89829047D01*
X187888571Y-90019524D01*
X187840952Y-90114762D01*
X187793333Y-90162381D01*
X187698095Y-90210000D01*
X187602857Y-90210000D01*
X187507619Y-90162381D01*
X187460000Y-90114762D01*
X187412381Y-90019524D01*
X187412381Y-89781428D01*
X187460000Y-89638571D01*
X188412381Y-89210000D02*
X187412381Y-89210000D01*
X187412381Y-88829047D01*
X187460000Y-88733809D01*
X187507619Y-88686190D01*
X187602857Y-88638571D01*
X187745714Y-88638571D01*
X187840952Y-88686190D01*
X187888571Y-88733809D01*
X187936190Y-88829047D01*
X187936190Y-89210000D01*
X188031429Y-88210000D02*
X188031429Y-87448095D01*
X187412381Y-87067143D02*
X187412381Y-86400476D01*
X188412381Y-86829048D01*
X148010952Y-109942381D02*
X148677619Y-109942381D01*
X148249047Y-110942381D01*
X149487143Y-110275714D02*
X149487143Y-110942381D01*
X149249047Y-109894762D02*
X149010952Y-110609048D01*
X149630000Y-110609048D01*
X150487143Y-110942381D02*
X150010952Y-110942381D01*
X150010952Y-109942381D01*
X150772857Y-110894762D02*
X150915714Y-110942381D01*
X151153810Y-110942381D01*
X151249048Y-110894762D01*
X151296667Y-110847143D01*
X151344286Y-110751905D01*
X151344286Y-110656667D01*
X151296667Y-110561429D01*
X151249048Y-110513810D01*
X151153810Y-110466190D01*
X150963333Y-110418571D01*
X150868095Y-110370952D01*
X150820476Y-110323333D01*
X150772857Y-110228095D01*
X150772857Y-110132857D01*
X150820476Y-110037619D01*
X150868095Y-109990000D01*
X150963333Y-109942381D01*
X151201429Y-109942381D01*
X151344286Y-109990000D01*
X152249048Y-109942381D02*
X151772857Y-109942381D01*
X151725238Y-110418571D01*
X151772857Y-110370952D01*
X151868095Y-110323333D01*
X152106191Y-110323333D01*
X152201429Y-110370952D01*
X152249048Y-110418571D01*
X152296667Y-110513810D01*
X152296667Y-110751905D01*
X152249048Y-110847143D01*
X152201429Y-110894762D01*
X152106191Y-110942381D01*
X151868095Y-110942381D01*
X151772857Y-110894762D01*
X151725238Y-110847143D01*
X152630000Y-109942381D02*
X153296667Y-109942381D01*
X152868095Y-110942381D01*
X154106191Y-110275714D02*
X154106191Y-110942381D01*
X153868095Y-109894762D02*
X153630000Y-110609048D01*
X154249048Y-110609048D01*
X148010952Y-94702381D02*
X148677619Y-94702381D01*
X148249047Y-95702381D01*
X149487143Y-95035714D02*
X149487143Y-95702381D01*
X149249047Y-94654762D02*
X149010952Y-95369048D01*
X149630000Y-95369048D01*
X150487143Y-95702381D02*
X150010952Y-95702381D01*
X150010952Y-94702381D01*
X150772857Y-95654762D02*
X150915714Y-95702381D01*
X151153810Y-95702381D01*
X151249048Y-95654762D01*
X151296667Y-95607143D01*
X151344286Y-95511905D01*
X151344286Y-95416667D01*
X151296667Y-95321429D01*
X151249048Y-95273810D01*
X151153810Y-95226190D01*
X150963333Y-95178571D01*
X150868095Y-95130952D01*
X150820476Y-95083333D01*
X150772857Y-94988095D01*
X150772857Y-94892857D01*
X150820476Y-94797619D01*
X150868095Y-94750000D01*
X150963333Y-94702381D01*
X151201429Y-94702381D01*
X151344286Y-94750000D01*
X152249048Y-94702381D02*
X151772857Y-94702381D01*
X151725238Y-95178571D01*
X151772857Y-95130952D01*
X151868095Y-95083333D01*
X152106191Y-95083333D01*
X152201429Y-95130952D01*
X152249048Y-95178571D01*
X152296667Y-95273810D01*
X152296667Y-95511905D01*
X152249048Y-95607143D01*
X152201429Y-95654762D01*
X152106191Y-95702381D01*
X151868095Y-95702381D01*
X151772857Y-95654762D01*
X151725238Y-95607143D01*
X152630000Y-94702381D02*
X153296667Y-94702381D01*
X152868095Y-95702381D01*
X154106191Y-95035714D02*
X154106191Y-95702381D01*
X153868095Y-94654762D02*
X153630000Y-95369048D01*
X154249048Y-95369048D01*
X148010952Y-79462381D02*
X148677619Y-79462381D01*
X148249047Y-80462381D01*
X149487143Y-79795714D02*
X149487143Y-80462381D01*
X149249047Y-79414762D02*
X149010952Y-80129048D01*
X149630000Y-80129048D01*
X150487143Y-80462381D02*
X150010952Y-80462381D01*
X150010952Y-79462381D01*
X150772857Y-80414762D02*
X150915714Y-80462381D01*
X151153810Y-80462381D01*
X151249048Y-80414762D01*
X151296667Y-80367143D01*
X151344286Y-80271905D01*
X151344286Y-80176667D01*
X151296667Y-80081429D01*
X151249048Y-80033810D01*
X151153810Y-79986190D01*
X150963333Y-79938571D01*
X150868095Y-79890952D01*
X150820476Y-79843333D01*
X150772857Y-79748095D01*
X150772857Y-79652857D01*
X150820476Y-79557619D01*
X150868095Y-79510000D01*
X150963333Y-79462381D01*
X151201429Y-79462381D01*
X151344286Y-79510000D01*
X152249048Y-79462381D02*
X151772857Y-79462381D01*
X151725238Y-79938571D01*
X151772857Y-79890952D01*
X151868095Y-79843333D01*
X152106191Y-79843333D01*
X152201429Y-79890952D01*
X152249048Y-79938571D01*
X152296667Y-80033810D01*
X152296667Y-80271905D01*
X152249048Y-80367143D01*
X152201429Y-80414762D01*
X152106191Y-80462381D01*
X151868095Y-80462381D01*
X151772857Y-80414762D01*
X151725238Y-80367143D01*
X152630000Y-79462381D02*
X153296667Y-79462381D01*
X152868095Y-80462381D01*
X154106191Y-79795714D02*
X154106191Y-80462381D01*
X153868095Y-79414762D02*
X153630000Y-80129048D01*
X154249048Y-80129048D01*
X162457143Y-125182381D02*
X163123810Y-125182381D01*
X162695238Y-126182381D01*
X163933334Y-125515714D02*
X163933334Y-126182381D01*
X163695238Y-125134762D02*
X163457143Y-125849048D01*
X164076191Y-125849048D01*
X164933334Y-126182381D02*
X164457143Y-126182381D01*
X164457143Y-125182381D01*
X165219048Y-126134762D02*
X165361905Y-126182381D01*
X165600001Y-126182381D01*
X165695239Y-126134762D01*
X165742858Y-126087143D01*
X165790477Y-125991905D01*
X165790477Y-125896667D01*
X165742858Y-125801429D01*
X165695239Y-125753810D01*
X165600001Y-125706190D01*
X165409524Y-125658571D01*
X165314286Y-125610952D01*
X165266667Y-125563333D01*
X165219048Y-125468095D01*
X165219048Y-125372857D01*
X165266667Y-125277619D01*
X165314286Y-125230000D01*
X165409524Y-125182381D01*
X165647620Y-125182381D01*
X165790477Y-125230000D01*
X166409524Y-125182381D02*
X166504763Y-125182381D01*
X166600001Y-125230000D01*
X166647620Y-125277619D01*
X166695239Y-125372857D01*
X166742858Y-125563333D01*
X166742858Y-125801429D01*
X166695239Y-125991905D01*
X166647620Y-126087143D01*
X166600001Y-126134762D01*
X166504763Y-126182381D01*
X166409524Y-126182381D01*
X166314286Y-126134762D01*
X166266667Y-126087143D01*
X166219048Y-125991905D01*
X166171429Y-125801429D01*
X166171429Y-125563333D01*
X166219048Y-125372857D01*
X166266667Y-125277619D01*
X166314286Y-125230000D01*
X166409524Y-125182381D01*
X167600001Y-125515714D02*
X167600001Y-126182381D01*
X167361905Y-125134762D02*
X167123810Y-125849048D01*
X167742858Y-125849048D01*
X137850952Y-125182381D02*
X138517619Y-125182381D01*
X138089047Y-126182381D01*
X139327143Y-125515714D02*
X139327143Y-126182381D01*
X139089047Y-125134762D02*
X138850952Y-125849048D01*
X139470000Y-125849048D01*
X140327143Y-126182381D02*
X139850952Y-126182381D01*
X139850952Y-125182381D01*
X140612857Y-126134762D02*
X140755714Y-126182381D01*
X140993810Y-126182381D01*
X141089048Y-126134762D01*
X141136667Y-126087143D01*
X141184286Y-125991905D01*
X141184286Y-125896667D01*
X141136667Y-125801429D01*
X141089048Y-125753810D01*
X140993810Y-125706190D01*
X140803333Y-125658571D01*
X140708095Y-125610952D01*
X140660476Y-125563333D01*
X140612857Y-125468095D01*
X140612857Y-125372857D01*
X140660476Y-125277619D01*
X140708095Y-125230000D01*
X140803333Y-125182381D01*
X141041429Y-125182381D01*
X141184286Y-125230000D01*
X142136667Y-126182381D02*
X141565238Y-126182381D01*
X141850952Y-126182381D02*
X141850952Y-125182381D01*
X141755714Y-125325238D01*
X141660476Y-125420476D01*
X141565238Y-125468095D01*
X142470000Y-125182381D02*
X143089048Y-125182381D01*
X142755714Y-125563333D01*
X142898572Y-125563333D01*
X142993810Y-125610952D01*
X143041429Y-125658571D01*
X143089048Y-125753810D01*
X143089048Y-125991905D01*
X143041429Y-126087143D01*
X142993810Y-126134762D01*
X142898572Y-126182381D01*
X142612857Y-126182381D01*
X142517619Y-126134762D01*
X142470000Y-126087143D01*
X143565238Y-126182381D02*
X143755714Y-126182381D01*
X143850953Y-126134762D01*
X143898572Y-126087143D01*
X143993810Y-125944286D01*
X144041429Y-125753810D01*
X144041429Y-125372857D01*
X143993810Y-125277619D01*
X143946191Y-125230000D01*
X143850953Y-125182381D01*
X143660476Y-125182381D01*
X143565238Y-125230000D01*
X143517619Y-125277619D01*
X143470000Y-125372857D01*
X143470000Y-125610952D01*
X143517619Y-125706190D01*
X143565238Y-125753810D01*
X143660476Y-125801429D01*
X143850953Y-125801429D01*
X143946191Y-125753810D01*
X143993810Y-125706190D01*
X144041429Y-125610952D01*
X185317143Y-125182381D02*
X185983810Y-125182381D01*
X185555238Y-126182381D01*
X186793334Y-125515714D02*
X186793334Y-126182381D01*
X186555238Y-125134762D02*
X186317143Y-125849048D01*
X186936191Y-125849048D01*
X187793334Y-126182381D02*
X187317143Y-126182381D01*
X187317143Y-125182381D01*
X188079048Y-126134762D02*
X188221905Y-126182381D01*
X188460001Y-126182381D01*
X188555239Y-126134762D01*
X188602858Y-126087143D01*
X188650477Y-125991905D01*
X188650477Y-125896667D01*
X188602858Y-125801429D01*
X188555239Y-125753810D01*
X188460001Y-125706190D01*
X188269524Y-125658571D01*
X188174286Y-125610952D01*
X188126667Y-125563333D01*
X188079048Y-125468095D01*
X188079048Y-125372857D01*
X188126667Y-125277619D01*
X188174286Y-125230000D01*
X188269524Y-125182381D01*
X188507620Y-125182381D01*
X188650477Y-125230000D01*
X188983810Y-125182381D02*
X189602858Y-125182381D01*
X189269524Y-125563333D01*
X189412382Y-125563333D01*
X189507620Y-125610952D01*
X189555239Y-125658571D01*
X189602858Y-125753810D01*
X189602858Y-125991905D01*
X189555239Y-126087143D01*
X189507620Y-126134762D01*
X189412382Y-126182381D01*
X189126667Y-126182381D01*
X189031429Y-126134762D01*
X188983810Y-126087143D01*
X189983810Y-125277619D02*
X190031429Y-125230000D01*
X190126667Y-125182381D01*
X190364763Y-125182381D01*
X190460001Y-125230000D01*
X190507620Y-125277619D01*
X190555239Y-125372857D01*
X190555239Y-125468095D01*
X190507620Y-125610952D01*
X189936191Y-126182381D01*
X190555239Y-126182381D01*
X104787143Y-131262381D02*
X104215714Y-131262381D01*
X104501428Y-131262381D02*
X104501428Y-130262381D01*
X104406190Y-130405238D01*
X104310952Y-130500476D01*
X104215714Y-130548095D01*
X105406190Y-130262381D02*
X105501429Y-130262381D01*
X105596667Y-130310000D01*
X105644286Y-130357619D01*
X105691905Y-130452857D01*
X105739524Y-130643333D01*
X105739524Y-130881429D01*
X105691905Y-131071905D01*
X105644286Y-131167143D01*
X105596667Y-131214762D01*
X105501429Y-131262381D01*
X105406190Y-131262381D01*
X105310952Y-131214762D01*
X105263333Y-131167143D01*
X105215714Y-131071905D01*
X105168095Y-130881429D01*
X105168095Y-130643333D01*
X105215714Y-130452857D01*
X105263333Y-130357619D01*
X105310952Y-130310000D01*
X105406190Y-130262381D01*
X106596667Y-130595714D02*
X106596667Y-131262381D01*
X106168095Y-130595714D02*
X106168095Y-131119524D01*
X106215714Y-131214762D01*
X106310952Y-131262381D01*
X106453810Y-131262381D01*
X106549048Y-131214762D01*
X106596667Y-131167143D01*
X141025715Y-54395714D02*
X141025715Y-55062381D01*
X140787619Y-54014762D02*
X140549524Y-54729048D01*
X141168572Y-54729048D01*
X141454286Y-54062381D02*
X142120953Y-54062381D01*
X141692381Y-55062381D01*
X142692381Y-54062381D02*
X142787620Y-54062381D01*
X142882858Y-54110000D01*
X142930477Y-54157619D01*
X142978096Y-54252857D01*
X143025715Y-54443333D01*
X143025715Y-54681429D01*
X142978096Y-54871905D01*
X142930477Y-54967143D01*
X142882858Y-55014762D01*
X142787620Y-55062381D01*
X142692381Y-55062381D01*
X142597143Y-55014762D01*
X142549524Y-54967143D01*
X142501905Y-54871905D01*
X142454286Y-54681429D01*
X142454286Y-54443333D01*
X142501905Y-54252857D01*
X142549524Y-54157619D01*
X142597143Y-54110000D01*
X142692381Y-54062381D01*
X143882858Y-54395714D02*
X143882858Y-55062381D01*
X143454286Y-54395714D02*
X143454286Y-54919524D01*
X143501905Y-55014762D01*
X143597143Y-55062381D01*
X143740001Y-55062381D01*
X143835239Y-55014762D01*
X143882858Y-54967143D01*
X109828571Y-66896666D02*
X109876190Y-66753809D01*
X109923810Y-66706190D01*
X110019048Y-66658571D01*
X110161905Y-66658571D01*
X110257143Y-66706190D01*
X110304762Y-66753809D01*
X110352381Y-66849047D01*
X110352381Y-67230000D01*
X109352381Y-67230000D01*
X109352381Y-66896666D01*
X109400000Y-66801428D01*
X109447619Y-66753809D01*
X109542857Y-66706190D01*
X109638095Y-66706190D01*
X109733333Y-66753809D01*
X109780952Y-66801428D01*
X109828571Y-66896666D01*
X109828571Y-67230000D01*
X110352381Y-65753809D02*
X110352381Y-66230000D01*
X109352381Y-66230000D01*
X109352381Y-65230000D02*
X109352381Y-65134761D01*
X109400000Y-65039523D01*
X109447619Y-64991904D01*
X109542857Y-64944285D01*
X109733333Y-64896666D01*
X109971429Y-64896666D01*
X110161905Y-64944285D01*
X110257143Y-64991904D01*
X110304762Y-65039523D01*
X110352381Y-65134761D01*
X110352381Y-65230000D01*
X110304762Y-65325238D01*
X110257143Y-65372857D01*
X110161905Y-65420476D01*
X109971429Y-65468095D01*
X109733333Y-65468095D01*
X109542857Y-65420476D01*
X109447619Y-65372857D01*
X109400000Y-65325238D01*
X109352381Y-65230000D01*
X110352381Y-63944285D02*
X110352381Y-64515714D01*
X110352381Y-64230000D02*
X109352381Y-64230000D01*
X109495238Y-64325238D01*
X109590476Y-64420476D01*
X109638095Y-64515714D01*
X110352381Y-62944285D02*
X109876190Y-63277619D01*
X110352381Y-63515714D02*
X109352381Y-63515714D01*
X109352381Y-63134761D01*
X109400000Y-63039523D01*
X109447619Y-62991904D01*
X109542857Y-62944285D01*
X109685714Y-62944285D01*
X109780952Y-62991904D01*
X109828571Y-63039523D01*
X109876190Y-63134761D01*
X109876190Y-63515714D01*
X110352381Y-62515714D02*
X109352381Y-62515714D01*
X110352381Y-61944285D01*
X109352381Y-61944285D01*
X110352381Y-60944285D02*
X110352381Y-61515714D01*
X110352381Y-61230000D02*
X109352381Y-61230000D01*
X109495238Y-61325238D01*
X109590476Y-61420476D01*
X109638095Y-61515714D01*
X110066667Y-60563333D02*
X110066667Y-60087142D01*
X110352381Y-60658571D02*
X109352381Y-60325238D01*
X110352381Y-59991904D01*
X110352381Y-59134761D02*
X110352381Y-59706190D01*
X110352381Y-59420476D02*
X109352381Y-59420476D01*
X109495238Y-59515714D01*
X109590476Y-59610952D01*
X109638095Y-59706190D01*
X110352381Y-58706190D02*
X109352381Y-58706190D01*
X109352381Y-58468095D01*
X109400000Y-58325237D01*
X109495238Y-58229999D01*
X109590476Y-58182380D01*
X109780952Y-58134761D01*
X109923810Y-58134761D01*
X110114286Y-58182380D01*
X110209524Y-58229999D01*
X110304762Y-58325237D01*
X110352381Y-58468095D01*
X110352381Y-58706190D01*
X109447619Y-57753809D02*
X109400000Y-57706190D01*
X109352381Y-57610952D01*
X109352381Y-57372856D01*
X109400000Y-57277618D01*
X109447619Y-57229999D01*
X109542857Y-57182380D01*
X109638095Y-57182380D01*
X109780952Y-57229999D01*
X110352381Y-57801428D01*
X110352381Y-57182380D01*
X127643333Y-57967619D02*
X127690952Y-57920000D01*
X127786190Y-57872381D01*
X128024286Y-57872381D01*
X128119524Y-57920000D01*
X128167143Y-57967619D01*
X128214762Y-58062857D01*
X128214762Y-58158095D01*
X128167143Y-58300952D01*
X127595714Y-58872381D01*
X128214762Y-58872381D01*
X128595714Y-58824762D02*
X128738571Y-58872381D01*
X128976667Y-58872381D01*
X129071905Y-58824762D01*
X129119524Y-58777143D01*
X129167143Y-58681905D01*
X129167143Y-58586667D01*
X129119524Y-58491429D01*
X129071905Y-58443810D01*
X128976667Y-58396190D01*
X128786190Y-58348571D01*
X128690952Y-58300952D01*
X128643333Y-58253333D01*
X128595714Y-58158095D01*
X128595714Y-58062857D01*
X128643333Y-57967619D01*
X128690952Y-57920000D01*
X128786190Y-57872381D01*
X129024286Y-57872381D01*
X129167143Y-57920000D01*
X130167143Y-58777143D02*
X130119524Y-58824762D01*
X129976667Y-58872381D01*
X129881429Y-58872381D01*
X129738571Y-58824762D01*
X129643333Y-58729524D01*
X129595714Y-58634286D01*
X129548095Y-58443810D01*
X129548095Y-58300952D01*
X129595714Y-58110476D01*
X129643333Y-58015238D01*
X129738571Y-57920000D01*
X129881429Y-57872381D01*
X129976667Y-57872381D01*
X130119524Y-57920000D01*
X130167143Y-57967619D01*
X131119524Y-58872381D02*
X130548095Y-58872381D01*
X130833809Y-58872381D02*
X130833809Y-57872381D01*
X130738571Y-58015238D01*
X130643333Y-58110476D01*
X130548095Y-58158095D01*
X131690952Y-58300952D02*
X131595714Y-58253333D01*
X131548095Y-58205714D01*
X131500476Y-58110476D01*
X131500476Y-58062857D01*
X131548095Y-57967619D01*
X131595714Y-57920000D01*
X131690952Y-57872381D01*
X131881429Y-57872381D01*
X131976667Y-57920000D01*
X132024286Y-57967619D01*
X132071905Y-58062857D01*
X132071905Y-58110476D01*
X132024286Y-58205714D01*
X131976667Y-58253333D01*
X131881429Y-58300952D01*
X131690952Y-58300952D01*
X131595714Y-58348571D01*
X131548095Y-58396190D01*
X131500476Y-58491429D01*
X131500476Y-58681905D01*
X131548095Y-58777143D01*
X131595714Y-58824762D01*
X131690952Y-58872381D01*
X131881429Y-58872381D01*
X131976667Y-58824762D01*
X132024286Y-58777143D01*
X132071905Y-58681905D01*
X132071905Y-58491429D01*
X132024286Y-58396190D01*
X131976667Y-58348571D01*
X131881429Y-58300952D01*
X133024286Y-58872381D02*
X132452857Y-58872381D01*
X132738571Y-58872381D02*
X132738571Y-57872381D01*
X132643333Y-58015238D01*
X132548095Y-58110476D01*
X132452857Y-58158095D01*
X133929048Y-57872381D02*
X133452857Y-57872381D01*
X133405238Y-58348571D01*
X133452857Y-58300952D01*
X133548095Y-58253333D01*
X133786191Y-58253333D01*
X133881429Y-58300952D01*
X133929048Y-58348571D01*
X133976667Y-58443810D01*
X133976667Y-58681905D01*
X133929048Y-58777143D01*
X133881429Y-58824762D01*
X133786191Y-58872381D01*
X133548095Y-58872381D01*
X133452857Y-58824762D01*
X133405238Y-58777143D01*
X112530477Y-76652381D02*
X111959048Y-76652381D01*
X112244762Y-76652381D02*
X112244762Y-75652381D01*
X112149524Y-75795238D01*
X112054286Y-75890476D01*
X111959048Y-75938095D01*
X113149524Y-75652381D02*
X113244763Y-75652381D01*
X113340001Y-75700000D01*
X113387620Y-75747619D01*
X113435239Y-75842857D01*
X113482858Y-76033333D01*
X113482858Y-76271429D01*
X113435239Y-76461905D01*
X113387620Y-76557143D01*
X113340001Y-76604762D01*
X113244763Y-76652381D01*
X113149524Y-76652381D01*
X113054286Y-76604762D01*
X113006667Y-76557143D01*
X112959048Y-76461905D01*
X112911429Y-76271429D01*
X112911429Y-76033333D01*
X112959048Y-75842857D01*
X113006667Y-75747619D01*
X113054286Y-75700000D01*
X113149524Y-75652381D01*
X113911429Y-76557143D02*
X113959048Y-76604762D01*
X113911429Y-76652381D01*
X113863810Y-76604762D01*
X113911429Y-76557143D01*
X113911429Y-76652381D01*
X114292381Y-75652381D02*
X114959048Y-75652381D01*
X114530476Y-76652381D01*
X115244762Y-75652381D02*
X115863810Y-75652381D01*
X115530476Y-76033333D01*
X115673334Y-76033333D01*
X115768572Y-76080952D01*
X115816191Y-76128571D01*
X115863810Y-76223810D01*
X115863810Y-76461905D01*
X115816191Y-76557143D01*
X115768572Y-76604762D01*
X115673334Y-76652381D01*
X115387619Y-76652381D01*
X115292381Y-76604762D01*
X115244762Y-76557143D01*
X116435238Y-76080952D02*
X116340000Y-76033333D01*
X116292381Y-75985714D01*
X116244762Y-75890476D01*
X116244762Y-75842857D01*
X116292381Y-75747619D01*
X116340000Y-75700000D01*
X116435238Y-75652381D01*
X116625715Y-75652381D01*
X116720953Y-75700000D01*
X116768572Y-75747619D01*
X116816191Y-75842857D01*
X116816191Y-75890476D01*
X116768572Y-75985714D01*
X116720953Y-76033333D01*
X116625715Y-76080952D01*
X116435238Y-76080952D01*
X116340000Y-76128571D01*
X116292381Y-76176190D01*
X116244762Y-76271429D01*
X116244762Y-76461905D01*
X116292381Y-76557143D01*
X116340000Y-76604762D01*
X116435238Y-76652381D01*
X116625715Y-76652381D01*
X116720953Y-76604762D01*
X116768572Y-76557143D01*
X116816191Y-76461905D01*
X116816191Y-76271429D01*
X116768572Y-76176190D01*
X116720953Y-76128571D01*
X116625715Y-76080952D01*
X117673334Y-75652381D02*
X117482857Y-75652381D01*
X117387619Y-75700000D01*
X117340000Y-75747619D01*
X117244762Y-75890476D01*
X117197143Y-76080952D01*
X117197143Y-76461905D01*
X117244762Y-76557143D01*
X117292381Y-76604762D01*
X117387619Y-76652381D01*
X117578096Y-76652381D01*
X117673334Y-76604762D01*
X117720953Y-76557143D01*
X117768572Y-76461905D01*
X117768572Y-76223810D01*
X117720953Y-76128571D01*
X117673334Y-76080952D01*
X117578096Y-76033333D01*
X117387619Y-76033333D01*
X117292381Y-76080952D01*
X117244762Y-76128571D01*
X117197143Y-76223810D01*
X118625715Y-75985714D02*
X118625715Y-76652381D01*
X118387619Y-75604762D02*
X118149524Y-76319048D01*
X118768572Y-76319048D01*
X119149524Y-76652381D02*
X119149524Y-75652381D01*
X119482858Y-76366667D01*
X119816191Y-75652381D01*
X119816191Y-76652381D01*
X120292381Y-76652381D02*
X120292381Y-75652381D01*
X120292381Y-76128571D02*
X120863810Y-76128571D01*
X120863810Y-76652381D02*
X120863810Y-75652381D01*
X121244762Y-75985714D02*
X121768572Y-75985714D01*
X121244762Y-76652381D01*
X121768572Y-76652381D01*
M02*
