G04 #@! TF.FileFunction,Copper,L1,Top,Signal*
%FSLAX46Y46*%
G04 Gerber Fmt 4.6, Leading zero omitted, Abs format (unit mm)*
G04 Created by KiCad (PCBNEW 4.0.7) date 2024 March 18, Monday 14:50:24*
%MOMM*%
%LPD*%
G01*
G04 APERTURE LIST*
%ADD10C,0.100000*%
%ADD11O,1.700000X3.200000*%
%ADD12O,3.200000X2.000000*%
%ADD13R,1.524000X12.000000*%
%ADD14C,1.600000*%
%ADD15R,1.600000X1.600000*%
%ADD16C,1.400000*%
%ADD17O,1.400000X1.400000*%
%ADD18O,1.600000X1.600000*%
%ADD19C,1.524000*%
%ADD20C,1.500000*%
%ADD21C,0.600000*%
%ADD22C,0.500000*%
%ADD23C,0.250000*%
%ADD24C,0.254000*%
G04 APERTURE END LIST*
D10*
D11*
X152400000Y-60380000D03*
D12*
X152400000Y-55880000D03*
D13*
X106680000Y-146050000D03*
X109220000Y-146050000D03*
X111760000Y-146050000D03*
X114300000Y-146050000D03*
X116840000Y-146050000D03*
X119380000Y-146050000D03*
X121920000Y-146050000D03*
X124460000Y-146050000D03*
X127000000Y-146050000D03*
X129540000Y-146050000D03*
X132080000Y-146050000D03*
X134620000Y-146050000D03*
X137160000Y-146050000D03*
X139700000Y-146050000D03*
X142240000Y-146050000D03*
X144780000Y-146050000D03*
X147320000Y-146050000D03*
X149860000Y-146050000D03*
X152400000Y-146050000D03*
X154940000Y-146050000D03*
X157480000Y-146050000D03*
X160020000Y-146050000D03*
X162560000Y-146050000D03*
X165100000Y-146050000D03*
X167640000Y-146050000D03*
X170180000Y-146050000D03*
X172720000Y-146050000D03*
X175260000Y-146050000D03*
X177800000Y-146050000D03*
X180340000Y-146050000D03*
X182880000Y-146050000D03*
X185420000Y-146050000D03*
X187960000Y-146050000D03*
X190500000Y-146050000D03*
X193040000Y-146050000D03*
X195580000Y-146050000D03*
D14*
X124460000Y-73660000D03*
X124460000Y-71160000D03*
X109220000Y-73660000D03*
X109220000Y-71160000D03*
X129540000Y-68580000D03*
X132040000Y-68580000D03*
D15*
X139700000Y-66040000D03*
D14*
X137200000Y-66040000D03*
D16*
X114300000Y-66040000D03*
D17*
X114300000Y-58420000D03*
D16*
X121920000Y-58420000D03*
D17*
X121920000Y-66040000D03*
D16*
X119380000Y-58420000D03*
D17*
X119380000Y-66040000D03*
D16*
X116840000Y-58420000D03*
D17*
X116840000Y-66040000D03*
D15*
X109220000Y-81280000D03*
D18*
X124460000Y-129540000D03*
X109220000Y-83820000D03*
X124460000Y-127000000D03*
X109220000Y-86360000D03*
X124460000Y-124460000D03*
X109220000Y-88900000D03*
X124460000Y-121920000D03*
X109220000Y-91440000D03*
X124460000Y-119380000D03*
X109220000Y-93980000D03*
X124460000Y-116840000D03*
X109220000Y-96520000D03*
X124460000Y-114300000D03*
X109220000Y-99060000D03*
X124460000Y-111760000D03*
X109220000Y-101600000D03*
X124460000Y-109220000D03*
X109220000Y-104140000D03*
X124460000Y-106680000D03*
X109220000Y-106680000D03*
X124460000Y-104140000D03*
X109220000Y-109220000D03*
X124460000Y-101600000D03*
X109220000Y-111760000D03*
X124460000Y-99060000D03*
X109220000Y-114300000D03*
X124460000Y-96520000D03*
X109220000Y-116840000D03*
X124460000Y-93980000D03*
X109220000Y-119380000D03*
X124460000Y-91440000D03*
X109220000Y-121920000D03*
X124460000Y-88900000D03*
X109220000Y-124460000D03*
X124460000Y-86360000D03*
X109220000Y-127000000D03*
X124460000Y-83820000D03*
X109220000Y-129540000D03*
X124460000Y-81280000D03*
D15*
X180340000Y-76200000D03*
D18*
X195580000Y-109220000D03*
X180340000Y-78740000D03*
X195580000Y-106680000D03*
X180340000Y-81280000D03*
X195580000Y-104140000D03*
X180340000Y-83820000D03*
X195580000Y-101600000D03*
X180340000Y-86360000D03*
X195580000Y-99060000D03*
X180340000Y-88900000D03*
X195580000Y-96520000D03*
X180340000Y-91440000D03*
X195580000Y-93980000D03*
X180340000Y-93980000D03*
X195580000Y-91440000D03*
X180340000Y-96520000D03*
X195580000Y-88900000D03*
X180340000Y-99060000D03*
X195580000Y-86360000D03*
X180340000Y-101600000D03*
X195580000Y-83820000D03*
X180340000Y-104140000D03*
X195580000Y-81280000D03*
X180340000Y-106680000D03*
X195580000Y-78740000D03*
X180340000Y-109220000D03*
X195580000Y-76200000D03*
D15*
X139700000Y-114300000D03*
D18*
X162560000Y-106680000D03*
X142240000Y-114300000D03*
X160020000Y-106680000D03*
X144780000Y-114300000D03*
X157480000Y-106680000D03*
X147320000Y-114300000D03*
X154940000Y-106680000D03*
X149860000Y-114300000D03*
X152400000Y-106680000D03*
X152400000Y-114300000D03*
X149860000Y-106680000D03*
X154940000Y-114300000D03*
X147320000Y-106680000D03*
X157480000Y-114300000D03*
X144780000Y-106680000D03*
X160020000Y-114300000D03*
X142240000Y-106680000D03*
X162560000Y-114300000D03*
X139700000Y-106680000D03*
D15*
X139700000Y-99060000D03*
D18*
X162560000Y-91440000D03*
X142240000Y-99060000D03*
X160020000Y-91440000D03*
X144780000Y-99060000D03*
X157480000Y-91440000D03*
X147320000Y-99060000D03*
X154940000Y-91440000D03*
X149860000Y-99060000D03*
X152400000Y-91440000D03*
X152400000Y-99060000D03*
X149860000Y-91440000D03*
X154940000Y-99060000D03*
X147320000Y-91440000D03*
X157480000Y-99060000D03*
X144780000Y-91440000D03*
X160020000Y-99060000D03*
X142240000Y-91440000D03*
X162560000Y-99060000D03*
X139700000Y-91440000D03*
D15*
X139700000Y-83820000D03*
D18*
X162560000Y-76200000D03*
X142240000Y-83820000D03*
X160020000Y-76200000D03*
X144780000Y-83820000D03*
X157480000Y-76200000D03*
X147320000Y-83820000D03*
X154940000Y-76200000D03*
X149860000Y-83820000D03*
X152400000Y-76200000D03*
X152400000Y-83820000D03*
X149860000Y-76200000D03*
X154940000Y-83820000D03*
X147320000Y-76200000D03*
X157480000Y-83820000D03*
X144780000Y-76200000D03*
X160020000Y-83820000D03*
X142240000Y-76200000D03*
X162560000Y-83820000D03*
X139700000Y-76200000D03*
D15*
X157480000Y-129540000D03*
D18*
X172720000Y-121920000D03*
X160020000Y-129540000D03*
X170180000Y-121920000D03*
X162560000Y-129540000D03*
X167640000Y-121920000D03*
X165100000Y-129540000D03*
X165100000Y-121920000D03*
X167640000Y-129540000D03*
X162560000Y-121920000D03*
X170180000Y-129540000D03*
X160020000Y-121920000D03*
X172720000Y-129540000D03*
X157480000Y-121920000D03*
D15*
X132080000Y-129540000D03*
D18*
X149860000Y-121920000D03*
X134620000Y-129540000D03*
X147320000Y-121920000D03*
X137160000Y-129540000D03*
X144780000Y-121920000D03*
X139700000Y-129540000D03*
X142240000Y-121920000D03*
X142240000Y-129540000D03*
X139700000Y-121920000D03*
X144780000Y-129540000D03*
X137160000Y-121920000D03*
X147320000Y-129540000D03*
X134620000Y-121920000D03*
X149860000Y-129540000D03*
X132080000Y-121920000D03*
D15*
X180340000Y-129540000D03*
D18*
X195580000Y-121920000D03*
X182880000Y-129540000D03*
X193040000Y-121920000D03*
X185420000Y-129540000D03*
X190500000Y-121920000D03*
X187960000Y-129540000D03*
X187960000Y-121920000D03*
X190500000Y-129540000D03*
X185420000Y-121920000D03*
X193040000Y-129540000D03*
X182880000Y-121920000D03*
X195580000Y-129540000D03*
X180340000Y-121920000D03*
D15*
X106680000Y-134620000D03*
D14*
X104180000Y-134620000D03*
D15*
X139700000Y-58420000D03*
D14*
X137200000Y-58420000D03*
X195580000Y-73660000D03*
X193080000Y-73660000D03*
X137160000Y-76200000D03*
X137160000Y-78700000D03*
X198120000Y-127000000D03*
X198120000Y-129500000D03*
X124460000Y-78740000D03*
X121960000Y-78740000D03*
D16*
X111760000Y-58420000D03*
D17*
X111760000Y-66040000D03*
D19*
X130810000Y-62230000D03*
X133350000Y-62230000D03*
X128270000Y-62230000D03*
D20*
X114300000Y-72390000D03*
X119180000Y-72390000D03*
D21*
X139700000Y-86360000D03*
X166370000Y-99060000D03*
X127000000Y-139065000D03*
X129540000Y-139065000D03*
X132080000Y-139065000D03*
X134620000Y-139065000D03*
X140970000Y-139065000D03*
X125730000Y-133350000D03*
X137160000Y-134620000D03*
X139700000Y-135890000D03*
X142240000Y-137160000D03*
X144780000Y-138430000D03*
X143510000Y-127635000D03*
X146050000Y-127000000D03*
X152400000Y-124460000D03*
X154940000Y-123825000D03*
X165100000Y-115570000D03*
X156210000Y-87630000D03*
X158750000Y-119380000D03*
X158750000Y-100330000D03*
X153670000Y-90170000D03*
X156210000Y-116840000D03*
X153670000Y-116205000D03*
X151130000Y-111760000D03*
X175260000Y-90170000D03*
X175260000Y-79375000D03*
X176530000Y-87630000D03*
X176530000Y-80645000D03*
X177800000Y-81280000D03*
X177800000Y-85090000D03*
X163830000Y-112395000D03*
X119380000Y-125730000D03*
X119380000Y-139065000D03*
X121920000Y-139065000D03*
X124460000Y-139065000D03*
X176530000Y-120650000D03*
D22*
X193080000Y-73660000D02*
X193040000Y-95250000D01*
X193040000Y-95250000D02*
X194310000Y-96520000D01*
X193000000Y-95290000D02*
X193040000Y-95250000D01*
X193040000Y-95250000D02*
X193000000Y-95290000D01*
X180340000Y-109220000D02*
X181610000Y-109220000D01*
X194310000Y-96520000D02*
X195580000Y-96520000D01*
X181610000Y-109220000D02*
X194310000Y-96520000D01*
X104180000Y-134620000D02*
X104180000Y-111720000D01*
X106680000Y-109220000D02*
X109220000Y-109220000D01*
X104180000Y-111720000D02*
X106680000Y-109220000D01*
X162560000Y-83820000D02*
X166370000Y-87630000D01*
X166370000Y-87630000D02*
X166370000Y-99060000D01*
X160020000Y-121920000D02*
X160020000Y-119380000D01*
X162560000Y-116840000D02*
X162560000Y-114300000D01*
X160020000Y-119380000D02*
X162560000Y-116840000D01*
X139700000Y-99060000D02*
X139700000Y-95250000D01*
X139700000Y-86360000D02*
X139700000Y-83820000D01*
X140970000Y-87630000D02*
X139700000Y-86360000D01*
X140970000Y-93980000D02*
X140970000Y-87630000D01*
X139700000Y-95250000D02*
X140970000Y-93980000D01*
X137160000Y-78700000D02*
X139700000Y-80645000D01*
X139700000Y-80645000D02*
X139700000Y-83820000D01*
D23*
X124460000Y-83820000D02*
X119380000Y-78740000D01*
X119380000Y-78740000D02*
X119380000Y-72590000D01*
X119380000Y-72590000D02*
X119180000Y-72390000D01*
X129540000Y-68580000D02*
X129540000Y-66040000D01*
X129540000Y-66040000D02*
X130810000Y-64770000D01*
X130810000Y-64770000D02*
X130810000Y-62230000D01*
X137200000Y-58420000D02*
X137200000Y-58460000D01*
X137200000Y-58460000D02*
X139120000Y-60380000D01*
X139120000Y-60380000D02*
X152400000Y-60380000D01*
X139700000Y-121920000D02*
X137160000Y-124460000D01*
X127000000Y-132080000D02*
X127000000Y-139065000D01*
X134620000Y-124460000D02*
X127000000Y-132080000D01*
X137160000Y-124460000D02*
X134620000Y-124460000D01*
X129540000Y-132080000D02*
X132080000Y-129540000D01*
X129540000Y-139065000D02*
X129540000Y-132080000D01*
X132080000Y-132080000D02*
X134620000Y-129540000D01*
X132080000Y-139065000D02*
X132080000Y-132080000D01*
X134620000Y-132080000D02*
X137160000Y-129540000D01*
X134620000Y-139065000D02*
X134620000Y-132080000D01*
X124460000Y-96520000D02*
X137795000Y-109855000D01*
X140970000Y-118110000D02*
X140970000Y-139065000D01*
X137795000Y-114935000D02*
X140970000Y-118110000D01*
X137795000Y-109855000D02*
X137795000Y-114935000D01*
X125730000Y-133350000D02*
X125730000Y-139065000D01*
X125730000Y-139065000D02*
X127000000Y-140335000D01*
X127000000Y-140335000D02*
X127000000Y-146050000D01*
X137160000Y-146050000D02*
X137160000Y-134620000D01*
X139700000Y-146050000D02*
X139700000Y-135890000D01*
X142240000Y-146050000D02*
X142240000Y-137160000D01*
X144780000Y-138430000D02*
X144780000Y-146050000D01*
X147320000Y-146050000D02*
X147320000Y-139065000D01*
X143510000Y-135255000D02*
X143510000Y-127635000D01*
X147320000Y-139065000D02*
X143510000Y-135255000D01*
X149860000Y-146050000D02*
X149860000Y-139065000D01*
X146050000Y-135255000D02*
X146050000Y-127000000D01*
X149860000Y-139065000D02*
X146050000Y-135255000D01*
X152400000Y-146050000D02*
X152400000Y-124460000D01*
X154940000Y-123825000D02*
X154940000Y-146050000D01*
X165100000Y-115570000D02*
X165100000Y-121920000D01*
X119380000Y-58420000D02*
X119380000Y-60960000D01*
X126365000Y-67945000D02*
X126365000Y-89535000D01*
X126365000Y-89535000D02*
X124460000Y-91440000D01*
X124460000Y-66040000D02*
X126365000Y-67945000D01*
X119380000Y-60960000D02*
X124460000Y-66040000D01*
X170180000Y-121920000D02*
X168275000Y-123825000D01*
X123190000Y-95250000D02*
X109220000Y-81280000D01*
X125730000Y-95250000D02*
X123190000Y-95250000D01*
X140970000Y-110490000D02*
X125730000Y-95250000D01*
X140970000Y-115570000D02*
X140970000Y-110490000D01*
X142875000Y-117475000D02*
X140970000Y-115570000D01*
X151130000Y-117475000D02*
X142875000Y-117475000D01*
X157480000Y-123825000D02*
X151130000Y-117475000D01*
X168275000Y-123825000D02*
X157480000Y-123825000D01*
X160020000Y-99060000D02*
X160020000Y-101600000D01*
X160020000Y-110490000D02*
X160020000Y-114300000D01*
X161290000Y-109220000D02*
X160020000Y-110490000D01*
X161290000Y-102870000D02*
X161290000Y-109220000D01*
X160020000Y-101600000D02*
X161290000Y-102870000D01*
X160020000Y-83820000D02*
X160020000Y-86360000D01*
X160020000Y-95250000D02*
X160020000Y-99060000D01*
X161290000Y-93980000D02*
X160020000Y-95250000D01*
X161290000Y-87630000D02*
X161290000Y-93980000D01*
X160020000Y-86360000D02*
X161290000Y-87630000D01*
X157480000Y-99060000D02*
X157480000Y-101600000D01*
X157480000Y-110490000D02*
X157480000Y-114300000D01*
X158750000Y-109220000D02*
X157480000Y-110490000D01*
X158750000Y-102870000D02*
X158750000Y-109220000D01*
X157480000Y-101600000D02*
X158750000Y-102870000D01*
X157480000Y-83820000D02*
X157480000Y-86360000D01*
X157480000Y-95250000D02*
X157480000Y-99060000D01*
X158750000Y-93980000D02*
X157480000Y-95250000D01*
X158750000Y-87630000D02*
X158750000Y-93980000D01*
X157480000Y-86360000D02*
X158750000Y-87630000D01*
X154940000Y-99060000D02*
X154940000Y-101600000D01*
X154940000Y-110490000D02*
X154940000Y-114300000D01*
X156210000Y-109220000D02*
X154940000Y-110490000D01*
X156210000Y-102870000D02*
X156210000Y-109220000D01*
X154940000Y-101600000D02*
X156210000Y-102870000D01*
X154940000Y-83820000D02*
X154940000Y-86360000D01*
X154940000Y-95250000D02*
X154940000Y-99060000D01*
X156210000Y-93980000D02*
X154940000Y-95250000D01*
X156210000Y-87630000D02*
X156210000Y-93980000D01*
X154940000Y-86360000D02*
X156210000Y-87630000D01*
X160020000Y-106680000D02*
X160020000Y-109220000D01*
X158750000Y-110490000D02*
X158750000Y-119380000D01*
X160020000Y-109220000D02*
X158750000Y-110490000D01*
X160020000Y-106680000D02*
X160020000Y-102870000D01*
X158750000Y-101600000D02*
X158750000Y-100330000D01*
X160020000Y-102870000D02*
X158750000Y-101600000D01*
X152400000Y-99060000D02*
X152400000Y-101600000D01*
X152400000Y-110490000D02*
X152400000Y-114300000D01*
X153670000Y-109220000D02*
X152400000Y-110490000D01*
X153670000Y-102870000D02*
X153670000Y-109220000D01*
X152400000Y-101600000D02*
X153670000Y-102870000D01*
X152400000Y-83820000D02*
X152400000Y-86360000D01*
X152400000Y-95250000D02*
X152400000Y-99060000D01*
X153670000Y-93980000D02*
X152400000Y-95250000D01*
X153670000Y-87630000D02*
X153670000Y-90170000D01*
X153670000Y-90170000D02*
X153670000Y-93980000D01*
X152400000Y-86360000D02*
X153670000Y-87630000D01*
X157480000Y-106680000D02*
X157480000Y-109220000D01*
X156210000Y-110490000D02*
X156210000Y-116840000D01*
X157480000Y-109220000D02*
X156210000Y-110490000D01*
X149860000Y-99060000D02*
X149860000Y-101600000D01*
X149860000Y-110490000D02*
X149860000Y-114300000D01*
X151130000Y-109220000D02*
X149860000Y-110490000D01*
X151130000Y-102870000D02*
X151130000Y-109220000D01*
X149860000Y-101600000D02*
X151130000Y-102870000D01*
X149860000Y-83820000D02*
X149860000Y-86360000D01*
X149860000Y-95250000D02*
X149860000Y-97790000D01*
X149860000Y-97790000D02*
X149860000Y-99060000D01*
X151130000Y-93980000D02*
X149860000Y-95250000D01*
X151130000Y-87630000D02*
X151130000Y-93980000D01*
X149860000Y-86360000D02*
X151130000Y-87630000D01*
X154940000Y-106680000D02*
X154940000Y-109220000D01*
X153670000Y-110490000D02*
X153670000Y-116205000D01*
X154940000Y-109220000D02*
X153670000Y-110490000D01*
X147320000Y-99060000D02*
X147320000Y-101600000D01*
X147320000Y-110490000D02*
X147320000Y-114300000D01*
X148590000Y-109220000D02*
X147320000Y-110490000D01*
X148590000Y-102870000D02*
X148590000Y-109220000D01*
X147320000Y-101600000D02*
X148590000Y-102870000D01*
X147320000Y-83820000D02*
X147320000Y-86360000D01*
X147320000Y-95250000D02*
X147320000Y-96520000D01*
X147320000Y-96520000D02*
X147320000Y-99060000D01*
X148590000Y-93980000D02*
X147320000Y-95250000D01*
X148590000Y-87630000D02*
X148590000Y-93980000D01*
X147320000Y-86360000D02*
X148590000Y-87630000D01*
X152400000Y-106680000D02*
X152400000Y-109220000D01*
X151130000Y-110490000D02*
X151130000Y-111760000D01*
X152400000Y-109220000D02*
X151130000Y-110490000D01*
X144780000Y-99060000D02*
X144780000Y-101600000D01*
X144780000Y-110490000D02*
X144780000Y-114300000D01*
X146050000Y-109220000D02*
X144780000Y-110490000D01*
X146050000Y-102870000D02*
X146050000Y-109220000D01*
X144780000Y-101600000D02*
X146050000Y-102870000D01*
X144780000Y-83820000D02*
X144780000Y-86360000D01*
X144780000Y-95250000D02*
X144780000Y-97790000D01*
X144780000Y-97790000D02*
X144780000Y-99060000D01*
X146050000Y-93980000D02*
X144780000Y-95250000D01*
X146050000Y-87630000D02*
X146050000Y-93980000D01*
X144780000Y-86360000D02*
X146050000Y-87630000D01*
X142240000Y-99060000D02*
X142240000Y-101600000D01*
X142240000Y-110490000D02*
X142240000Y-114300000D01*
X143510000Y-109220000D02*
X142240000Y-110490000D01*
X143510000Y-102870000D02*
X143510000Y-109220000D01*
X142240000Y-101600000D02*
X143510000Y-102870000D01*
X142240000Y-83820000D02*
X142240000Y-86360000D01*
X142240000Y-95250000D02*
X142240000Y-99060000D01*
X143510000Y-93980000D02*
X142240000Y-95250000D01*
X143510000Y-87630000D02*
X143510000Y-93980000D01*
X142240000Y-86360000D02*
X143510000Y-87630000D01*
X175260000Y-90170000D02*
X175260000Y-79375000D01*
X176530000Y-87630000D02*
X176530000Y-80645000D01*
X177800000Y-81280000D02*
X177800000Y-85090000D01*
X162560000Y-91440000D02*
X163830000Y-92710000D01*
X172720000Y-119380000D02*
X172720000Y-121920000D01*
X163830000Y-110490000D02*
X172720000Y-119380000D01*
X163830000Y-92710000D02*
X163830000Y-110490000D01*
X161290000Y-77470000D02*
X162560000Y-76200000D01*
X161290000Y-86360000D02*
X161290000Y-77470000D01*
X163830000Y-88900000D02*
X161290000Y-86360000D01*
X163830000Y-88900000D02*
X163830000Y-88900000D01*
X163830000Y-88900000D02*
X165100000Y-90170000D01*
X165100000Y-90170000D02*
X165100000Y-110490000D01*
X165100000Y-110490000D02*
X173990000Y-119380000D01*
X173990000Y-119380000D02*
X173990000Y-125730000D01*
X170180000Y-129540000D02*
X173990000Y-125730000D01*
X162560000Y-106680000D02*
X162560000Y-111125000D01*
X162560000Y-111125000D02*
X163830000Y-112395000D01*
X163830000Y-112395000D02*
X167640000Y-116205000D01*
X167640000Y-116205000D02*
X167640000Y-121920000D01*
X119380000Y-139065000D02*
X119380000Y-125730000D01*
X121920000Y-134620000D02*
X134620000Y-121920000D01*
X121920000Y-135255000D02*
X121920000Y-134620000D01*
X121920000Y-135890000D02*
X121920000Y-135255000D01*
X121920000Y-139065000D02*
X121920000Y-135890000D01*
X137160000Y-121920000D02*
X135255000Y-123825000D01*
X124460000Y-139065000D02*
X124460000Y-134620000D01*
X124460000Y-133350000D02*
X124460000Y-134620000D01*
X133985000Y-123825000D02*
X124460000Y-133350000D01*
X135255000Y-123825000D02*
X133985000Y-123825000D01*
X162560000Y-146050000D02*
X162560000Y-139065000D01*
X189230000Y-130810000D02*
X190500000Y-129540000D01*
X182245000Y-130810000D02*
X189230000Y-130810000D01*
X181610000Y-130175000D02*
X182245000Y-130810000D01*
X181610000Y-128270000D02*
X181610000Y-130175000D01*
X180975000Y-127635000D02*
X181610000Y-128270000D01*
X179705000Y-127635000D02*
X180975000Y-127635000D01*
X179070000Y-128270000D02*
X179705000Y-127635000D01*
X176530000Y-130810000D02*
X179070000Y-128270000D01*
X170815000Y-130810000D02*
X176530000Y-130810000D01*
X162560000Y-139065000D02*
X170815000Y-130810000D01*
X165100000Y-146050000D02*
X165100000Y-139065000D01*
X178435000Y-131445000D02*
X180340000Y-129540000D01*
X172720000Y-131445000D02*
X178435000Y-131445000D01*
X165100000Y-139065000D02*
X172720000Y-131445000D01*
X185420000Y-129540000D02*
X176530000Y-120650000D01*
D24*
G36*
X146610000Y-53975000D02*
X146664046Y-54246705D01*
X146817954Y-54477046D01*
X147048295Y-54630954D01*
X147320000Y-54685000D01*
X150658282Y-54685000D01*
X150600094Y-54723880D01*
X150245671Y-55254313D01*
X150121214Y-55880000D01*
X150245671Y-56505687D01*
X150600094Y-57036120D01*
X151130527Y-57390543D01*
X151756214Y-57515000D01*
X153043786Y-57515000D01*
X153669473Y-57390543D01*
X154199906Y-57036120D01*
X154554329Y-56505687D01*
X154678786Y-55880000D01*
X154554329Y-55254313D01*
X154199906Y-54723880D01*
X154141718Y-54685000D01*
X157480000Y-54685000D01*
X157751705Y-54630954D01*
X157982046Y-54477046D01*
X158135954Y-54246705D01*
X158190000Y-53975000D01*
X158190000Y-52780000D01*
X199955070Y-52780000D01*
X200233979Y-52835478D01*
X200411145Y-52953856D01*
X200529521Y-53131019D01*
X200585000Y-53409931D01*
X200585000Y-140265069D01*
X200529521Y-140543981D01*
X200411145Y-140721144D01*
X200233979Y-140839522D01*
X199955070Y-140895000D01*
X197485000Y-140895000D01*
X197213295Y-140949046D01*
X196989440Y-141098620D01*
X196989440Y-140050000D01*
X196945162Y-139814683D01*
X196806090Y-139598559D01*
X196593890Y-139453569D01*
X196342000Y-139402560D01*
X194818000Y-139402560D01*
X194582683Y-139446838D01*
X194366559Y-139585910D01*
X194310626Y-139667770D01*
X194266090Y-139598559D01*
X194053890Y-139453569D01*
X193802000Y-139402560D01*
X192278000Y-139402560D01*
X192042683Y-139446838D01*
X191826559Y-139585910D01*
X191770626Y-139667770D01*
X191726090Y-139598559D01*
X191513890Y-139453569D01*
X191262000Y-139402560D01*
X189738000Y-139402560D01*
X189502683Y-139446838D01*
X189286559Y-139585910D01*
X189230626Y-139667770D01*
X189186090Y-139598559D01*
X188973890Y-139453569D01*
X188722000Y-139402560D01*
X187198000Y-139402560D01*
X186962683Y-139446838D01*
X186746559Y-139585910D01*
X186690626Y-139667770D01*
X186646090Y-139598559D01*
X186433890Y-139453569D01*
X186182000Y-139402560D01*
X184658000Y-139402560D01*
X184422683Y-139446838D01*
X184206559Y-139585910D01*
X184150626Y-139667770D01*
X184106090Y-139598559D01*
X183893890Y-139453569D01*
X183642000Y-139402560D01*
X182118000Y-139402560D01*
X181882683Y-139446838D01*
X181666559Y-139585910D01*
X181610626Y-139667770D01*
X181566090Y-139598559D01*
X181353890Y-139453569D01*
X181102000Y-139402560D01*
X179578000Y-139402560D01*
X179342683Y-139446838D01*
X179126559Y-139585910D01*
X179070626Y-139667770D01*
X179026090Y-139598559D01*
X178813890Y-139453569D01*
X178562000Y-139402560D01*
X177038000Y-139402560D01*
X176802683Y-139446838D01*
X176586559Y-139585910D01*
X176530626Y-139667770D01*
X176486090Y-139598559D01*
X176273890Y-139453569D01*
X176022000Y-139402560D01*
X174498000Y-139402560D01*
X174262683Y-139446838D01*
X174046559Y-139585910D01*
X173990626Y-139667770D01*
X173946090Y-139598559D01*
X173733890Y-139453569D01*
X173482000Y-139402560D01*
X171958000Y-139402560D01*
X171722683Y-139446838D01*
X171506559Y-139585910D01*
X171450626Y-139667770D01*
X171406090Y-139598559D01*
X171193890Y-139453569D01*
X170942000Y-139402560D01*
X169418000Y-139402560D01*
X169182683Y-139446838D01*
X168966559Y-139585910D01*
X168910626Y-139667770D01*
X168866090Y-139598559D01*
X168653890Y-139453569D01*
X168402000Y-139402560D01*
X166878000Y-139402560D01*
X166642683Y-139446838D01*
X166426559Y-139585910D01*
X166370626Y-139667770D01*
X166326090Y-139598559D01*
X166113890Y-139453569D01*
X165862000Y-139402560D01*
X165860000Y-139402560D01*
X165860000Y-139379802D01*
X173034802Y-132205000D01*
X178435000Y-132205000D01*
X178725839Y-132147148D01*
X178972401Y-131982401D01*
X179967362Y-130987440D01*
X181140000Y-130987440D01*
X181314755Y-130954557D01*
X181707599Y-131347401D01*
X181954161Y-131512148D01*
X182245000Y-131570000D01*
X189230000Y-131570000D01*
X189520839Y-131512148D01*
X189767401Y-131347401D01*
X190176114Y-130938688D01*
X190500000Y-131003113D01*
X191049151Y-130893880D01*
X191514698Y-130582811D01*
X191770000Y-130200725D01*
X192025302Y-130582811D01*
X192490849Y-130893880D01*
X193040000Y-131003113D01*
X193589151Y-130893880D01*
X194054698Y-130582811D01*
X194310000Y-130200725D01*
X194565302Y-130582811D01*
X195030849Y-130893880D01*
X195580000Y-131003113D01*
X196129151Y-130893880D01*
X196594698Y-130582811D01*
X196854240Y-130194380D01*
X196902757Y-130311800D01*
X197306077Y-130715824D01*
X197833309Y-130934750D01*
X198404187Y-130935248D01*
X198931800Y-130717243D01*
X199335824Y-130313923D01*
X199554750Y-129786691D01*
X199555248Y-129215813D01*
X199337243Y-128688200D01*
X198933923Y-128284176D01*
X198867456Y-128256577D01*
X198874005Y-128253864D01*
X198948139Y-128007745D01*
X198120000Y-127179605D01*
X197291861Y-128007745D01*
X197365995Y-128253864D01*
X197372483Y-128256196D01*
X197308200Y-128282757D01*
X196904176Y-128686077D01*
X196833936Y-128855234D01*
X196594698Y-128497189D01*
X196129151Y-128186120D01*
X195580000Y-128076887D01*
X195030849Y-128186120D01*
X194565302Y-128497189D01*
X194310000Y-128879275D01*
X194054698Y-128497189D01*
X193589151Y-128186120D01*
X193040000Y-128076887D01*
X192490849Y-128186120D01*
X192025302Y-128497189D01*
X191770000Y-128879275D01*
X191514698Y-128497189D01*
X191049151Y-128186120D01*
X190500000Y-128076887D01*
X189950849Y-128186120D01*
X189485302Y-128497189D01*
X189230000Y-128879275D01*
X188974698Y-128497189D01*
X188509151Y-128186120D01*
X187960000Y-128076887D01*
X187410849Y-128186120D01*
X186945302Y-128497189D01*
X186690000Y-128879275D01*
X186434698Y-128497189D01*
X185969151Y-128186120D01*
X185420000Y-128076887D01*
X185096114Y-128141312D01*
X183738025Y-126783223D01*
X196673035Y-126783223D01*
X196700222Y-127353454D01*
X196866136Y-127754005D01*
X197112255Y-127828139D01*
X197940395Y-127000000D01*
X198299605Y-127000000D01*
X199127745Y-127828139D01*
X199373864Y-127754005D01*
X199566965Y-127216777D01*
X199539778Y-126646546D01*
X199373864Y-126245995D01*
X199127745Y-126171861D01*
X198299605Y-127000000D01*
X197940395Y-127000000D01*
X197112255Y-126171861D01*
X196866136Y-126245995D01*
X196673035Y-126783223D01*
X183738025Y-126783223D01*
X182947057Y-125992255D01*
X197291861Y-125992255D01*
X198120000Y-126820395D01*
X198948139Y-125992255D01*
X198874005Y-125746136D01*
X198336777Y-125553035D01*
X197766546Y-125580222D01*
X197365995Y-125746136D01*
X197291861Y-125992255D01*
X182947057Y-125992255D01*
X180168929Y-123214127D01*
X180213000Y-123189915D01*
X180213000Y-122047000D01*
X179069371Y-122047000D01*
X179045501Y-122090699D01*
X178525761Y-121570959D01*
X178948086Y-121570959D01*
X179069371Y-121793000D01*
X180213000Y-121793000D01*
X180213000Y-120650085D01*
X180467000Y-120650085D01*
X180467000Y-121793000D01*
X180487000Y-121793000D01*
X180487000Y-122047000D01*
X180467000Y-122047000D01*
X180467000Y-123189915D01*
X180689039Y-123311904D01*
X181077423Y-123151041D01*
X181492389Y-122775134D01*
X181595014Y-122558297D01*
X181865302Y-122962811D01*
X182330849Y-123273880D01*
X182880000Y-123383113D01*
X183429151Y-123273880D01*
X183894698Y-122962811D01*
X184150000Y-122580725D01*
X184405302Y-122962811D01*
X184870849Y-123273880D01*
X185420000Y-123383113D01*
X185969151Y-123273880D01*
X186434698Y-122962811D01*
X186690000Y-122580725D01*
X186945302Y-122962811D01*
X187410849Y-123273880D01*
X187960000Y-123383113D01*
X188509151Y-123273880D01*
X188974698Y-122962811D01*
X189230000Y-122580725D01*
X189485302Y-122962811D01*
X189950849Y-123273880D01*
X190500000Y-123383113D01*
X191049151Y-123273880D01*
X191514698Y-122962811D01*
X191770000Y-122580725D01*
X192025302Y-122962811D01*
X192490849Y-123273880D01*
X193040000Y-123383113D01*
X193589151Y-123273880D01*
X194054698Y-122962811D01*
X194310000Y-122580725D01*
X194565302Y-122962811D01*
X195030849Y-123273880D01*
X195580000Y-123383113D01*
X196129151Y-123273880D01*
X196594698Y-122962811D01*
X196905767Y-122497264D01*
X197015000Y-121948113D01*
X197015000Y-121891887D01*
X196905767Y-121342736D01*
X196594698Y-120877189D01*
X196129151Y-120566120D01*
X195580000Y-120456887D01*
X195030849Y-120566120D01*
X194565302Y-120877189D01*
X194310000Y-121259275D01*
X194054698Y-120877189D01*
X193589151Y-120566120D01*
X193040000Y-120456887D01*
X192490849Y-120566120D01*
X192025302Y-120877189D01*
X191770000Y-121259275D01*
X191514698Y-120877189D01*
X191049151Y-120566120D01*
X190500000Y-120456887D01*
X189950849Y-120566120D01*
X189485302Y-120877189D01*
X189230000Y-121259275D01*
X188974698Y-120877189D01*
X188509151Y-120566120D01*
X187960000Y-120456887D01*
X187410849Y-120566120D01*
X186945302Y-120877189D01*
X186690000Y-121259275D01*
X186434698Y-120877189D01*
X185969151Y-120566120D01*
X185420000Y-120456887D01*
X184870849Y-120566120D01*
X184405302Y-120877189D01*
X184150000Y-121259275D01*
X183894698Y-120877189D01*
X183429151Y-120566120D01*
X182880000Y-120456887D01*
X182330849Y-120566120D01*
X181865302Y-120877189D01*
X181595014Y-121281703D01*
X181492389Y-121064866D01*
X181077423Y-120688959D01*
X180689039Y-120528096D01*
X180467000Y-120650085D01*
X180213000Y-120650085D01*
X179990961Y-120528096D01*
X179602577Y-120688959D01*
X179187611Y-121064866D01*
X178948086Y-121570959D01*
X178525761Y-121570959D01*
X177465122Y-120510320D01*
X177465162Y-120464833D01*
X177323117Y-120121057D01*
X177060327Y-119857808D01*
X176716799Y-119715162D01*
X176344833Y-119714838D01*
X176001057Y-119856883D01*
X175737808Y-120119673D01*
X175595162Y-120463201D01*
X175594838Y-120835167D01*
X175736883Y-121178943D01*
X175999673Y-121442192D01*
X176343201Y-121584838D01*
X176390077Y-121584879D01*
X182882603Y-128077405D01*
X182880000Y-128076887D01*
X182352460Y-128181821D01*
X182312148Y-127979161D01*
X182147401Y-127732599D01*
X181512401Y-127097599D01*
X181265839Y-126932852D01*
X180975000Y-126875000D01*
X179705000Y-126875000D01*
X179414161Y-126932852D01*
X179167599Y-127097599D01*
X176215198Y-130050000D01*
X174059147Y-130050000D01*
X174155000Y-129568113D01*
X174155000Y-129511887D01*
X174045767Y-128962736D01*
X173734698Y-128497189D01*
X173269151Y-128186120D01*
X172720000Y-128076887D01*
X172717397Y-128077405D01*
X174527401Y-126267401D01*
X174692148Y-126020839D01*
X174750000Y-125730000D01*
X174750000Y-119380000D01*
X174692148Y-119089161D01*
X174527401Y-118842599D01*
X165860000Y-110175198D01*
X165860000Y-99860633D01*
X166183201Y-99994838D01*
X166555167Y-99995162D01*
X166898943Y-99853117D01*
X167162192Y-99590327D01*
X167304838Y-99246799D01*
X167305162Y-98874833D01*
X167255000Y-98753431D01*
X167255000Y-87630005D01*
X167255001Y-87630000D01*
X167187633Y-87291326D01*
X167187633Y-87291325D01*
X166995790Y-87004210D01*
X166995787Y-87004208D01*
X163969233Y-83977653D01*
X163995000Y-83848113D01*
X163995000Y-83791887D01*
X163885767Y-83242736D01*
X163574698Y-82777189D01*
X163109151Y-82466120D01*
X162560000Y-82356887D01*
X162050000Y-82458332D01*
X162050000Y-79560167D01*
X174324838Y-79560167D01*
X174466883Y-79903943D01*
X174500000Y-79937118D01*
X174500000Y-89607537D01*
X174467808Y-89639673D01*
X174325162Y-89983201D01*
X174324838Y-90355167D01*
X174466883Y-90698943D01*
X174729673Y-90962192D01*
X175073201Y-91104838D01*
X175445167Y-91105162D01*
X175788943Y-90963117D01*
X176052192Y-90700327D01*
X176194838Y-90356799D01*
X176195162Y-89984833D01*
X176053117Y-89641057D01*
X176020000Y-89607882D01*
X176020000Y-88430633D01*
X176343201Y-88564838D01*
X176715167Y-88565162D01*
X177058943Y-88423117D01*
X177322192Y-88160327D01*
X177464838Y-87816799D01*
X177465162Y-87444833D01*
X177323117Y-87101057D01*
X177290000Y-87067882D01*
X177290000Y-85890633D01*
X177613201Y-86024838D01*
X177985167Y-86025162D01*
X178328943Y-85883117D01*
X178592192Y-85620327D01*
X178734838Y-85276799D01*
X178735162Y-84904833D01*
X178593117Y-84561057D01*
X178560000Y-84527882D01*
X178560000Y-81842463D01*
X178592192Y-81810327D01*
X178734838Y-81466799D01*
X178735162Y-81094833D01*
X178593117Y-80751057D01*
X178330327Y-80487808D01*
X177986799Y-80345162D01*
X177614833Y-80344838D01*
X177446403Y-80414432D01*
X177323117Y-80116057D01*
X177060327Y-79852808D01*
X176716799Y-79710162D01*
X176344833Y-79709838D01*
X176089570Y-79815310D01*
X176194838Y-79561799D01*
X176195162Y-79189833D01*
X176053117Y-78846057D01*
X175947245Y-78740000D01*
X178876887Y-78740000D01*
X178986120Y-79289151D01*
X179297189Y-79754698D01*
X179679275Y-80010000D01*
X179297189Y-80265302D01*
X178986120Y-80730849D01*
X178876887Y-81280000D01*
X178986120Y-81829151D01*
X179297189Y-82294698D01*
X179679275Y-82550000D01*
X179297189Y-82805302D01*
X178986120Y-83270849D01*
X178876887Y-83820000D01*
X178986120Y-84369151D01*
X179297189Y-84834698D01*
X179679275Y-85090000D01*
X179297189Y-85345302D01*
X178986120Y-85810849D01*
X178876887Y-86360000D01*
X178986120Y-86909151D01*
X179297189Y-87374698D01*
X179679275Y-87630000D01*
X179297189Y-87885302D01*
X178986120Y-88350849D01*
X178876887Y-88900000D01*
X178986120Y-89449151D01*
X179297189Y-89914698D01*
X179679275Y-90170000D01*
X179297189Y-90425302D01*
X178986120Y-90890849D01*
X178876887Y-91440000D01*
X178986120Y-91989151D01*
X179297189Y-92454698D01*
X179679275Y-92710000D01*
X179297189Y-92965302D01*
X178986120Y-93430849D01*
X178876887Y-93980000D01*
X178986120Y-94529151D01*
X179297189Y-94994698D01*
X179679275Y-95250000D01*
X179297189Y-95505302D01*
X178986120Y-95970849D01*
X178876887Y-96520000D01*
X178986120Y-97069151D01*
X179297189Y-97534698D01*
X179679275Y-97790000D01*
X179297189Y-98045302D01*
X178986120Y-98510849D01*
X178876887Y-99060000D01*
X178986120Y-99609151D01*
X179297189Y-100074698D01*
X179679275Y-100330000D01*
X179297189Y-100585302D01*
X178986120Y-101050849D01*
X178876887Y-101600000D01*
X178986120Y-102149151D01*
X179297189Y-102614698D01*
X179679275Y-102870000D01*
X179297189Y-103125302D01*
X178986120Y-103590849D01*
X178876887Y-104140000D01*
X178986120Y-104689151D01*
X179297189Y-105154698D01*
X179679275Y-105410000D01*
X179297189Y-105665302D01*
X178986120Y-106130849D01*
X178876887Y-106680000D01*
X178986120Y-107229151D01*
X179297189Y-107694698D01*
X179679275Y-107950000D01*
X179297189Y-108205302D01*
X178986120Y-108670849D01*
X178876887Y-109220000D01*
X178986120Y-109769151D01*
X179297189Y-110234698D01*
X179762736Y-110545767D01*
X180311887Y-110655000D01*
X180368113Y-110655000D01*
X180917264Y-110545767D01*
X181382811Y-110234698D01*
X181469473Y-110105000D01*
X181609995Y-110105000D01*
X181610000Y-110105001D01*
X181892484Y-110048810D01*
X181948675Y-110037633D01*
X182235790Y-109845790D01*
X182235791Y-109845789D01*
X194542999Y-97538580D01*
X194919275Y-97790000D01*
X194537189Y-98045302D01*
X194226120Y-98510849D01*
X194116887Y-99060000D01*
X194226120Y-99609151D01*
X194537189Y-100074698D01*
X194919275Y-100330000D01*
X194537189Y-100585302D01*
X194226120Y-101050849D01*
X194116887Y-101600000D01*
X194226120Y-102149151D01*
X194537189Y-102614698D01*
X194919275Y-102870000D01*
X194537189Y-103125302D01*
X194226120Y-103590849D01*
X194116887Y-104140000D01*
X194226120Y-104689151D01*
X194537189Y-105154698D01*
X194919275Y-105410000D01*
X194537189Y-105665302D01*
X194226120Y-106130849D01*
X194116887Y-106680000D01*
X194226120Y-107229151D01*
X194537189Y-107694698D01*
X194919275Y-107950000D01*
X194537189Y-108205302D01*
X194226120Y-108670849D01*
X194116887Y-109220000D01*
X194226120Y-109769151D01*
X194537189Y-110234698D01*
X195002736Y-110545767D01*
X195551887Y-110655000D01*
X195608113Y-110655000D01*
X196157264Y-110545767D01*
X196622811Y-110234698D01*
X196933880Y-109769151D01*
X197043113Y-109220000D01*
X196933880Y-108670849D01*
X196622811Y-108205302D01*
X196240725Y-107950000D01*
X196622811Y-107694698D01*
X196933880Y-107229151D01*
X197043113Y-106680000D01*
X196933880Y-106130849D01*
X196622811Y-105665302D01*
X196240725Y-105410000D01*
X196622811Y-105154698D01*
X196933880Y-104689151D01*
X197043113Y-104140000D01*
X196933880Y-103590849D01*
X196622811Y-103125302D01*
X196240725Y-102870000D01*
X196622811Y-102614698D01*
X196933880Y-102149151D01*
X197043113Y-101600000D01*
X196933880Y-101050849D01*
X196622811Y-100585302D01*
X196240725Y-100330000D01*
X196622811Y-100074698D01*
X196933880Y-99609151D01*
X197043113Y-99060000D01*
X196933880Y-98510849D01*
X196622811Y-98045302D01*
X196240725Y-97790000D01*
X196622811Y-97534698D01*
X196933880Y-97069151D01*
X197043113Y-96520000D01*
X196933880Y-95970849D01*
X196622811Y-95505302D01*
X196240725Y-95250000D01*
X196622811Y-94994698D01*
X196933880Y-94529151D01*
X197043113Y-93980000D01*
X196933880Y-93430849D01*
X196622811Y-92965302D01*
X196240725Y-92710000D01*
X196622811Y-92454698D01*
X196933880Y-91989151D01*
X197043113Y-91440000D01*
X196933880Y-90890849D01*
X196622811Y-90425302D01*
X196240725Y-90170000D01*
X196622811Y-89914698D01*
X196933880Y-89449151D01*
X197043113Y-88900000D01*
X196933880Y-88350849D01*
X196622811Y-87885302D01*
X196240725Y-87630000D01*
X196622811Y-87374698D01*
X196933880Y-86909151D01*
X197043113Y-86360000D01*
X196933880Y-85810849D01*
X196622811Y-85345302D01*
X196240725Y-85090000D01*
X196622811Y-84834698D01*
X196933880Y-84369151D01*
X197043113Y-83820000D01*
X196933880Y-83270849D01*
X196622811Y-82805302D01*
X196240725Y-82550000D01*
X196622811Y-82294698D01*
X196933880Y-81829151D01*
X197043113Y-81280000D01*
X196933880Y-80730849D01*
X196622811Y-80265302D01*
X196240725Y-80010000D01*
X196622811Y-79754698D01*
X196933880Y-79289151D01*
X197043113Y-78740000D01*
X196933880Y-78190849D01*
X196622811Y-77725302D01*
X196218297Y-77455014D01*
X196435134Y-77352389D01*
X196811041Y-76937423D01*
X196971904Y-76549039D01*
X196849915Y-76327000D01*
X195707000Y-76327000D01*
X195707000Y-76347000D01*
X195453000Y-76347000D01*
X195453000Y-76327000D01*
X194310085Y-76327000D01*
X194188096Y-76549039D01*
X194348959Y-76937423D01*
X194724866Y-77352389D01*
X194941703Y-77455014D01*
X194537189Y-77725302D01*
X194226120Y-78190849D01*
X194116887Y-78740000D01*
X194226120Y-79289151D01*
X194537189Y-79754698D01*
X194919275Y-80010000D01*
X194537189Y-80265302D01*
X194226120Y-80730849D01*
X194116887Y-81280000D01*
X194226120Y-81829151D01*
X194537189Y-82294698D01*
X194919275Y-82550000D01*
X194537189Y-82805302D01*
X194226120Y-83270849D01*
X194116887Y-83820000D01*
X194226120Y-84369151D01*
X194537189Y-84834698D01*
X194919275Y-85090000D01*
X194537189Y-85345302D01*
X194226120Y-85810849D01*
X194116887Y-86360000D01*
X194226120Y-86909151D01*
X194537189Y-87374698D01*
X194919275Y-87630000D01*
X194537189Y-87885302D01*
X194226120Y-88350849D01*
X194116887Y-88900000D01*
X194226120Y-89449151D01*
X194537189Y-89914698D01*
X194919275Y-90170000D01*
X194537189Y-90425302D01*
X194226120Y-90890849D01*
X194116887Y-91440000D01*
X194226120Y-91989151D01*
X194537189Y-92454698D01*
X194919275Y-92710000D01*
X194537189Y-92965302D01*
X194226120Y-93430849D01*
X194116887Y-93980000D01*
X194226120Y-94529151D01*
X194537189Y-94994698D01*
X194919275Y-95250000D01*
X194542999Y-95501420D01*
X193925679Y-94884099D01*
X193960941Y-75850961D01*
X194188096Y-75850961D01*
X194310085Y-76073000D01*
X195453000Y-76073000D01*
X195453000Y-76053000D01*
X195707000Y-76053000D01*
X195707000Y-76073000D01*
X196849915Y-76073000D01*
X196971904Y-75850961D01*
X196811041Y-75462577D01*
X196435134Y-75047611D01*
X196237234Y-74953948D01*
X196334005Y-74913864D01*
X196408139Y-74667745D01*
X195580000Y-73839605D01*
X194751861Y-74667745D01*
X194825995Y-74913864D01*
X194929132Y-74950935D01*
X194724866Y-75047611D01*
X194348959Y-75462577D01*
X194188096Y-75850961D01*
X193960941Y-75850961D01*
X193962877Y-74806290D01*
X194295824Y-74473923D01*
X194323423Y-74407456D01*
X194326136Y-74414005D01*
X194572255Y-74488139D01*
X195400395Y-73660000D01*
X195759605Y-73660000D01*
X196587745Y-74488139D01*
X196833864Y-74414005D01*
X197026965Y-73876777D01*
X196999778Y-73306546D01*
X196833864Y-72905995D01*
X196587745Y-72831861D01*
X195759605Y-73660000D01*
X195400395Y-73660000D01*
X194572255Y-72831861D01*
X194326136Y-72905995D01*
X194323804Y-72912483D01*
X194297243Y-72848200D01*
X194101640Y-72652255D01*
X194751861Y-72652255D01*
X195580000Y-73480395D01*
X196408139Y-72652255D01*
X196334005Y-72406136D01*
X195796777Y-72213035D01*
X195226546Y-72240222D01*
X194825995Y-72406136D01*
X194751861Y-72652255D01*
X194101640Y-72652255D01*
X193893923Y-72444176D01*
X193366691Y-72225250D01*
X192795813Y-72224752D01*
X192268200Y-72442757D01*
X191864176Y-72846077D01*
X191645250Y-73373309D01*
X191644752Y-73944187D01*
X191862757Y-74471800D01*
X192192882Y-74802501D01*
X192155300Y-95087397D01*
X192114999Y-95290000D01*
X192182367Y-95628674D01*
X192374210Y-95915790D01*
X192615300Y-96076879D01*
X193058421Y-96520000D01*
X181377000Y-108201420D01*
X181000725Y-107950000D01*
X181382811Y-107694698D01*
X181693880Y-107229151D01*
X181803113Y-106680000D01*
X181693880Y-106130849D01*
X181382811Y-105665302D01*
X181000725Y-105410000D01*
X181382811Y-105154698D01*
X181693880Y-104689151D01*
X181803113Y-104140000D01*
X181693880Y-103590849D01*
X181382811Y-103125302D01*
X181000725Y-102870000D01*
X181382811Y-102614698D01*
X181693880Y-102149151D01*
X181803113Y-101600000D01*
X181693880Y-101050849D01*
X181382811Y-100585302D01*
X181000725Y-100330000D01*
X181382811Y-100074698D01*
X181693880Y-99609151D01*
X181803113Y-99060000D01*
X181693880Y-98510849D01*
X181382811Y-98045302D01*
X181000725Y-97790000D01*
X181382811Y-97534698D01*
X181693880Y-97069151D01*
X181803113Y-96520000D01*
X181693880Y-95970849D01*
X181382811Y-95505302D01*
X181000725Y-95250000D01*
X181382811Y-94994698D01*
X181693880Y-94529151D01*
X181803113Y-93980000D01*
X181693880Y-93430849D01*
X181382811Y-92965302D01*
X181000725Y-92710000D01*
X181382811Y-92454698D01*
X181693880Y-91989151D01*
X181803113Y-91440000D01*
X181693880Y-90890849D01*
X181382811Y-90425302D01*
X181000725Y-90170000D01*
X181382811Y-89914698D01*
X181693880Y-89449151D01*
X181803113Y-88900000D01*
X181693880Y-88350849D01*
X181382811Y-87885302D01*
X181000725Y-87630000D01*
X181382811Y-87374698D01*
X181693880Y-86909151D01*
X181803113Y-86360000D01*
X181693880Y-85810849D01*
X181382811Y-85345302D01*
X181000725Y-85090000D01*
X181382811Y-84834698D01*
X181693880Y-84369151D01*
X181803113Y-83820000D01*
X181693880Y-83270849D01*
X181382811Y-82805302D01*
X181000725Y-82550000D01*
X181382811Y-82294698D01*
X181693880Y-81829151D01*
X181803113Y-81280000D01*
X181693880Y-80730849D01*
X181382811Y-80265302D01*
X181000725Y-80010000D01*
X181382811Y-79754698D01*
X181693880Y-79289151D01*
X181803113Y-78740000D01*
X181693880Y-78190849D01*
X181382811Y-77725302D01*
X181238535Y-77628899D01*
X181375317Y-77603162D01*
X181591441Y-77464090D01*
X181736431Y-77251890D01*
X181787440Y-77000000D01*
X181787440Y-75400000D01*
X181743162Y-75164683D01*
X181604090Y-74948559D01*
X181391890Y-74803569D01*
X181140000Y-74752560D01*
X179540000Y-74752560D01*
X179304683Y-74796838D01*
X179088559Y-74935910D01*
X178943569Y-75148110D01*
X178892560Y-75400000D01*
X178892560Y-77000000D01*
X178936838Y-77235317D01*
X179075910Y-77451441D01*
X179288110Y-77596431D01*
X179443089Y-77627815D01*
X179297189Y-77725302D01*
X178986120Y-78190849D01*
X178876887Y-78740000D01*
X175947245Y-78740000D01*
X175790327Y-78582808D01*
X175446799Y-78440162D01*
X175074833Y-78439838D01*
X174731057Y-78581883D01*
X174467808Y-78844673D01*
X174325162Y-79188201D01*
X174324838Y-79560167D01*
X162050000Y-79560167D01*
X162050000Y-77784802D01*
X162236114Y-77598688D01*
X162560000Y-77663113D01*
X163109151Y-77553880D01*
X163574698Y-77242811D01*
X163885767Y-76777264D01*
X163995000Y-76228113D01*
X163995000Y-76171887D01*
X163885767Y-75622736D01*
X163574698Y-75157189D01*
X163109151Y-74846120D01*
X162560000Y-74736887D01*
X162010849Y-74846120D01*
X161545302Y-75157189D01*
X161290000Y-75539275D01*
X161034698Y-75157189D01*
X160569151Y-74846120D01*
X160020000Y-74736887D01*
X159470849Y-74846120D01*
X159005302Y-75157189D01*
X158750000Y-75539275D01*
X158494698Y-75157189D01*
X158029151Y-74846120D01*
X157480000Y-74736887D01*
X156930849Y-74846120D01*
X156465302Y-75157189D01*
X156210000Y-75539275D01*
X155954698Y-75157189D01*
X155489151Y-74846120D01*
X154940000Y-74736887D01*
X154390849Y-74846120D01*
X153925302Y-75157189D01*
X153670000Y-75539275D01*
X153414698Y-75157189D01*
X152949151Y-74846120D01*
X152400000Y-74736887D01*
X151850849Y-74846120D01*
X151385302Y-75157189D01*
X151130000Y-75539275D01*
X150874698Y-75157189D01*
X150409151Y-74846120D01*
X149860000Y-74736887D01*
X149310849Y-74846120D01*
X148845302Y-75157189D01*
X148590000Y-75539275D01*
X148334698Y-75157189D01*
X147869151Y-74846120D01*
X147320000Y-74736887D01*
X146770849Y-74846120D01*
X146305302Y-75157189D01*
X146050000Y-75539275D01*
X145794698Y-75157189D01*
X145329151Y-74846120D01*
X144780000Y-74736887D01*
X144230849Y-74846120D01*
X143765302Y-75157189D01*
X143510000Y-75539275D01*
X143254698Y-75157189D01*
X142789151Y-74846120D01*
X142240000Y-74736887D01*
X141690849Y-74846120D01*
X141225302Y-75157189D01*
X140955014Y-75561703D01*
X140852389Y-75344866D01*
X140437423Y-74968959D01*
X140049039Y-74808096D01*
X139827000Y-74930085D01*
X139827000Y-76073000D01*
X139847000Y-76073000D01*
X139847000Y-76327000D01*
X139827000Y-76327000D01*
X139827000Y-77469915D01*
X140049039Y-77591904D01*
X140437423Y-77431041D01*
X140852389Y-77055134D01*
X140955014Y-76838297D01*
X141225302Y-77242811D01*
X141690849Y-77553880D01*
X142240000Y-77663113D01*
X142789151Y-77553880D01*
X143254698Y-77242811D01*
X143510000Y-76860725D01*
X143765302Y-77242811D01*
X144230849Y-77553880D01*
X144780000Y-77663113D01*
X145329151Y-77553880D01*
X145794698Y-77242811D01*
X146050000Y-76860725D01*
X146305302Y-77242811D01*
X146770849Y-77553880D01*
X147320000Y-77663113D01*
X147869151Y-77553880D01*
X148334698Y-77242811D01*
X148590000Y-76860725D01*
X148845302Y-77242811D01*
X149310849Y-77553880D01*
X149860000Y-77663113D01*
X150409151Y-77553880D01*
X150874698Y-77242811D01*
X151130000Y-76860725D01*
X151385302Y-77242811D01*
X151850849Y-77553880D01*
X152400000Y-77663113D01*
X152949151Y-77553880D01*
X153414698Y-77242811D01*
X153670000Y-76860725D01*
X153925302Y-77242811D01*
X154390849Y-77553880D01*
X154940000Y-77663113D01*
X155489151Y-77553880D01*
X155954698Y-77242811D01*
X156210000Y-76860725D01*
X156465302Y-77242811D01*
X156930849Y-77553880D01*
X157480000Y-77663113D01*
X158029151Y-77553880D01*
X158494698Y-77242811D01*
X158750000Y-76860725D01*
X159005302Y-77242811D01*
X159470849Y-77553880D01*
X160020000Y-77663113D01*
X160530000Y-77561668D01*
X160530000Y-82458332D01*
X160020000Y-82356887D01*
X159470849Y-82466120D01*
X159005302Y-82777189D01*
X158750000Y-83159275D01*
X158494698Y-82777189D01*
X158029151Y-82466120D01*
X157480000Y-82356887D01*
X156930849Y-82466120D01*
X156465302Y-82777189D01*
X156210000Y-83159275D01*
X155954698Y-82777189D01*
X155489151Y-82466120D01*
X154940000Y-82356887D01*
X154390849Y-82466120D01*
X153925302Y-82777189D01*
X153670000Y-83159275D01*
X153414698Y-82777189D01*
X152949151Y-82466120D01*
X152400000Y-82356887D01*
X151850849Y-82466120D01*
X151385302Y-82777189D01*
X151130000Y-83159275D01*
X150874698Y-82777189D01*
X150409151Y-82466120D01*
X149860000Y-82356887D01*
X149310849Y-82466120D01*
X148845302Y-82777189D01*
X148590000Y-83159275D01*
X148334698Y-82777189D01*
X147869151Y-82466120D01*
X147320000Y-82356887D01*
X146770849Y-82466120D01*
X146305302Y-82777189D01*
X146050000Y-83159275D01*
X145794698Y-82777189D01*
X145329151Y-82466120D01*
X144780000Y-82356887D01*
X144230849Y-82466120D01*
X143765302Y-82777189D01*
X143510000Y-83159275D01*
X143254698Y-82777189D01*
X142789151Y-82466120D01*
X142240000Y-82356887D01*
X141690849Y-82466120D01*
X141225302Y-82777189D01*
X141128899Y-82921465D01*
X141103162Y-82784683D01*
X140964090Y-82568559D01*
X140751890Y-82423569D01*
X140585000Y-82389773D01*
X140585000Y-80645000D01*
X140573525Y-80587312D01*
X140577314Y-80528612D01*
X140540132Y-80419435D01*
X140517633Y-80306325D01*
X140484955Y-80257418D01*
X140465992Y-80201738D01*
X140389866Y-80115107D01*
X140325790Y-80019210D01*
X140276880Y-79986529D01*
X140238055Y-79942347D01*
X138595014Y-78684191D01*
X138595248Y-78415813D01*
X138377243Y-77888200D01*
X137973923Y-77484176D01*
X137907456Y-77456577D01*
X137914005Y-77453864D01*
X137988139Y-77207745D01*
X137160000Y-76379605D01*
X136331861Y-77207745D01*
X136405995Y-77453864D01*
X136412483Y-77456196D01*
X136348200Y-77482757D01*
X135944176Y-77886077D01*
X135725250Y-78413309D01*
X135724752Y-78984187D01*
X135942757Y-79511800D01*
X136346077Y-79915824D01*
X136873309Y-80134750D01*
X137444187Y-80135248D01*
X137531524Y-80099161D01*
X138815000Y-81081981D01*
X138815000Y-82388554D01*
X138664683Y-82416838D01*
X138448559Y-82555910D01*
X138303569Y-82768110D01*
X138252560Y-83020000D01*
X138252560Y-84620000D01*
X138296838Y-84855317D01*
X138435910Y-85071441D01*
X138648110Y-85216431D01*
X138815000Y-85250227D01*
X138815000Y-86053178D01*
X138765162Y-86173201D01*
X138764838Y-86545167D01*
X138906883Y-86888943D01*
X139169673Y-87152192D01*
X139290986Y-87202566D01*
X140085000Y-87996579D01*
X140085000Y-90062991D01*
X140049039Y-90048096D01*
X139827000Y-90170085D01*
X139827000Y-91313000D01*
X139847000Y-91313000D01*
X139847000Y-91567000D01*
X139827000Y-91567000D01*
X139827000Y-92709915D01*
X140049039Y-92831904D01*
X140085000Y-92817009D01*
X140085000Y-93613421D01*
X139074210Y-94624210D01*
X138882367Y-94911325D01*
X138882367Y-94911326D01*
X138814999Y-95250000D01*
X138815000Y-95250005D01*
X138815000Y-97628554D01*
X138664683Y-97656838D01*
X138448559Y-97795910D01*
X138303569Y-98008110D01*
X138252560Y-98260000D01*
X138252560Y-99860000D01*
X138296838Y-100095317D01*
X138435910Y-100311441D01*
X138648110Y-100456431D01*
X138900000Y-100507440D01*
X140500000Y-100507440D01*
X140735317Y-100463162D01*
X140951441Y-100324090D01*
X141096431Y-100111890D01*
X141127815Y-99956911D01*
X141225302Y-100102811D01*
X141480000Y-100272995D01*
X141480000Y-101600000D01*
X141537852Y-101890839D01*
X141702599Y-102137401D01*
X142750000Y-103184802D01*
X142750000Y-105318332D01*
X142240000Y-105216887D01*
X141690849Y-105326120D01*
X141225302Y-105637189D01*
X140955014Y-106041703D01*
X140852389Y-105824866D01*
X140437423Y-105448959D01*
X140049039Y-105288096D01*
X139827000Y-105410085D01*
X139827000Y-106553000D01*
X139847000Y-106553000D01*
X139847000Y-106807000D01*
X139827000Y-106807000D01*
X139827000Y-107949915D01*
X140049039Y-108071904D01*
X140437423Y-107911041D01*
X140852389Y-107535134D01*
X140955014Y-107318297D01*
X141225302Y-107722811D01*
X141690849Y-108033880D01*
X142240000Y-108143113D01*
X142750000Y-108041668D01*
X142750000Y-108905198D01*
X141702599Y-109952599D01*
X141605000Y-110098667D01*
X141507401Y-109952599D01*
X139528929Y-107974127D01*
X139573000Y-107949915D01*
X139573000Y-106807000D01*
X138429371Y-106807000D01*
X138405501Y-106850699D01*
X137885761Y-106330959D01*
X138308086Y-106330959D01*
X138429371Y-106553000D01*
X139573000Y-106553000D01*
X139573000Y-105410085D01*
X139350961Y-105288096D01*
X138962577Y-105448959D01*
X138547611Y-105824866D01*
X138308086Y-106330959D01*
X137885761Y-106330959D01*
X126267401Y-94712599D01*
X126020839Y-94547852D01*
X125818179Y-94507540D01*
X125923113Y-93980000D01*
X125813880Y-93430849D01*
X125502811Y-92965302D01*
X125120725Y-92710000D01*
X125502811Y-92454698D01*
X125813880Y-91989151D01*
X125853684Y-91789041D01*
X138308086Y-91789041D01*
X138547611Y-92295134D01*
X138962577Y-92671041D01*
X139350961Y-92831904D01*
X139573000Y-92709915D01*
X139573000Y-91567000D01*
X138429371Y-91567000D01*
X138308086Y-91789041D01*
X125853684Y-91789041D01*
X125923113Y-91440000D01*
X125858688Y-91116114D01*
X125883843Y-91090959D01*
X138308086Y-91090959D01*
X138429371Y-91313000D01*
X139573000Y-91313000D01*
X139573000Y-90170085D01*
X139350961Y-90048096D01*
X138962577Y-90208959D01*
X138547611Y-90584866D01*
X138308086Y-91090959D01*
X125883843Y-91090959D01*
X126902401Y-90072401D01*
X127067148Y-89825839D01*
X127125000Y-89535000D01*
X127125000Y-75983223D01*
X135713035Y-75983223D01*
X135740222Y-76553454D01*
X135906136Y-76954005D01*
X136152255Y-77028139D01*
X136980395Y-76200000D01*
X137339605Y-76200000D01*
X138167745Y-77028139D01*
X138413864Y-76954005D01*
X138450935Y-76850868D01*
X138547611Y-77055134D01*
X138962577Y-77431041D01*
X139350961Y-77591904D01*
X139573000Y-77469915D01*
X139573000Y-76327000D01*
X139553000Y-76327000D01*
X139553000Y-76073000D01*
X139573000Y-76073000D01*
X139573000Y-74930085D01*
X139350961Y-74808096D01*
X138962577Y-74968959D01*
X138547611Y-75344866D01*
X138453948Y-75542766D01*
X138413864Y-75445995D01*
X138167745Y-75371861D01*
X137339605Y-76200000D01*
X136980395Y-76200000D01*
X136152255Y-75371861D01*
X135906136Y-75445995D01*
X135713035Y-75983223D01*
X127125000Y-75983223D01*
X127125000Y-75192255D01*
X136331861Y-75192255D01*
X137160000Y-76020395D01*
X137988139Y-75192255D01*
X137914005Y-74946136D01*
X137376777Y-74753035D01*
X136806546Y-74780222D01*
X136405995Y-74946136D01*
X136331861Y-75192255D01*
X127125000Y-75192255D01*
X127125000Y-67945000D01*
X127067148Y-67654161D01*
X126902401Y-67407599D01*
X122001463Y-62506661D01*
X126872758Y-62506661D01*
X127084990Y-63020303D01*
X127477630Y-63413629D01*
X127990900Y-63626757D01*
X128546661Y-63627242D01*
X129060303Y-63415010D01*
X129453629Y-63022370D01*
X129539949Y-62814488D01*
X129624990Y-63020303D01*
X130017630Y-63413629D01*
X130050000Y-63427070D01*
X130050000Y-64455198D01*
X129002599Y-65502599D01*
X128837852Y-65749161D01*
X128780000Y-66040000D01*
X128780000Y-67341354D01*
X128728200Y-67362757D01*
X128324176Y-67766077D01*
X128105250Y-68293309D01*
X128104752Y-68864187D01*
X128322757Y-69391800D01*
X128726077Y-69795824D01*
X129253309Y-70014750D01*
X129824187Y-70015248D01*
X130351800Y-69797243D01*
X130755824Y-69393923D01*
X130789813Y-69312069D01*
X130822757Y-69391800D01*
X131226077Y-69795824D01*
X131753309Y-70014750D01*
X132324187Y-70015248D01*
X132851800Y-69797243D01*
X133255824Y-69393923D01*
X133474750Y-68866691D01*
X133475248Y-68295813D01*
X133257243Y-67768200D01*
X132853923Y-67364176D01*
X132326691Y-67145250D01*
X131755813Y-67144752D01*
X131228200Y-67362757D01*
X130824176Y-67766077D01*
X130790187Y-67847931D01*
X130757243Y-67768200D01*
X130353923Y-67364176D01*
X130300000Y-67341785D01*
X130300000Y-66354802D01*
X130330615Y-66324187D01*
X135764752Y-66324187D01*
X135982757Y-66851800D01*
X136386077Y-67255824D01*
X136913309Y-67474750D01*
X137484187Y-67475248D01*
X138011800Y-67257243D01*
X138280583Y-66988928D01*
X138296838Y-67075317D01*
X138435910Y-67291441D01*
X138648110Y-67436431D01*
X138900000Y-67487440D01*
X140500000Y-67487440D01*
X140735317Y-67443162D01*
X140951441Y-67304090D01*
X141096431Y-67091890D01*
X141147440Y-66840000D01*
X141147440Y-65240000D01*
X141103162Y-65004683D01*
X140964090Y-64788559D01*
X140751890Y-64643569D01*
X140500000Y-64592560D01*
X138900000Y-64592560D01*
X138664683Y-64636838D01*
X138448559Y-64775910D01*
X138303569Y-64988110D01*
X138282320Y-65093041D01*
X138013923Y-64824176D01*
X137486691Y-64605250D01*
X136915813Y-64604752D01*
X136388200Y-64822757D01*
X135984176Y-65226077D01*
X135765250Y-65753309D01*
X135764752Y-66324187D01*
X130330615Y-66324187D01*
X131347401Y-65307401D01*
X131512148Y-65060840D01*
X131570000Y-64770000D01*
X131570000Y-63427531D01*
X131600303Y-63415010D01*
X131993629Y-63022370D01*
X132079949Y-62814488D01*
X132164990Y-63020303D01*
X132557630Y-63413629D01*
X133070900Y-63626757D01*
X133626661Y-63627242D01*
X134140303Y-63415010D01*
X134533629Y-63022370D01*
X134746757Y-62509100D01*
X134747242Y-61953339D01*
X134535010Y-61439697D01*
X134142370Y-61046371D01*
X133629100Y-60833243D01*
X133073339Y-60832758D01*
X132559697Y-61044990D01*
X132166371Y-61437630D01*
X132080051Y-61645512D01*
X131995010Y-61439697D01*
X131602370Y-61046371D01*
X131089100Y-60833243D01*
X130533339Y-60832758D01*
X130019697Y-61044990D01*
X129626371Y-61437630D01*
X129540051Y-61645512D01*
X129455010Y-61439697D01*
X129062370Y-61046371D01*
X128549100Y-60833243D01*
X127993339Y-60832758D01*
X127479697Y-61044990D01*
X127086371Y-61437630D01*
X126873243Y-61950900D01*
X126872758Y-62506661D01*
X122001463Y-62506661D01*
X120140000Y-60645198D01*
X120140000Y-59547655D01*
X120511098Y-59177204D01*
X120650091Y-58842473D01*
X120787582Y-59175229D01*
X121162796Y-59551098D01*
X121653287Y-59754768D01*
X122184383Y-59755231D01*
X122675229Y-59552418D01*
X123051098Y-59177204D01*
X123247512Y-58704187D01*
X135764752Y-58704187D01*
X135982757Y-59231800D01*
X136386077Y-59635824D01*
X136913309Y-59854750D01*
X137484187Y-59855248D01*
X137509845Y-59844647D01*
X138582599Y-60917401D01*
X138829161Y-61082148D01*
X139120000Y-61140000D01*
X150915000Y-61140000D01*
X150915000Y-61173786D01*
X151028039Y-61742071D01*
X151349946Y-62223840D01*
X151831715Y-62545747D01*
X152400000Y-62658786D01*
X152968285Y-62545747D01*
X153450054Y-62223840D01*
X153771961Y-61742071D01*
X153885000Y-61173786D01*
X153885000Y-59586214D01*
X153771961Y-59017929D01*
X153450054Y-58536160D01*
X152968285Y-58214253D01*
X152400000Y-58101214D01*
X151831715Y-58214253D01*
X151349946Y-58536160D01*
X151028039Y-59017929D01*
X150915000Y-59586214D01*
X150915000Y-59620000D01*
X140995232Y-59620000D01*
X141096431Y-59471890D01*
X141147440Y-59220000D01*
X141147440Y-57620000D01*
X141103162Y-57384683D01*
X140964090Y-57168559D01*
X140751890Y-57023569D01*
X140500000Y-56972560D01*
X138900000Y-56972560D01*
X138664683Y-57016838D01*
X138448559Y-57155910D01*
X138303569Y-57368110D01*
X138282320Y-57473041D01*
X138013923Y-57204176D01*
X137486691Y-56985250D01*
X136915813Y-56984752D01*
X136388200Y-57202757D01*
X135984176Y-57606077D01*
X135765250Y-58133309D01*
X135764752Y-58704187D01*
X123247512Y-58704187D01*
X123254768Y-58686713D01*
X123255231Y-58155617D01*
X123052418Y-57664771D01*
X122677204Y-57288902D01*
X122186713Y-57085232D01*
X121655617Y-57084769D01*
X121164771Y-57287582D01*
X120788902Y-57662796D01*
X120649909Y-57997527D01*
X120512418Y-57664771D01*
X120137204Y-57288902D01*
X119646713Y-57085232D01*
X119115617Y-57084769D01*
X118624771Y-57287582D01*
X118248902Y-57662796D01*
X118109909Y-57997527D01*
X117972418Y-57664771D01*
X117597204Y-57288902D01*
X117106713Y-57085232D01*
X116575617Y-57084769D01*
X116084771Y-57287582D01*
X115708902Y-57662796D01*
X115560618Y-58019903D01*
X115533379Y-57882964D01*
X115243988Y-57449858D01*
X114810882Y-57160467D01*
X114300000Y-57058846D01*
X113789118Y-57160467D01*
X113356012Y-57449858D01*
X113066621Y-57882964D01*
X113043706Y-57998164D01*
X112931042Y-57726169D01*
X112695275Y-57664331D01*
X111939605Y-58420000D01*
X112695275Y-59175669D01*
X112931042Y-59113831D01*
X113037605Y-58811165D01*
X113066621Y-58957036D01*
X113356012Y-59390142D01*
X113789118Y-59679533D01*
X114300000Y-59781154D01*
X114810882Y-59679533D01*
X115243988Y-59390142D01*
X115533379Y-58957036D01*
X115560692Y-58819726D01*
X115707582Y-59175229D01*
X116082796Y-59551098D01*
X116573287Y-59754768D01*
X117104383Y-59755231D01*
X117595229Y-59552418D01*
X117971098Y-59177204D01*
X118110091Y-58842473D01*
X118247582Y-59175229D01*
X118620000Y-59548297D01*
X118620000Y-60960000D01*
X118677852Y-61250839D01*
X118842599Y-61497401D01*
X122049879Y-64704681D01*
X121920000Y-64678846D01*
X121409118Y-64780467D01*
X120976012Y-65069858D01*
X120686621Y-65502964D01*
X120650000Y-65687070D01*
X120613379Y-65502964D01*
X120323988Y-65069858D01*
X119890882Y-64780467D01*
X119380000Y-64678846D01*
X118869118Y-64780467D01*
X118436012Y-65069858D01*
X118146621Y-65502964D01*
X118110000Y-65687070D01*
X118073379Y-65502964D01*
X117783988Y-65069858D01*
X117350882Y-64780467D01*
X116840000Y-64678846D01*
X116329118Y-64780467D01*
X115896012Y-65069858D01*
X115606621Y-65502964D01*
X115579308Y-65640274D01*
X115432418Y-65284771D01*
X115057204Y-64908902D01*
X114566713Y-64705232D01*
X114035617Y-64704769D01*
X113544771Y-64907582D01*
X113168902Y-65282796D01*
X113020618Y-65639903D01*
X112993379Y-65502964D01*
X112703988Y-65069858D01*
X112270882Y-64780467D01*
X111760000Y-64678846D01*
X111249118Y-64780467D01*
X110816012Y-65069858D01*
X110526621Y-65502964D01*
X110425000Y-66013846D01*
X110425000Y-66066154D01*
X110526621Y-66577036D01*
X110816012Y-67010142D01*
X111249118Y-67299533D01*
X111760000Y-67401154D01*
X112270882Y-67299533D01*
X112703988Y-67010142D01*
X112993379Y-66577036D01*
X113020692Y-66439726D01*
X113167582Y-66795229D01*
X113542796Y-67171098D01*
X114033287Y-67374768D01*
X114564383Y-67375231D01*
X115055229Y-67172418D01*
X115431098Y-66797204D01*
X115579382Y-66440097D01*
X115606621Y-66577036D01*
X115896012Y-67010142D01*
X116329118Y-67299533D01*
X116840000Y-67401154D01*
X117350882Y-67299533D01*
X117783988Y-67010142D01*
X118073379Y-66577036D01*
X118110000Y-66392930D01*
X118146621Y-66577036D01*
X118436012Y-67010142D01*
X118869118Y-67299533D01*
X119380000Y-67401154D01*
X119890882Y-67299533D01*
X120323988Y-67010142D01*
X120613379Y-66577036D01*
X120650000Y-66392930D01*
X120686621Y-66577036D01*
X120976012Y-67010142D01*
X121409118Y-67299533D01*
X121920000Y-67401154D01*
X122430882Y-67299533D01*
X122863988Y-67010142D01*
X123153379Y-66577036D01*
X123255000Y-66066154D01*
X123255000Y-66013846D01*
X123229165Y-65883967D01*
X125605000Y-68259802D01*
X125605000Y-70275831D01*
X125273923Y-69944176D01*
X124746691Y-69725250D01*
X124175813Y-69724752D01*
X123648200Y-69942757D01*
X123244176Y-70346077D01*
X123025250Y-70873309D01*
X123024752Y-71444187D01*
X123242757Y-71971800D01*
X123646077Y-72375824D01*
X123727931Y-72409813D01*
X123648200Y-72442757D01*
X123244176Y-72846077D01*
X123025250Y-73373309D01*
X123024752Y-73944187D01*
X123242757Y-74471800D01*
X123646077Y-74875824D01*
X124173309Y-75094750D01*
X124744187Y-75095248D01*
X125271800Y-74877243D01*
X125605000Y-74544624D01*
X125605000Y-77953204D01*
X125467745Y-77911861D01*
X124639605Y-78740000D01*
X125467745Y-79568139D01*
X125605000Y-79526796D01*
X125605000Y-80418238D01*
X125502811Y-80265302D01*
X125141514Y-80023891D01*
X125214005Y-79993864D01*
X125288139Y-79747745D01*
X124460000Y-78919605D01*
X123631861Y-79747745D01*
X123705995Y-79993864D01*
X123782350Y-80021309D01*
X123417189Y-80265302D01*
X123106120Y-80730849D01*
X122996887Y-81280000D01*
X122997405Y-81282603D01*
X121889741Y-80174939D01*
X122244187Y-80175248D01*
X122771800Y-79957243D01*
X123175824Y-79553923D01*
X123203423Y-79487456D01*
X123206136Y-79494005D01*
X123452255Y-79568139D01*
X124280395Y-78740000D01*
X123452255Y-77911861D01*
X123206136Y-77985995D01*
X123203804Y-77992483D01*
X123177243Y-77928200D01*
X122981640Y-77732255D01*
X123631861Y-77732255D01*
X124460000Y-78560395D01*
X125288139Y-77732255D01*
X125214005Y-77486136D01*
X124676777Y-77293035D01*
X124106546Y-77320222D01*
X123705995Y-77486136D01*
X123631861Y-77732255D01*
X122981640Y-77732255D01*
X122773923Y-77524176D01*
X122246691Y-77305250D01*
X121675813Y-77304752D01*
X121148200Y-77522757D01*
X120744176Y-77926077D01*
X120525250Y-78453309D01*
X120524939Y-78810137D01*
X120140000Y-78425198D01*
X120140000Y-73388653D01*
X120353461Y-73175564D01*
X120564759Y-72666702D01*
X120565240Y-72115715D01*
X120354831Y-71606485D01*
X119965564Y-71216539D01*
X119456702Y-71005241D01*
X118905715Y-71004760D01*
X118396485Y-71215169D01*
X118006539Y-71604436D01*
X117795241Y-72113298D01*
X117794760Y-72664285D01*
X118005169Y-73173515D01*
X118394436Y-73563461D01*
X118620000Y-73657123D01*
X118620000Y-78740000D01*
X118677852Y-79030839D01*
X118842599Y-79277401D01*
X123061312Y-83496114D01*
X122996887Y-83820000D01*
X123106120Y-84369151D01*
X123417189Y-84834698D01*
X123799275Y-85090000D01*
X123417189Y-85345302D01*
X123106120Y-85810849D01*
X122996887Y-86360000D01*
X123106120Y-86909151D01*
X123417189Y-87374698D01*
X123799275Y-87630000D01*
X123417189Y-87885302D01*
X123106120Y-88350849D01*
X122996887Y-88900000D01*
X123106120Y-89449151D01*
X123417189Y-89914698D01*
X123799275Y-90170000D01*
X123417189Y-90425302D01*
X123106120Y-90890849D01*
X122996887Y-91440000D01*
X123106120Y-91989151D01*
X123417189Y-92454698D01*
X123799275Y-92710000D01*
X123417189Y-92965302D01*
X123106120Y-93430849D01*
X122996887Y-93980000D01*
X122997405Y-93982603D01*
X110667440Y-81652638D01*
X110667440Y-80480000D01*
X110623162Y-80244683D01*
X110484090Y-80028559D01*
X110271890Y-79883569D01*
X110020000Y-79832560D01*
X108420000Y-79832560D01*
X108184683Y-79876838D01*
X107968559Y-80015910D01*
X107823569Y-80228110D01*
X107772560Y-80480000D01*
X107772560Y-82080000D01*
X107816838Y-82315317D01*
X107955910Y-82531441D01*
X108168110Y-82676431D01*
X108323089Y-82707815D01*
X108177189Y-82805302D01*
X107866120Y-83270849D01*
X107756887Y-83820000D01*
X107866120Y-84369151D01*
X108177189Y-84834698D01*
X108559275Y-85090000D01*
X108177189Y-85345302D01*
X107866120Y-85810849D01*
X107756887Y-86360000D01*
X107866120Y-86909151D01*
X108177189Y-87374698D01*
X108559275Y-87630000D01*
X108177189Y-87885302D01*
X107866120Y-88350849D01*
X107756887Y-88900000D01*
X107866120Y-89449151D01*
X108177189Y-89914698D01*
X108559275Y-90170000D01*
X108177189Y-90425302D01*
X107866120Y-90890849D01*
X107756887Y-91440000D01*
X107866120Y-91989151D01*
X108177189Y-92454698D01*
X108559275Y-92710000D01*
X108177189Y-92965302D01*
X107866120Y-93430849D01*
X107756887Y-93980000D01*
X107866120Y-94529151D01*
X108177189Y-94994698D01*
X108559275Y-95250000D01*
X108177189Y-95505302D01*
X107866120Y-95970849D01*
X107756887Y-96520000D01*
X107866120Y-97069151D01*
X108177189Y-97534698D01*
X108559275Y-97790000D01*
X108177189Y-98045302D01*
X107866120Y-98510849D01*
X107756887Y-99060000D01*
X107866120Y-99609151D01*
X108177189Y-100074698D01*
X108559275Y-100330000D01*
X108177189Y-100585302D01*
X107866120Y-101050849D01*
X107756887Y-101600000D01*
X107866120Y-102149151D01*
X108177189Y-102614698D01*
X108559275Y-102870000D01*
X108177189Y-103125302D01*
X107866120Y-103590849D01*
X107756887Y-104140000D01*
X107866120Y-104689151D01*
X108177189Y-105154698D01*
X108559275Y-105410000D01*
X108177189Y-105665302D01*
X107866120Y-106130849D01*
X107756887Y-106680000D01*
X107866120Y-107229151D01*
X108177189Y-107694698D01*
X108559275Y-107950000D01*
X108177189Y-108205302D01*
X108090527Y-108335000D01*
X106680005Y-108335000D01*
X106680000Y-108334999D01*
X106397516Y-108391190D01*
X106341325Y-108402367D01*
X106054210Y-108594210D01*
X106054208Y-108594213D01*
X103554210Y-111094210D01*
X103362367Y-111381325D01*
X103362367Y-111381326D01*
X103294999Y-111720000D01*
X103295000Y-111720005D01*
X103295000Y-133475829D01*
X102964176Y-133806077D01*
X102745250Y-134333309D01*
X102744752Y-134904187D01*
X102962757Y-135431800D01*
X103366077Y-135835824D01*
X103893309Y-136054750D01*
X104464187Y-136055248D01*
X104991800Y-135837243D01*
X105256187Y-135573317D01*
X105341673Y-135779699D01*
X105520302Y-135958327D01*
X105753691Y-136055000D01*
X106394250Y-136055000D01*
X106553000Y-135896250D01*
X106553000Y-134747000D01*
X106807000Y-134747000D01*
X106807000Y-135896250D01*
X106965750Y-136055000D01*
X107606309Y-136055000D01*
X107839698Y-135958327D01*
X108018327Y-135779699D01*
X108115000Y-135546310D01*
X108115000Y-134905750D01*
X107956250Y-134747000D01*
X106807000Y-134747000D01*
X106553000Y-134747000D01*
X106533000Y-134747000D01*
X106533000Y-134493000D01*
X106553000Y-134493000D01*
X106553000Y-133343750D01*
X106807000Y-133343750D01*
X106807000Y-134493000D01*
X107956250Y-134493000D01*
X108115000Y-134334250D01*
X108115000Y-133693690D01*
X108018327Y-133460301D01*
X107839698Y-133281673D01*
X107606309Y-133185000D01*
X106965750Y-133185000D01*
X106807000Y-133343750D01*
X106553000Y-133343750D01*
X106394250Y-133185000D01*
X105753691Y-133185000D01*
X105520302Y-133281673D01*
X105341673Y-133460301D01*
X105256124Y-133666835D01*
X105065000Y-133475377D01*
X105065000Y-112086580D01*
X107046579Y-110105000D01*
X108090527Y-110105000D01*
X108177189Y-110234698D01*
X108559275Y-110490000D01*
X108177189Y-110745302D01*
X107866120Y-111210849D01*
X107756887Y-111760000D01*
X107866120Y-112309151D01*
X108177189Y-112774698D01*
X108559275Y-113030000D01*
X108177189Y-113285302D01*
X107866120Y-113750849D01*
X107756887Y-114300000D01*
X107866120Y-114849151D01*
X108177189Y-115314698D01*
X108559275Y-115570000D01*
X108177189Y-115825302D01*
X107866120Y-116290849D01*
X107756887Y-116840000D01*
X107866120Y-117389151D01*
X108177189Y-117854698D01*
X108559275Y-118110000D01*
X108177189Y-118365302D01*
X107866120Y-118830849D01*
X107756887Y-119380000D01*
X107866120Y-119929151D01*
X108177189Y-120394698D01*
X108559275Y-120650000D01*
X108177189Y-120905302D01*
X107866120Y-121370849D01*
X107756887Y-121920000D01*
X107866120Y-122469151D01*
X108177189Y-122934698D01*
X108559275Y-123190000D01*
X108177189Y-123445302D01*
X107866120Y-123910849D01*
X107756887Y-124460000D01*
X107866120Y-125009151D01*
X108177189Y-125474698D01*
X108559275Y-125730000D01*
X108177189Y-125985302D01*
X107866120Y-126450849D01*
X107756887Y-127000000D01*
X107866120Y-127549151D01*
X108177189Y-128014698D01*
X108559275Y-128270000D01*
X108177189Y-128525302D01*
X107866120Y-128990849D01*
X107756887Y-129540000D01*
X107866120Y-130089151D01*
X108177189Y-130554698D01*
X108642736Y-130865767D01*
X109191887Y-130975000D01*
X109248113Y-130975000D01*
X109797264Y-130865767D01*
X110262811Y-130554698D01*
X110573880Y-130089151D01*
X110683113Y-129540000D01*
X110573880Y-128990849D01*
X110262811Y-128525302D01*
X109880725Y-128270000D01*
X110262811Y-128014698D01*
X110573880Y-127549151D01*
X110683113Y-127000000D01*
X110573880Y-126450849D01*
X110262811Y-125985302D01*
X109880725Y-125730000D01*
X110262811Y-125474698D01*
X110573880Y-125009151D01*
X110683113Y-124460000D01*
X110573880Y-123910849D01*
X110262811Y-123445302D01*
X109880725Y-123190000D01*
X110262811Y-122934698D01*
X110573880Y-122469151D01*
X110683113Y-121920000D01*
X110573880Y-121370849D01*
X110262811Y-120905302D01*
X109880725Y-120650000D01*
X110262811Y-120394698D01*
X110573880Y-119929151D01*
X110683113Y-119380000D01*
X110573880Y-118830849D01*
X110262811Y-118365302D01*
X109880725Y-118110000D01*
X110262811Y-117854698D01*
X110573880Y-117389151D01*
X110683113Y-116840000D01*
X110573880Y-116290849D01*
X110262811Y-115825302D01*
X109880725Y-115570000D01*
X110262811Y-115314698D01*
X110573880Y-114849151D01*
X110683113Y-114300000D01*
X110573880Y-113750849D01*
X110262811Y-113285302D01*
X109880725Y-113030000D01*
X110262811Y-112774698D01*
X110573880Y-112309151D01*
X110683113Y-111760000D01*
X110573880Y-111210849D01*
X110262811Y-110745302D01*
X109880725Y-110490000D01*
X110262811Y-110234698D01*
X110573880Y-109769151D01*
X110683113Y-109220000D01*
X110573880Y-108670849D01*
X110262811Y-108205302D01*
X109880725Y-107950000D01*
X110262811Y-107694698D01*
X110573880Y-107229151D01*
X110683113Y-106680000D01*
X110573880Y-106130849D01*
X110262811Y-105665302D01*
X109880725Y-105410000D01*
X110262811Y-105154698D01*
X110573880Y-104689151D01*
X110683113Y-104140000D01*
X110573880Y-103590849D01*
X110262811Y-103125302D01*
X109880725Y-102870000D01*
X110262811Y-102614698D01*
X110573880Y-102149151D01*
X110683113Y-101600000D01*
X110573880Y-101050849D01*
X110262811Y-100585302D01*
X109880725Y-100330000D01*
X110262811Y-100074698D01*
X110573880Y-99609151D01*
X110683113Y-99060000D01*
X110573880Y-98510849D01*
X110262811Y-98045302D01*
X109880725Y-97790000D01*
X110262811Y-97534698D01*
X110573880Y-97069151D01*
X110683113Y-96520000D01*
X110573880Y-95970849D01*
X110262811Y-95505302D01*
X109880725Y-95250000D01*
X110262811Y-94994698D01*
X110573880Y-94529151D01*
X110683113Y-93980000D01*
X110573880Y-93430849D01*
X110262811Y-92965302D01*
X109880725Y-92710000D01*
X110262811Y-92454698D01*
X110573880Y-91989151D01*
X110683113Y-91440000D01*
X110573880Y-90890849D01*
X110262811Y-90425302D01*
X109880725Y-90170000D01*
X110262811Y-89914698D01*
X110573880Y-89449151D01*
X110683113Y-88900000D01*
X110573880Y-88350849D01*
X110262811Y-87885302D01*
X109880725Y-87630000D01*
X110262811Y-87374698D01*
X110573880Y-86909151D01*
X110683113Y-86360000D01*
X110573880Y-85810849D01*
X110262811Y-85345302D01*
X109880725Y-85090000D01*
X110262811Y-84834698D01*
X110573880Y-84369151D01*
X110683113Y-83820000D01*
X110682595Y-83817397D01*
X122652599Y-95787401D01*
X122899160Y-95952148D01*
X122947414Y-95961746D01*
X123101821Y-95992460D01*
X122996887Y-96520000D01*
X123106120Y-97069151D01*
X123417189Y-97534698D01*
X123821703Y-97804986D01*
X123604866Y-97907611D01*
X123228959Y-98322577D01*
X123068096Y-98710961D01*
X123190085Y-98933000D01*
X124333000Y-98933000D01*
X124333000Y-98913000D01*
X124587000Y-98913000D01*
X124587000Y-98933000D01*
X125729915Y-98933000D01*
X125754127Y-98888929D01*
X137035000Y-110169802D01*
X137035000Y-114935000D01*
X137092852Y-115225839D01*
X137257599Y-115472401D01*
X140210000Y-118424802D01*
X140210000Y-120558332D01*
X139700000Y-120456887D01*
X139150849Y-120566120D01*
X138685302Y-120877189D01*
X138430000Y-121259275D01*
X138174698Y-120877189D01*
X137709151Y-120566120D01*
X137160000Y-120456887D01*
X136610849Y-120566120D01*
X136145302Y-120877189D01*
X135890000Y-121259275D01*
X135634698Y-120877189D01*
X135169151Y-120566120D01*
X134620000Y-120456887D01*
X134070849Y-120566120D01*
X133605302Y-120877189D01*
X133335014Y-121281703D01*
X133232389Y-121064866D01*
X132817423Y-120688959D01*
X132429039Y-120528096D01*
X132207000Y-120650085D01*
X132207000Y-121793000D01*
X132227000Y-121793000D01*
X132227000Y-122047000D01*
X132207000Y-122047000D01*
X132207000Y-123189915D01*
X132251071Y-123214127D01*
X125922595Y-129542603D01*
X125923113Y-129540000D01*
X125813880Y-128990849D01*
X125502811Y-128525302D01*
X125120725Y-128270000D01*
X125502811Y-128014698D01*
X125813880Y-127549151D01*
X125923113Y-127000000D01*
X125813880Y-126450849D01*
X125502811Y-125985302D01*
X125120725Y-125730000D01*
X125502811Y-125474698D01*
X125813880Y-125009151D01*
X125923113Y-124460000D01*
X125813880Y-123910849D01*
X125502811Y-123445302D01*
X125120725Y-123190000D01*
X125502811Y-122934698D01*
X125813880Y-122469151D01*
X125853684Y-122269041D01*
X130688086Y-122269041D01*
X130927611Y-122775134D01*
X131342577Y-123151041D01*
X131730961Y-123311904D01*
X131953000Y-123189915D01*
X131953000Y-122047000D01*
X130809371Y-122047000D01*
X130688086Y-122269041D01*
X125853684Y-122269041D01*
X125923113Y-121920000D01*
X125853685Y-121570959D01*
X130688086Y-121570959D01*
X130809371Y-121793000D01*
X131953000Y-121793000D01*
X131953000Y-120650085D01*
X131730961Y-120528096D01*
X131342577Y-120688959D01*
X130927611Y-121064866D01*
X130688086Y-121570959D01*
X125853685Y-121570959D01*
X125813880Y-121370849D01*
X125502811Y-120905302D01*
X125120725Y-120650000D01*
X125502811Y-120394698D01*
X125813880Y-119929151D01*
X125923113Y-119380000D01*
X125813880Y-118830849D01*
X125502811Y-118365302D01*
X125120725Y-118110000D01*
X125502811Y-117854698D01*
X125813880Y-117389151D01*
X125923113Y-116840000D01*
X125813880Y-116290849D01*
X125502811Y-115825302D01*
X125120725Y-115570000D01*
X125502811Y-115314698D01*
X125813880Y-114849151D01*
X125923113Y-114300000D01*
X125813880Y-113750849D01*
X125502811Y-113285302D01*
X125120725Y-113030000D01*
X125502811Y-112774698D01*
X125813880Y-112309151D01*
X125923113Y-111760000D01*
X125813880Y-111210849D01*
X125502811Y-110745302D01*
X125120725Y-110490000D01*
X125502811Y-110234698D01*
X125813880Y-109769151D01*
X125923113Y-109220000D01*
X125813880Y-108670849D01*
X125502811Y-108205302D01*
X125120725Y-107950000D01*
X125502811Y-107694698D01*
X125813880Y-107229151D01*
X125923113Y-106680000D01*
X125813880Y-106130849D01*
X125502811Y-105665302D01*
X125120725Y-105410000D01*
X125502811Y-105154698D01*
X125813880Y-104689151D01*
X125923113Y-104140000D01*
X125813880Y-103590849D01*
X125502811Y-103125302D01*
X125120725Y-102870000D01*
X125502811Y-102614698D01*
X125813880Y-102149151D01*
X125923113Y-101600000D01*
X125813880Y-101050849D01*
X125502811Y-100585302D01*
X125098297Y-100315014D01*
X125315134Y-100212389D01*
X125691041Y-99797423D01*
X125851904Y-99409039D01*
X125729915Y-99187000D01*
X124587000Y-99187000D01*
X124587000Y-99207000D01*
X124333000Y-99207000D01*
X124333000Y-99187000D01*
X123190085Y-99187000D01*
X123068096Y-99409039D01*
X123228959Y-99797423D01*
X123604866Y-100212389D01*
X123821703Y-100315014D01*
X123417189Y-100585302D01*
X123106120Y-101050849D01*
X122996887Y-101600000D01*
X123106120Y-102149151D01*
X123417189Y-102614698D01*
X123799275Y-102870000D01*
X123417189Y-103125302D01*
X123106120Y-103590849D01*
X122996887Y-104140000D01*
X123106120Y-104689151D01*
X123417189Y-105154698D01*
X123799275Y-105410000D01*
X123417189Y-105665302D01*
X123106120Y-106130849D01*
X122996887Y-106680000D01*
X123106120Y-107229151D01*
X123417189Y-107694698D01*
X123799275Y-107950000D01*
X123417189Y-108205302D01*
X123106120Y-108670849D01*
X122996887Y-109220000D01*
X123106120Y-109769151D01*
X123417189Y-110234698D01*
X123799275Y-110490000D01*
X123417189Y-110745302D01*
X123106120Y-111210849D01*
X122996887Y-111760000D01*
X123106120Y-112309151D01*
X123417189Y-112774698D01*
X123799275Y-113030000D01*
X123417189Y-113285302D01*
X123106120Y-113750849D01*
X122996887Y-114300000D01*
X123106120Y-114849151D01*
X123417189Y-115314698D01*
X123799275Y-115570000D01*
X123417189Y-115825302D01*
X123106120Y-116290849D01*
X122996887Y-116840000D01*
X123106120Y-117389151D01*
X123417189Y-117854698D01*
X123799275Y-118110000D01*
X123417189Y-118365302D01*
X123106120Y-118830849D01*
X122996887Y-119380000D01*
X123106120Y-119929151D01*
X123417189Y-120394698D01*
X123799275Y-120650000D01*
X123417189Y-120905302D01*
X123106120Y-121370849D01*
X122996887Y-121920000D01*
X123106120Y-122469151D01*
X123417189Y-122934698D01*
X123799275Y-123190000D01*
X123417189Y-123445302D01*
X123106120Y-123910849D01*
X122996887Y-124460000D01*
X123106120Y-125009151D01*
X123417189Y-125474698D01*
X123799275Y-125730000D01*
X123417189Y-125985302D01*
X123106120Y-126450849D01*
X122996887Y-127000000D01*
X123106120Y-127549151D01*
X123417189Y-128014698D01*
X123799275Y-128270000D01*
X123417189Y-128525302D01*
X123106120Y-128990849D01*
X122996887Y-129540000D01*
X123106120Y-130089151D01*
X123417189Y-130554698D01*
X123882736Y-130865767D01*
X124431887Y-130975000D01*
X124488113Y-130975000D01*
X124490716Y-130974482D01*
X121382599Y-134082599D01*
X121217852Y-134329161D01*
X121160000Y-134620000D01*
X121160000Y-138502537D01*
X121127808Y-138534673D01*
X120985162Y-138878201D01*
X120984838Y-139250167D01*
X121055755Y-139421799D01*
X120922683Y-139446838D01*
X120706559Y-139585910D01*
X120650626Y-139667770D01*
X120606090Y-139598559D01*
X120393890Y-139453569D01*
X120243686Y-139423152D01*
X120314838Y-139251799D01*
X120315162Y-138879833D01*
X120173117Y-138536057D01*
X120140000Y-138502882D01*
X120140000Y-126292463D01*
X120172192Y-126260327D01*
X120314838Y-125916799D01*
X120315162Y-125544833D01*
X120173117Y-125201057D01*
X119910327Y-124937808D01*
X119566799Y-124795162D01*
X119194833Y-124794838D01*
X118851057Y-124936883D01*
X118587808Y-125199673D01*
X118445162Y-125543201D01*
X118444838Y-125915167D01*
X118586883Y-126258943D01*
X118620000Y-126292118D01*
X118620000Y-138502537D01*
X118587808Y-138534673D01*
X118445162Y-138878201D01*
X118444838Y-139250167D01*
X118515755Y-139421799D01*
X118382683Y-139446838D01*
X118166559Y-139585910D01*
X118110626Y-139667770D01*
X118066090Y-139598559D01*
X117853890Y-139453569D01*
X117602000Y-139402560D01*
X116078000Y-139402560D01*
X115842683Y-139446838D01*
X115626559Y-139585910D01*
X115573537Y-139663511D01*
X115421698Y-139511673D01*
X115188309Y-139415000D01*
X114585750Y-139415000D01*
X114427000Y-139573750D01*
X114427000Y-145923000D01*
X114447000Y-145923000D01*
X114447000Y-146177000D01*
X114427000Y-146177000D01*
X114427000Y-146197000D01*
X114173000Y-146197000D01*
X114173000Y-146177000D01*
X113061750Y-146177000D01*
X113030000Y-146208750D01*
X112998250Y-146177000D01*
X111887000Y-146177000D01*
X111887000Y-146197000D01*
X111633000Y-146197000D01*
X111633000Y-146177000D01*
X111613000Y-146177000D01*
X111613000Y-145923000D01*
X111633000Y-145923000D01*
X111633000Y-139573750D01*
X111887000Y-139573750D01*
X111887000Y-145923000D01*
X112998250Y-145923000D01*
X113030000Y-145891250D01*
X113061750Y-145923000D01*
X114173000Y-145923000D01*
X114173000Y-139573750D01*
X114014250Y-139415000D01*
X113411691Y-139415000D01*
X113178302Y-139511673D01*
X113030000Y-139659974D01*
X112881698Y-139511673D01*
X112648309Y-139415000D01*
X112045750Y-139415000D01*
X111887000Y-139573750D01*
X111633000Y-139573750D01*
X111474250Y-139415000D01*
X110871691Y-139415000D01*
X110638302Y-139511673D01*
X110487329Y-139662646D01*
X110446090Y-139598559D01*
X110233890Y-139453569D01*
X109982000Y-139402560D01*
X108458000Y-139402560D01*
X108222683Y-139446838D01*
X108006559Y-139585910D01*
X107950626Y-139667770D01*
X107906090Y-139598559D01*
X107693890Y-139453569D01*
X107442000Y-139402560D01*
X105918000Y-139402560D01*
X105682683Y-139446838D01*
X105466559Y-139585910D01*
X105321569Y-139798110D01*
X105270560Y-140050000D01*
X105270560Y-141098620D01*
X105046705Y-140949046D01*
X104775000Y-140895000D01*
X102304931Y-140895000D01*
X102026019Y-140839521D01*
X101848856Y-140721145D01*
X101730478Y-140543979D01*
X101675000Y-140265070D01*
X101675000Y-71444187D01*
X107784752Y-71444187D01*
X108002757Y-71971800D01*
X108406077Y-72375824D01*
X108487931Y-72409813D01*
X108408200Y-72442757D01*
X108004176Y-72846077D01*
X107785250Y-73373309D01*
X107784752Y-73944187D01*
X108002757Y-74471800D01*
X108406077Y-74875824D01*
X108933309Y-75094750D01*
X109504187Y-75095248D01*
X110031800Y-74877243D01*
X110435824Y-74473923D01*
X110654750Y-73946691D01*
X110655248Y-73375813D01*
X110437243Y-72848200D01*
X110253649Y-72664285D01*
X112914760Y-72664285D01*
X113125169Y-73173515D01*
X113514436Y-73563461D01*
X114023298Y-73774759D01*
X114574285Y-73775240D01*
X115083515Y-73564831D01*
X115473461Y-73175564D01*
X115684759Y-72666702D01*
X115685240Y-72115715D01*
X115474831Y-71606485D01*
X115085564Y-71216539D01*
X114576702Y-71005241D01*
X114025715Y-71004760D01*
X113516485Y-71215169D01*
X113126539Y-71604436D01*
X112915241Y-72113298D01*
X112914760Y-72664285D01*
X110253649Y-72664285D01*
X110033923Y-72444176D01*
X109952069Y-72410187D01*
X110031800Y-72377243D01*
X110435824Y-71973923D01*
X110654750Y-71446691D01*
X110655248Y-70875813D01*
X110437243Y-70348200D01*
X110033923Y-69944176D01*
X109506691Y-69725250D01*
X108935813Y-69724752D01*
X108408200Y-69942757D01*
X108004176Y-70346077D01*
X107785250Y-70873309D01*
X107784752Y-71444187D01*
X101675000Y-71444187D01*
X101675000Y-59355275D01*
X111004331Y-59355275D01*
X111066169Y-59591042D01*
X111567122Y-59767419D01*
X112097440Y-59738664D01*
X112453831Y-59591042D01*
X112515669Y-59355275D01*
X111760000Y-58599605D01*
X111004331Y-59355275D01*
X101675000Y-59355275D01*
X101675000Y-58227122D01*
X110412581Y-58227122D01*
X110441336Y-58757440D01*
X110588958Y-59113831D01*
X110824725Y-59175669D01*
X111580395Y-58420000D01*
X110824725Y-57664331D01*
X110588958Y-57726169D01*
X110412581Y-58227122D01*
X101675000Y-58227122D01*
X101675000Y-57484725D01*
X111004331Y-57484725D01*
X111760000Y-58240395D01*
X112515669Y-57484725D01*
X112453831Y-57248958D01*
X111952878Y-57072581D01*
X111422560Y-57101336D01*
X111066169Y-57248958D01*
X111004331Y-57484725D01*
X101675000Y-57484725D01*
X101675000Y-53409930D01*
X101730478Y-53131021D01*
X101848856Y-52953855D01*
X102026019Y-52835479D01*
X102304931Y-52780000D01*
X146610000Y-52780000D01*
X146610000Y-53975000D01*
X146610000Y-53975000D01*
G37*
X146610000Y-53975000D02*
X146664046Y-54246705D01*
X146817954Y-54477046D01*
X147048295Y-54630954D01*
X147320000Y-54685000D01*
X150658282Y-54685000D01*
X150600094Y-54723880D01*
X150245671Y-55254313D01*
X150121214Y-55880000D01*
X150245671Y-56505687D01*
X150600094Y-57036120D01*
X151130527Y-57390543D01*
X151756214Y-57515000D01*
X153043786Y-57515000D01*
X153669473Y-57390543D01*
X154199906Y-57036120D01*
X154554329Y-56505687D01*
X154678786Y-55880000D01*
X154554329Y-55254313D01*
X154199906Y-54723880D01*
X154141718Y-54685000D01*
X157480000Y-54685000D01*
X157751705Y-54630954D01*
X157982046Y-54477046D01*
X158135954Y-54246705D01*
X158190000Y-53975000D01*
X158190000Y-52780000D01*
X199955070Y-52780000D01*
X200233979Y-52835478D01*
X200411145Y-52953856D01*
X200529521Y-53131019D01*
X200585000Y-53409931D01*
X200585000Y-140265069D01*
X200529521Y-140543981D01*
X200411145Y-140721144D01*
X200233979Y-140839522D01*
X199955070Y-140895000D01*
X197485000Y-140895000D01*
X197213295Y-140949046D01*
X196989440Y-141098620D01*
X196989440Y-140050000D01*
X196945162Y-139814683D01*
X196806090Y-139598559D01*
X196593890Y-139453569D01*
X196342000Y-139402560D01*
X194818000Y-139402560D01*
X194582683Y-139446838D01*
X194366559Y-139585910D01*
X194310626Y-139667770D01*
X194266090Y-139598559D01*
X194053890Y-139453569D01*
X193802000Y-139402560D01*
X192278000Y-139402560D01*
X192042683Y-139446838D01*
X191826559Y-139585910D01*
X191770626Y-139667770D01*
X191726090Y-139598559D01*
X191513890Y-139453569D01*
X191262000Y-139402560D01*
X189738000Y-139402560D01*
X189502683Y-139446838D01*
X189286559Y-139585910D01*
X189230626Y-139667770D01*
X189186090Y-139598559D01*
X188973890Y-139453569D01*
X188722000Y-139402560D01*
X187198000Y-139402560D01*
X186962683Y-139446838D01*
X186746559Y-139585910D01*
X186690626Y-139667770D01*
X186646090Y-139598559D01*
X186433890Y-139453569D01*
X186182000Y-139402560D01*
X184658000Y-139402560D01*
X184422683Y-139446838D01*
X184206559Y-139585910D01*
X184150626Y-139667770D01*
X184106090Y-139598559D01*
X183893890Y-139453569D01*
X183642000Y-139402560D01*
X182118000Y-139402560D01*
X181882683Y-139446838D01*
X181666559Y-139585910D01*
X181610626Y-139667770D01*
X181566090Y-139598559D01*
X181353890Y-139453569D01*
X181102000Y-139402560D01*
X179578000Y-139402560D01*
X179342683Y-139446838D01*
X179126559Y-139585910D01*
X179070626Y-139667770D01*
X179026090Y-139598559D01*
X178813890Y-139453569D01*
X178562000Y-139402560D01*
X177038000Y-139402560D01*
X176802683Y-139446838D01*
X176586559Y-139585910D01*
X176530626Y-139667770D01*
X176486090Y-139598559D01*
X176273890Y-139453569D01*
X176022000Y-139402560D01*
X174498000Y-139402560D01*
X174262683Y-139446838D01*
X174046559Y-139585910D01*
X173990626Y-139667770D01*
X173946090Y-139598559D01*
X173733890Y-139453569D01*
X173482000Y-139402560D01*
X171958000Y-139402560D01*
X171722683Y-139446838D01*
X171506559Y-139585910D01*
X171450626Y-139667770D01*
X171406090Y-139598559D01*
X171193890Y-139453569D01*
X170942000Y-139402560D01*
X169418000Y-139402560D01*
X169182683Y-139446838D01*
X168966559Y-139585910D01*
X168910626Y-139667770D01*
X168866090Y-139598559D01*
X168653890Y-139453569D01*
X168402000Y-139402560D01*
X166878000Y-139402560D01*
X166642683Y-139446838D01*
X166426559Y-139585910D01*
X166370626Y-139667770D01*
X166326090Y-139598559D01*
X166113890Y-139453569D01*
X165862000Y-139402560D01*
X165860000Y-139402560D01*
X165860000Y-139379802D01*
X173034802Y-132205000D01*
X178435000Y-132205000D01*
X178725839Y-132147148D01*
X178972401Y-131982401D01*
X179967362Y-130987440D01*
X181140000Y-130987440D01*
X181314755Y-130954557D01*
X181707599Y-131347401D01*
X181954161Y-131512148D01*
X182245000Y-131570000D01*
X189230000Y-131570000D01*
X189520839Y-131512148D01*
X189767401Y-131347401D01*
X190176114Y-130938688D01*
X190500000Y-131003113D01*
X191049151Y-130893880D01*
X191514698Y-130582811D01*
X191770000Y-130200725D01*
X192025302Y-130582811D01*
X192490849Y-130893880D01*
X193040000Y-131003113D01*
X193589151Y-130893880D01*
X194054698Y-130582811D01*
X194310000Y-130200725D01*
X194565302Y-130582811D01*
X195030849Y-130893880D01*
X195580000Y-131003113D01*
X196129151Y-130893880D01*
X196594698Y-130582811D01*
X196854240Y-130194380D01*
X196902757Y-130311800D01*
X197306077Y-130715824D01*
X197833309Y-130934750D01*
X198404187Y-130935248D01*
X198931800Y-130717243D01*
X199335824Y-130313923D01*
X199554750Y-129786691D01*
X199555248Y-129215813D01*
X199337243Y-128688200D01*
X198933923Y-128284176D01*
X198867456Y-128256577D01*
X198874005Y-128253864D01*
X198948139Y-128007745D01*
X198120000Y-127179605D01*
X197291861Y-128007745D01*
X197365995Y-128253864D01*
X197372483Y-128256196D01*
X197308200Y-128282757D01*
X196904176Y-128686077D01*
X196833936Y-128855234D01*
X196594698Y-128497189D01*
X196129151Y-128186120D01*
X195580000Y-128076887D01*
X195030849Y-128186120D01*
X194565302Y-128497189D01*
X194310000Y-128879275D01*
X194054698Y-128497189D01*
X193589151Y-128186120D01*
X193040000Y-128076887D01*
X192490849Y-128186120D01*
X192025302Y-128497189D01*
X191770000Y-128879275D01*
X191514698Y-128497189D01*
X191049151Y-128186120D01*
X190500000Y-128076887D01*
X189950849Y-128186120D01*
X189485302Y-128497189D01*
X189230000Y-128879275D01*
X188974698Y-128497189D01*
X188509151Y-128186120D01*
X187960000Y-128076887D01*
X187410849Y-128186120D01*
X186945302Y-128497189D01*
X186690000Y-128879275D01*
X186434698Y-128497189D01*
X185969151Y-128186120D01*
X185420000Y-128076887D01*
X185096114Y-128141312D01*
X183738025Y-126783223D01*
X196673035Y-126783223D01*
X196700222Y-127353454D01*
X196866136Y-127754005D01*
X197112255Y-127828139D01*
X197940395Y-127000000D01*
X198299605Y-127000000D01*
X199127745Y-127828139D01*
X199373864Y-127754005D01*
X199566965Y-127216777D01*
X199539778Y-126646546D01*
X199373864Y-126245995D01*
X199127745Y-126171861D01*
X198299605Y-127000000D01*
X197940395Y-127000000D01*
X197112255Y-126171861D01*
X196866136Y-126245995D01*
X196673035Y-126783223D01*
X183738025Y-126783223D01*
X182947057Y-125992255D01*
X197291861Y-125992255D01*
X198120000Y-126820395D01*
X198948139Y-125992255D01*
X198874005Y-125746136D01*
X198336777Y-125553035D01*
X197766546Y-125580222D01*
X197365995Y-125746136D01*
X197291861Y-125992255D01*
X182947057Y-125992255D01*
X180168929Y-123214127D01*
X180213000Y-123189915D01*
X180213000Y-122047000D01*
X179069371Y-122047000D01*
X179045501Y-122090699D01*
X178525761Y-121570959D01*
X178948086Y-121570959D01*
X179069371Y-121793000D01*
X180213000Y-121793000D01*
X180213000Y-120650085D01*
X180467000Y-120650085D01*
X180467000Y-121793000D01*
X180487000Y-121793000D01*
X180487000Y-122047000D01*
X180467000Y-122047000D01*
X180467000Y-123189915D01*
X180689039Y-123311904D01*
X181077423Y-123151041D01*
X181492389Y-122775134D01*
X181595014Y-122558297D01*
X181865302Y-122962811D01*
X182330849Y-123273880D01*
X182880000Y-123383113D01*
X183429151Y-123273880D01*
X183894698Y-122962811D01*
X184150000Y-122580725D01*
X184405302Y-122962811D01*
X184870849Y-123273880D01*
X185420000Y-123383113D01*
X185969151Y-123273880D01*
X186434698Y-122962811D01*
X186690000Y-122580725D01*
X186945302Y-122962811D01*
X187410849Y-123273880D01*
X187960000Y-123383113D01*
X188509151Y-123273880D01*
X188974698Y-122962811D01*
X189230000Y-122580725D01*
X189485302Y-122962811D01*
X189950849Y-123273880D01*
X190500000Y-123383113D01*
X191049151Y-123273880D01*
X191514698Y-122962811D01*
X191770000Y-122580725D01*
X192025302Y-122962811D01*
X192490849Y-123273880D01*
X193040000Y-123383113D01*
X193589151Y-123273880D01*
X194054698Y-122962811D01*
X194310000Y-122580725D01*
X194565302Y-122962811D01*
X195030849Y-123273880D01*
X195580000Y-123383113D01*
X196129151Y-123273880D01*
X196594698Y-122962811D01*
X196905767Y-122497264D01*
X197015000Y-121948113D01*
X197015000Y-121891887D01*
X196905767Y-121342736D01*
X196594698Y-120877189D01*
X196129151Y-120566120D01*
X195580000Y-120456887D01*
X195030849Y-120566120D01*
X194565302Y-120877189D01*
X194310000Y-121259275D01*
X194054698Y-120877189D01*
X193589151Y-120566120D01*
X193040000Y-120456887D01*
X192490849Y-120566120D01*
X192025302Y-120877189D01*
X191770000Y-121259275D01*
X191514698Y-120877189D01*
X191049151Y-120566120D01*
X190500000Y-120456887D01*
X189950849Y-120566120D01*
X189485302Y-120877189D01*
X189230000Y-121259275D01*
X188974698Y-120877189D01*
X188509151Y-120566120D01*
X187960000Y-120456887D01*
X187410849Y-120566120D01*
X186945302Y-120877189D01*
X186690000Y-121259275D01*
X186434698Y-120877189D01*
X185969151Y-120566120D01*
X185420000Y-120456887D01*
X184870849Y-120566120D01*
X184405302Y-120877189D01*
X184150000Y-121259275D01*
X183894698Y-120877189D01*
X183429151Y-120566120D01*
X182880000Y-120456887D01*
X182330849Y-120566120D01*
X181865302Y-120877189D01*
X181595014Y-121281703D01*
X181492389Y-121064866D01*
X181077423Y-120688959D01*
X180689039Y-120528096D01*
X180467000Y-120650085D01*
X180213000Y-120650085D01*
X179990961Y-120528096D01*
X179602577Y-120688959D01*
X179187611Y-121064866D01*
X178948086Y-121570959D01*
X178525761Y-121570959D01*
X177465122Y-120510320D01*
X177465162Y-120464833D01*
X177323117Y-120121057D01*
X177060327Y-119857808D01*
X176716799Y-119715162D01*
X176344833Y-119714838D01*
X176001057Y-119856883D01*
X175737808Y-120119673D01*
X175595162Y-120463201D01*
X175594838Y-120835167D01*
X175736883Y-121178943D01*
X175999673Y-121442192D01*
X176343201Y-121584838D01*
X176390077Y-121584879D01*
X182882603Y-128077405D01*
X182880000Y-128076887D01*
X182352460Y-128181821D01*
X182312148Y-127979161D01*
X182147401Y-127732599D01*
X181512401Y-127097599D01*
X181265839Y-126932852D01*
X180975000Y-126875000D01*
X179705000Y-126875000D01*
X179414161Y-126932852D01*
X179167599Y-127097599D01*
X176215198Y-130050000D01*
X174059147Y-130050000D01*
X174155000Y-129568113D01*
X174155000Y-129511887D01*
X174045767Y-128962736D01*
X173734698Y-128497189D01*
X173269151Y-128186120D01*
X172720000Y-128076887D01*
X172717397Y-128077405D01*
X174527401Y-126267401D01*
X174692148Y-126020839D01*
X174750000Y-125730000D01*
X174750000Y-119380000D01*
X174692148Y-119089161D01*
X174527401Y-118842599D01*
X165860000Y-110175198D01*
X165860000Y-99860633D01*
X166183201Y-99994838D01*
X166555167Y-99995162D01*
X166898943Y-99853117D01*
X167162192Y-99590327D01*
X167304838Y-99246799D01*
X167305162Y-98874833D01*
X167255000Y-98753431D01*
X167255000Y-87630005D01*
X167255001Y-87630000D01*
X167187633Y-87291326D01*
X167187633Y-87291325D01*
X166995790Y-87004210D01*
X166995787Y-87004208D01*
X163969233Y-83977653D01*
X163995000Y-83848113D01*
X163995000Y-83791887D01*
X163885767Y-83242736D01*
X163574698Y-82777189D01*
X163109151Y-82466120D01*
X162560000Y-82356887D01*
X162050000Y-82458332D01*
X162050000Y-79560167D01*
X174324838Y-79560167D01*
X174466883Y-79903943D01*
X174500000Y-79937118D01*
X174500000Y-89607537D01*
X174467808Y-89639673D01*
X174325162Y-89983201D01*
X174324838Y-90355167D01*
X174466883Y-90698943D01*
X174729673Y-90962192D01*
X175073201Y-91104838D01*
X175445167Y-91105162D01*
X175788943Y-90963117D01*
X176052192Y-90700327D01*
X176194838Y-90356799D01*
X176195162Y-89984833D01*
X176053117Y-89641057D01*
X176020000Y-89607882D01*
X176020000Y-88430633D01*
X176343201Y-88564838D01*
X176715167Y-88565162D01*
X177058943Y-88423117D01*
X177322192Y-88160327D01*
X177464838Y-87816799D01*
X177465162Y-87444833D01*
X177323117Y-87101057D01*
X177290000Y-87067882D01*
X177290000Y-85890633D01*
X177613201Y-86024838D01*
X177985167Y-86025162D01*
X178328943Y-85883117D01*
X178592192Y-85620327D01*
X178734838Y-85276799D01*
X178735162Y-84904833D01*
X178593117Y-84561057D01*
X178560000Y-84527882D01*
X178560000Y-81842463D01*
X178592192Y-81810327D01*
X178734838Y-81466799D01*
X178735162Y-81094833D01*
X178593117Y-80751057D01*
X178330327Y-80487808D01*
X177986799Y-80345162D01*
X177614833Y-80344838D01*
X177446403Y-80414432D01*
X177323117Y-80116057D01*
X177060327Y-79852808D01*
X176716799Y-79710162D01*
X176344833Y-79709838D01*
X176089570Y-79815310D01*
X176194838Y-79561799D01*
X176195162Y-79189833D01*
X176053117Y-78846057D01*
X175947245Y-78740000D01*
X178876887Y-78740000D01*
X178986120Y-79289151D01*
X179297189Y-79754698D01*
X179679275Y-80010000D01*
X179297189Y-80265302D01*
X178986120Y-80730849D01*
X178876887Y-81280000D01*
X178986120Y-81829151D01*
X179297189Y-82294698D01*
X179679275Y-82550000D01*
X179297189Y-82805302D01*
X178986120Y-83270849D01*
X178876887Y-83820000D01*
X178986120Y-84369151D01*
X179297189Y-84834698D01*
X179679275Y-85090000D01*
X179297189Y-85345302D01*
X178986120Y-85810849D01*
X178876887Y-86360000D01*
X178986120Y-86909151D01*
X179297189Y-87374698D01*
X179679275Y-87630000D01*
X179297189Y-87885302D01*
X178986120Y-88350849D01*
X178876887Y-88900000D01*
X178986120Y-89449151D01*
X179297189Y-89914698D01*
X179679275Y-90170000D01*
X179297189Y-90425302D01*
X178986120Y-90890849D01*
X178876887Y-91440000D01*
X178986120Y-91989151D01*
X179297189Y-92454698D01*
X179679275Y-92710000D01*
X179297189Y-92965302D01*
X178986120Y-93430849D01*
X178876887Y-93980000D01*
X178986120Y-94529151D01*
X179297189Y-94994698D01*
X179679275Y-95250000D01*
X179297189Y-95505302D01*
X178986120Y-95970849D01*
X178876887Y-96520000D01*
X178986120Y-97069151D01*
X179297189Y-97534698D01*
X179679275Y-97790000D01*
X179297189Y-98045302D01*
X178986120Y-98510849D01*
X178876887Y-99060000D01*
X178986120Y-99609151D01*
X179297189Y-100074698D01*
X179679275Y-100330000D01*
X179297189Y-100585302D01*
X178986120Y-101050849D01*
X178876887Y-101600000D01*
X178986120Y-102149151D01*
X179297189Y-102614698D01*
X179679275Y-102870000D01*
X179297189Y-103125302D01*
X178986120Y-103590849D01*
X178876887Y-104140000D01*
X178986120Y-104689151D01*
X179297189Y-105154698D01*
X179679275Y-105410000D01*
X179297189Y-105665302D01*
X178986120Y-106130849D01*
X178876887Y-106680000D01*
X178986120Y-107229151D01*
X179297189Y-107694698D01*
X179679275Y-107950000D01*
X179297189Y-108205302D01*
X178986120Y-108670849D01*
X178876887Y-109220000D01*
X178986120Y-109769151D01*
X179297189Y-110234698D01*
X179762736Y-110545767D01*
X180311887Y-110655000D01*
X180368113Y-110655000D01*
X180917264Y-110545767D01*
X181382811Y-110234698D01*
X181469473Y-110105000D01*
X181609995Y-110105000D01*
X181610000Y-110105001D01*
X181892484Y-110048810D01*
X181948675Y-110037633D01*
X182235790Y-109845790D01*
X182235791Y-109845789D01*
X194542999Y-97538580D01*
X194919275Y-97790000D01*
X194537189Y-98045302D01*
X194226120Y-98510849D01*
X194116887Y-99060000D01*
X194226120Y-99609151D01*
X194537189Y-100074698D01*
X194919275Y-100330000D01*
X194537189Y-100585302D01*
X194226120Y-101050849D01*
X194116887Y-101600000D01*
X194226120Y-102149151D01*
X194537189Y-102614698D01*
X194919275Y-102870000D01*
X194537189Y-103125302D01*
X194226120Y-103590849D01*
X194116887Y-104140000D01*
X194226120Y-104689151D01*
X194537189Y-105154698D01*
X194919275Y-105410000D01*
X194537189Y-105665302D01*
X194226120Y-106130849D01*
X194116887Y-106680000D01*
X194226120Y-107229151D01*
X194537189Y-107694698D01*
X194919275Y-107950000D01*
X194537189Y-108205302D01*
X194226120Y-108670849D01*
X194116887Y-109220000D01*
X194226120Y-109769151D01*
X194537189Y-110234698D01*
X195002736Y-110545767D01*
X195551887Y-110655000D01*
X195608113Y-110655000D01*
X196157264Y-110545767D01*
X196622811Y-110234698D01*
X196933880Y-109769151D01*
X197043113Y-109220000D01*
X196933880Y-108670849D01*
X196622811Y-108205302D01*
X196240725Y-107950000D01*
X196622811Y-107694698D01*
X196933880Y-107229151D01*
X197043113Y-106680000D01*
X196933880Y-106130849D01*
X196622811Y-105665302D01*
X196240725Y-105410000D01*
X196622811Y-105154698D01*
X196933880Y-104689151D01*
X197043113Y-104140000D01*
X196933880Y-103590849D01*
X196622811Y-103125302D01*
X196240725Y-102870000D01*
X196622811Y-102614698D01*
X196933880Y-102149151D01*
X197043113Y-101600000D01*
X196933880Y-101050849D01*
X196622811Y-100585302D01*
X196240725Y-100330000D01*
X196622811Y-100074698D01*
X196933880Y-99609151D01*
X197043113Y-99060000D01*
X196933880Y-98510849D01*
X196622811Y-98045302D01*
X196240725Y-97790000D01*
X196622811Y-97534698D01*
X196933880Y-97069151D01*
X197043113Y-96520000D01*
X196933880Y-95970849D01*
X196622811Y-95505302D01*
X196240725Y-95250000D01*
X196622811Y-94994698D01*
X196933880Y-94529151D01*
X197043113Y-93980000D01*
X196933880Y-93430849D01*
X196622811Y-92965302D01*
X196240725Y-92710000D01*
X196622811Y-92454698D01*
X196933880Y-91989151D01*
X197043113Y-91440000D01*
X196933880Y-90890849D01*
X196622811Y-90425302D01*
X196240725Y-90170000D01*
X196622811Y-89914698D01*
X196933880Y-89449151D01*
X197043113Y-88900000D01*
X196933880Y-88350849D01*
X196622811Y-87885302D01*
X196240725Y-87630000D01*
X196622811Y-87374698D01*
X196933880Y-86909151D01*
X197043113Y-86360000D01*
X196933880Y-85810849D01*
X196622811Y-85345302D01*
X196240725Y-85090000D01*
X196622811Y-84834698D01*
X196933880Y-84369151D01*
X197043113Y-83820000D01*
X196933880Y-83270849D01*
X196622811Y-82805302D01*
X196240725Y-82550000D01*
X196622811Y-82294698D01*
X196933880Y-81829151D01*
X197043113Y-81280000D01*
X196933880Y-80730849D01*
X196622811Y-80265302D01*
X196240725Y-80010000D01*
X196622811Y-79754698D01*
X196933880Y-79289151D01*
X197043113Y-78740000D01*
X196933880Y-78190849D01*
X196622811Y-77725302D01*
X196218297Y-77455014D01*
X196435134Y-77352389D01*
X196811041Y-76937423D01*
X196971904Y-76549039D01*
X196849915Y-76327000D01*
X195707000Y-76327000D01*
X195707000Y-76347000D01*
X195453000Y-76347000D01*
X195453000Y-76327000D01*
X194310085Y-76327000D01*
X194188096Y-76549039D01*
X194348959Y-76937423D01*
X194724866Y-77352389D01*
X194941703Y-77455014D01*
X194537189Y-77725302D01*
X194226120Y-78190849D01*
X194116887Y-78740000D01*
X194226120Y-79289151D01*
X194537189Y-79754698D01*
X194919275Y-80010000D01*
X194537189Y-80265302D01*
X194226120Y-80730849D01*
X194116887Y-81280000D01*
X194226120Y-81829151D01*
X194537189Y-82294698D01*
X194919275Y-82550000D01*
X194537189Y-82805302D01*
X194226120Y-83270849D01*
X194116887Y-83820000D01*
X194226120Y-84369151D01*
X194537189Y-84834698D01*
X194919275Y-85090000D01*
X194537189Y-85345302D01*
X194226120Y-85810849D01*
X194116887Y-86360000D01*
X194226120Y-86909151D01*
X194537189Y-87374698D01*
X194919275Y-87630000D01*
X194537189Y-87885302D01*
X194226120Y-88350849D01*
X194116887Y-88900000D01*
X194226120Y-89449151D01*
X194537189Y-89914698D01*
X194919275Y-90170000D01*
X194537189Y-90425302D01*
X194226120Y-90890849D01*
X194116887Y-91440000D01*
X194226120Y-91989151D01*
X194537189Y-92454698D01*
X194919275Y-92710000D01*
X194537189Y-92965302D01*
X194226120Y-93430849D01*
X194116887Y-93980000D01*
X194226120Y-94529151D01*
X194537189Y-94994698D01*
X194919275Y-95250000D01*
X194542999Y-95501420D01*
X193925679Y-94884099D01*
X193960941Y-75850961D01*
X194188096Y-75850961D01*
X194310085Y-76073000D01*
X195453000Y-76073000D01*
X195453000Y-76053000D01*
X195707000Y-76053000D01*
X195707000Y-76073000D01*
X196849915Y-76073000D01*
X196971904Y-75850961D01*
X196811041Y-75462577D01*
X196435134Y-75047611D01*
X196237234Y-74953948D01*
X196334005Y-74913864D01*
X196408139Y-74667745D01*
X195580000Y-73839605D01*
X194751861Y-74667745D01*
X194825995Y-74913864D01*
X194929132Y-74950935D01*
X194724866Y-75047611D01*
X194348959Y-75462577D01*
X194188096Y-75850961D01*
X193960941Y-75850961D01*
X193962877Y-74806290D01*
X194295824Y-74473923D01*
X194323423Y-74407456D01*
X194326136Y-74414005D01*
X194572255Y-74488139D01*
X195400395Y-73660000D01*
X195759605Y-73660000D01*
X196587745Y-74488139D01*
X196833864Y-74414005D01*
X197026965Y-73876777D01*
X196999778Y-73306546D01*
X196833864Y-72905995D01*
X196587745Y-72831861D01*
X195759605Y-73660000D01*
X195400395Y-73660000D01*
X194572255Y-72831861D01*
X194326136Y-72905995D01*
X194323804Y-72912483D01*
X194297243Y-72848200D01*
X194101640Y-72652255D01*
X194751861Y-72652255D01*
X195580000Y-73480395D01*
X196408139Y-72652255D01*
X196334005Y-72406136D01*
X195796777Y-72213035D01*
X195226546Y-72240222D01*
X194825995Y-72406136D01*
X194751861Y-72652255D01*
X194101640Y-72652255D01*
X193893923Y-72444176D01*
X193366691Y-72225250D01*
X192795813Y-72224752D01*
X192268200Y-72442757D01*
X191864176Y-72846077D01*
X191645250Y-73373309D01*
X191644752Y-73944187D01*
X191862757Y-74471800D01*
X192192882Y-74802501D01*
X192155300Y-95087397D01*
X192114999Y-95290000D01*
X192182367Y-95628674D01*
X192374210Y-95915790D01*
X192615300Y-96076879D01*
X193058421Y-96520000D01*
X181377000Y-108201420D01*
X181000725Y-107950000D01*
X181382811Y-107694698D01*
X181693880Y-107229151D01*
X181803113Y-106680000D01*
X181693880Y-106130849D01*
X181382811Y-105665302D01*
X181000725Y-105410000D01*
X181382811Y-105154698D01*
X181693880Y-104689151D01*
X181803113Y-104140000D01*
X181693880Y-103590849D01*
X181382811Y-103125302D01*
X181000725Y-102870000D01*
X181382811Y-102614698D01*
X181693880Y-102149151D01*
X181803113Y-101600000D01*
X181693880Y-101050849D01*
X181382811Y-100585302D01*
X181000725Y-100330000D01*
X181382811Y-100074698D01*
X181693880Y-99609151D01*
X181803113Y-99060000D01*
X181693880Y-98510849D01*
X181382811Y-98045302D01*
X181000725Y-97790000D01*
X181382811Y-97534698D01*
X181693880Y-97069151D01*
X181803113Y-96520000D01*
X181693880Y-95970849D01*
X181382811Y-95505302D01*
X181000725Y-95250000D01*
X181382811Y-94994698D01*
X181693880Y-94529151D01*
X181803113Y-93980000D01*
X181693880Y-93430849D01*
X181382811Y-92965302D01*
X181000725Y-92710000D01*
X181382811Y-92454698D01*
X181693880Y-91989151D01*
X181803113Y-91440000D01*
X181693880Y-90890849D01*
X181382811Y-90425302D01*
X181000725Y-90170000D01*
X181382811Y-89914698D01*
X181693880Y-89449151D01*
X181803113Y-88900000D01*
X181693880Y-88350849D01*
X181382811Y-87885302D01*
X181000725Y-87630000D01*
X181382811Y-87374698D01*
X181693880Y-86909151D01*
X181803113Y-86360000D01*
X181693880Y-85810849D01*
X181382811Y-85345302D01*
X181000725Y-85090000D01*
X181382811Y-84834698D01*
X181693880Y-84369151D01*
X181803113Y-83820000D01*
X181693880Y-83270849D01*
X181382811Y-82805302D01*
X181000725Y-82550000D01*
X181382811Y-82294698D01*
X181693880Y-81829151D01*
X181803113Y-81280000D01*
X181693880Y-80730849D01*
X181382811Y-80265302D01*
X181000725Y-80010000D01*
X181382811Y-79754698D01*
X181693880Y-79289151D01*
X181803113Y-78740000D01*
X181693880Y-78190849D01*
X181382811Y-77725302D01*
X181238535Y-77628899D01*
X181375317Y-77603162D01*
X181591441Y-77464090D01*
X181736431Y-77251890D01*
X181787440Y-77000000D01*
X181787440Y-75400000D01*
X181743162Y-75164683D01*
X181604090Y-74948559D01*
X181391890Y-74803569D01*
X181140000Y-74752560D01*
X179540000Y-74752560D01*
X179304683Y-74796838D01*
X179088559Y-74935910D01*
X178943569Y-75148110D01*
X178892560Y-75400000D01*
X178892560Y-77000000D01*
X178936838Y-77235317D01*
X179075910Y-77451441D01*
X179288110Y-77596431D01*
X179443089Y-77627815D01*
X179297189Y-77725302D01*
X178986120Y-78190849D01*
X178876887Y-78740000D01*
X175947245Y-78740000D01*
X175790327Y-78582808D01*
X175446799Y-78440162D01*
X175074833Y-78439838D01*
X174731057Y-78581883D01*
X174467808Y-78844673D01*
X174325162Y-79188201D01*
X174324838Y-79560167D01*
X162050000Y-79560167D01*
X162050000Y-77784802D01*
X162236114Y-77598688D01*
X162560000Y-77663113D01*
X163109151Y-77553880D01*
X163574698Y-77242811D01*
X163885767Y-76777264D01*
X163995000Y-76228113D01*
X163995000Y-76171887D01*
X163885767Y-75622736D01*
X163574698Y-75157189D01*
X163109151Y-74846120D01*
X162560000Y-74736887D01*
X162010849Y-74846120D01*
X161545302Y-75157189D01*
X161290000Y-75539275D01*
X161034698Y-75157189D01*
X160569151Y-74846120D01*
X160020000Y-74736887D01*
X159470849Y-74846120D01*
X159005302Y-75157189D01*
X158750000Y-75539275D01*
X158494698Y-75157189D01*
X158029151Y-74846120D01*
X157480000Y-74736887D01*
X156930849Y-74846120D01*
X156465302Y-75157189D01*
X156210000Y-75539275D01*
X155954698Y-75157189D01*
X155489151Y-74846120D01*
X154940000Y-74736887D01*
X154390849Y-74846120D01*
X153925302Y-75157189D01*
X153670000Y-75539275D01*
X153414698Y-75157189D01*
X152949151Y-74846120D01*
X152400000Y-74736887D01*
X151850849Y-74846120D01*
X151385302Y-75157189D01*
X151130000Y-75539275D01*
X150874698Y-75157189D01*
X150409151Y-74846120D01*
X149860000Y-74736887D01*
X149310849Y-74846120D01*
X148845302Y-75157189D01*
X148590000Y-75539275D01*
X148334698Y-75157189D01*
X147869151Y-74846120D01*
X147320000Y-74736887D01*
X146770849Y-74846120D01*
X146305302Y-75157189D01*
X146050000Y-75539275D01*
X145794698Y-75157189D01*
X145329151Y-74846120D01*
X144780000Y-74736887D01*
X144230849Y-74846120D01*
X143765302Y-75157189D01*
X143510000Y-75539275D01*
X143254698Y-75157189D01*
X142789151Y-74846120D01*
X142240000Y-74736887D01*
X141690849Y-74846120D01*
X141225302Y-75157189D01*
X140955014Y-75561703D01*
X140852389Y-75344866D01*
X140437423Y-74968959D01*
X140049039Y-74808096D01*
X139827000Y-74930085D01*
X139827000Y-76073000D01*
X139847000Y-76073000D01*
X139847000Y-76327000D01*
X139827000Y-76327000D01*
X139827000Y-77469915D01*
X140049039Y-77591904D01*
X140437423Y-77431041D01*
X140852389Y-77055134D01*
X140955014Y-76838297D01*
X141225302Y-77242811D01*
X141690849Y-77553880D01*
X142240000Y-77663113D01*
X142789151Y-77553880D01*
X143254698Y-77242811D01*
X143510000Y-76860725D01*
X143765302Y-77242811D01*
X144230849Y-77553880D01*
X144780000Y-77663113D01*
X145329151Y-77553880D01*
X145794698Y-77242811D01*
X146050000Y-76860725D01*
X146305302Y-77242811D01*
X146770849Y-77553880D01*
X147320000Y-77663113D01*
X147869151Y-77553880D01*
X148334698Y-77242811D01*
X148590000Y-76860725D01*
X148845302Y-77242811D01*
X149310849Y-77553880D01*
X149860000Y-77663113D01*
X150409151Y-77553880D01*
X150874698Y-77242811D01*
X151130000Y-76860725D01*
X151385302Y-77242811D01*
X151850849Y-77553880D01*
X152400000Y-77663113D01*
X152949151Y-77553880D01*
X153414698Y-77242811D01*
X153670000Y-76860725D01*
X153925302Y-77242811D01*
X154390849Y-77553880D01*
X154940000Y-77663113D01*
X155489151Y-77553880D01*
X155954698Y-77242811D01*
X156210000Y-76860725D01*
X156465302Y-77242811D01*
X156930849Y-77553880D01*
X157480000Y-77663113D01*
X158029151Y-77553880D01*
X158494698Y-77242811D01*
X158750000Y-76860725D01*
X159005302Y-77242811D01*
X159470849Y-77553880D01*
X160020000Y-77663113D01*
X160530000Y-77561668D01*
X160530000Y-82458332D01*
X160020000Y-82356887D01*
X159470849Y-82466120D01*
X159005302Y-82777189D01*
X158750000Y-83159275D01*
X158494698Y-82777189D01*
X158029151Y-82466120D01*
X157480000Y-82356887D01*
X156930849Y-82466120D01*
X156465302Y-82777189D01*
X156210000Y-83159275D01*
X155954698Y-82777189D01*
X155489151Y-82466120D01*
X154940000Y-82356887D01*
X154390849Y-82466120D01*
X153925302Y-82777189D01*
X153670000Y-83159275D01*
X153414698Y-82777189D01*
X152949151Y-82466120D01*
X152400000Y-82356887D01*
X151850849Y-82466120D01*
X151385302Y-82777189D01*
X151130000Y-83159275D01*
X150874698Y-82777189D01*
X150409151Y-82466120D01*
X149860000Y-82356887D01*
X149310849Y-82466120D01*
X148845302Y-82777189D01*
X148590000Y-83159275D01*
X148334698Y-82777189D01*
X147869151Y-82466120D01*
X147320000Y-82356887D01*
X146770849Y-82466120D01*
X146305302Y-82777189D01*
X146050000Y-83159275D01*
X145794698Y-82777189D01*
X145329151Y-82466120D01*
X144780000Y-82356887D01*
X144230849Y-82466120D01*
X143765302Y-82777189D01*
X143510000Y-83159275D01*
X143254698Y-82777189D01*
X142789151Y-82466120D01*
X142240000Y-82356887D01*
X141690849Y-82466120D01*
X141225302Y-82777189D01*
X141128899Y-82921465D01*
X141103162Y-82784683D01*
X140964090Y-82568559D01*
X140751890Y-82423569D01*
X140585000Y-82389773D01*
X140585000Y-80645000D01*
X140573525Y-80587312D01*
X140577314Y-80528612D01*
X140540132Y-80419435D01*
X140517633Y-80306325D01*
X140484955Y-80257418D01*
X140465992Y-80201738D01*
X140389866Y-80115107D01*
X140325790Y-80019210D01*
X140276880Y-79986529D01*
X140238055Y-79942347D01*
X138595014Y-78684191D01*
X138595248Y-78415813D01*
X138377243Y-77888200D01*
X137973923Y-77484176D01*
X137907456Y-77456577D01*
X137914005Y-77453864D01*
X137988139Y-77207745D01*
X137160000Y-76379605D01*
X136331861Y-77207745D01*
X136405995Y-77453864D01*
X136412483Y-77456196D01*
X136348200Y-77482757D01*
X135944176Y-77886077D01*
X135725250Y-78413309D01*
X135724752Y-78984187D01*
X135942757Y-79511800D01*
X136346077Y-79915824D01*
X136873309Y-80134750D01*
X137444187Y-80135248D01*
X137531524Y-80099161D01*
X138815000Y-81081981D01*
X138815000Y-82388554D01*
X138664683Y-82416838D01*
X138448559Y-82555910D01*
X138303569Y-82768110D01*
X138252560Y-83020000D01*
X138252560Y-84620000D01*
X138296838Y-84855317D01*
X138435910Y-85071441D01*
X138648110Y-85216431D01*
X138815000Y-85250227D01*
X138815000Y-86053178D01*
X138765162Y-86173201D01*
X138764838Y-86545167D01*
X138906883Y-86888943D01*
X139169673Y-87152192D01*
X139290986Y-87202566D01*
X140085000Y-87996579D01*
X140085000Y-90062991D01*
X140049039Y-90048096D01*
X139827000Y-90170085D01*
X139827000Y-91313000D01*
X139847000Y-91313000D01*
X139847000Y-91567000D01*
X139827000Y-91567000D01*
X139827000Y-92709915D01*
X140049039Y-92831904D01*
X140085000Y-92817009D01*
X140085000Y-93613421D01*
X139074210Y-94624210D01*
X138882367Y-94911325D01*
X138882367Y-94911326D01*
X138814999Y-95250000D01*
X138815000Y-95250005D01*
X138815000Y-97628554D01*
X138664683Y-97656838D01*
X138448559Y-97795910D01*
X138303569Y-98008110D01*
X138252560Y-98260000D01*
X138252560Y-99860000D01*
X138296838Y-100095317D01*
X138435910Y-100311441D01*
X138648110Y-100456431D01*
X138900000Y-100507440D01*
X140500000Y-100507440D01*
X140735317Y-100463162D01*
X140951441Y-100324090D01*
X141096431Y-100111890D01*
X141127815Y-99956911D01*
X141225302Y-100102811D01*
X141480000Y-100272995D01*
X141480000Y-101600000D01*
X141537852Y-101890839D01*
X141702599Y-102137401D01*
X142750000Y-103184802D01*
X142750000Y-105318332D01*
X142240000Y-105216887D01*
X141690849Y-105326120D01*
X141225302Y-105637189D01*
X140955014Y-106041703D01*
X140852389Y-105824866D01*
X140437423Y-105448959D01*
X140049039Y-105288096D01*
X139827000Y-105410085D01*
X139827000Y-106553000D01*
X139847000Y-106553000D01*
X139847000Y-106807000D01*
X139827000Y-106807000D01*
X139827000Y-107949915D01*
X140049039Y-108071904D01*
X140437423Y-107911041D01*
X140852389Y-107535134D01*
X140955014Y-107318297D01*
X141225302Y-107722811D01*
X141690849Y-108033880D01*
X142240000Y-108143113D01*
X142750000Y-108041668D01*
X142750000Y-108905198D01*
X141702599Y-109952599D01*
X141605000Y-110098667D01*
X141507401Y-109952599D01*
X139528929Y-107974127D01*
X139573000Y-107949915D01*
X139573000Y-106807000D01*
X138429371Y-106807000D01*
X138405501Y-106850699D01*
X137885761Y-106330959D01*
X138308086Y-106330959D01*
X138429371Y-106553000D01*
X139573000Y-106553000D01*
X139573000Y-105410085D01*
X139350961Y-105288096D01*
X138962577Y-105448959D01*
X138547611Y-105824866D01*
X138308086Y-106330959D01*
X137885761Y-106330959D01*
X126267401Y-94712599D01*
X126020839Y-94547852D01*
X125818179Y-94507540D01*
X125923113Y-93980000D01*
X125813880Y-93430849D01*
X125502811Y-92965302D01*
X125120725Y-92710000D01*
X125502811Y-92454698D01*
X125813880Y-91989151D01*
X125853684Y-91789041D01*
X138308086Y-91789041D01*
X138547611Y-92295134D01*
X138962577Y-92671041D01*
X139350961Y-92831904D01*
X139573000Y-92709915D01*
X139573000Y-91567000D01*
X138429371Y-91567000D01*
X138308086Y-91789041D01*
X125853684Y-91789041D01*
X125923113Y-91440000D01*
X125858688Y-91116114D01*
X125883843Y-91090959D01*
X138308086Y-91090959D01*
X138429371Y-91313000D01*
X139573000Y-91313000D01*
X139573000Y-90170085D01*
X139350961Y-90048096D01*
X138962577Y-90208959D01*
X138547611Y-90584866D01*
X138308086Y-91090959D01*
X125883843Y-91090959D01*
X126902401Y-90072401D01*
X127067148Y-89825839D01*
X127125000Y-89535000D01*
X127125000Y-75983223D01*
X135713035Y-75983223D01*
X135740222Y-76553454D01*
X135906136Y-76954005D01*
X136152255Y-77028139D01*
X136980395Y-76200000D01*
X137339605Y-76200000D01*
X138167745Y-77028139D01*
X138413864Y-76954005D01*
X138450935Y-76850868D01*
X138547611Y-77055134D01*
X138962577Y-77431041D01*
X139350961Y-77591904D01*
X139573000Y-77469915D01*
X139573000Y-76327000D01*
X139553000Y-76327000D01*
X139553000Y-76073000D01*
X139573000Y-76073000D01*
X139573000Y-74930085D01*
X139350961Y-74808096D01*
X138962577Y-74968959D01*
X138547611Y-75344866D01*
X138453948Y-75542766D01*
X138413864Y-75445995D01*
X138167745Y-75371861D01*
X137339605Y-76200000D01*
X136980395Y-76200000D01*
X136152255Y-75371861D01*
X135906136Y-75445995D01*
X135713035Y-75983223D01*
X127125000Y-75983223D01*
X127125000Y-75192255D01*
X136331861Y-75192255D01*
X137160000Y-76020395D01*
X137988139Y-75192255D01*
X137914005Y-74946136D01*
X137376777Y-74753035D01*
X136806546Y-74780222D01*
X136405995Y-74946136D01*
X136331861Y-75192255D01*
X127125000Y-75192255D01*
X127125000Y-67945000D01*
X127067148Y-67654161D01*
X126902401Y-67407599D01*
X122001463Y-62506661D01*
X126872758Y-62506661D01*
X127084990Y-63020303D01*
X127477630Y-63413629D01*
X127990900Y-63626757D01*
X128546661Y-63627242D01*
X129060303Y-63415010D01*
X129453629Y-63022370D01*
X129539949Y-62814488D01*
X129624990Y-63020303D01*
X130017630Y-63413629D01*
X130050000Y-63427070D01*
X130050000Y-64455198D01*
X129002599Y-65502599D01*
X128837852Y-65749161D01*
X128780000Y-66040000D01*
X128780000Y-67341354D01*
X128728200Y-67362757D01*
X128324176Y-67766077D01*
X128105250Y-68293309D01*
X128104752Y-68864187D01*
X128322757Y-69391800D01*
X128726077Y-69795824D01*
X129253309Y-70014750D01*
X129824187Y-70015248D01*
X130351800Y-69797243D01*
X130755824Y-69393923D01*
X130789813Y-69312069D01*
X130822757Y-69391800D01*
X131226077Y-69795824D01*
X131753309Y-70014750D01*
X132324187Y-70015248D01*
X132851800Y-69797243D01*
X133255824Y-69393923D01*
X133474750Y-68866691D01*
X133475248Y-68295813D01*
X133257243Y-67768200D01*
X132853923Y-67364176D01*
X132326691Y-67145250D01*
X131755813Y-67144752D01*
X131228200Y-67362757D01*
X130824176Y-67766077D01*
X130790187Y-67847931D01*
X130757243Y-67768200D01*
X130353923Y-67364176D01*
X130300000Y-67341785D01*
X130300000Y-66354802D01*
X130330615Y-66324187D01*
X135764752Y-66324187D01*
X135982757Y-66851800D01*
X136386077Y-67255824D01*
X136913309Y-67474750D01*
X137484187Y-67475248D01*
X138011800Y-67257243D01*
X138280583Y-66988928D01*
X138296838Y-67075317D01*
X138435910Y-67291441D01*
X138648110Y-67436431D01*
X138900000Y-67487440D01*
X140500000Y-67487440D01*
X140735317Y-67443162D01*
X140951441Y-67304090D01*
X141096431Y-67091890D01*
X141147440Y-66840000D01*
X141147440Y-65240000D01*
X141103162Y-65004683D01*
X140964090Y-64788559D01*
X140751890Y-64643569D01*
X140500000Y-64592560D01*
X138900000Y-64592560D01*
X138664683Y-64636838D01*
X138448559Y-64775910D01*
X138303569Y-64988110D01*
X138282320Y-65093041D01*
X138013923Y-64824176D01*
X137486691Y-64605250D01*
X136915813Y-64604752D01*
X136388200Y-64822757D01*
X135984176Y-65226077D01*
X135765250Y-65753309D01*
X135764752Y-66324187D01*
X130330615Y-66324187D01*
X131347401Y-65307401D01*
X131512148Y-65060840D01*
X131570000Y-64770000D01*
X131570000Y-63427531D01*
X131600303Y-63415010D01*
X131993629Y-63022370D01*
X132079949Y-62814488D01*
X132164990Y-63020303D01*
X132557630Y-63413629D01*
X133070900Y-63626757D01*
X133626661Y-63627242D01*
X134140303Y-63415010D01*
X134533629Y-63022370D01*
X134746757Y-62509100D01*
X134747242Y-61953339D01*
X134535010Y-61439697D01*
X134142370Y-61046371D01*
X133629100Y-60833243D01*
X133073339Y-60832758D01*
X132559697Y-61044990D01*
X132166371Y-61437630D01*
X132080051Y-61645512D01*
X131995010Y-61439697D01*
X131602370Y-61046371D01*
X131089100Y-60833243D01*
X130533339Y-60832758D01*
X130019697Y-61044990D01*
X129626371Y-61437630D01*
X129540051Y-61645512D01*
X129455010Y-61439697D01*
X129062370Y-61046371D01*
X128549100Y-60833243D01*
X127993339Y-60832758D01*
X127479697Y-61044990D01*
X127086371Y-61437630D01*
X126873243Y-61950900D01*
X126872758Y-62506661D01*
X122001463Y-62506661D01*
X120140000Y-60645198D01*
X120140000Y-59547655D01*
X120511098Y-59177204D01*
X120650091Y-58842473D01*
X120787582Y-59175229D01*
X121162796Y-59551098D01*
X121653287Y-59754768D01*
X122184383Y-59755231D01*
X122675229Y-59552418D01*
X123051098Y-59177204D01*
X123247512Y-58704187D01*
X135764752Y-58704187D01*
X135982757Y-59231800D01*
X136386077Y-59635824D01*
X136913309Y-59854750D01*
X137484187Y-59855248D01*
X137509845Y-59844647D01*
X138582599Y-60917401D01*
X138829161Y-61082148D01*
X139120000Y-61140000D01*
X150915000Y-61140000D01*
X150915000Y-61173786D01*
X151028039Y-61742071D01*
X151349946Y-62223840D01*
X151831715Y-62545747D01*
X152400000Y-62658786D01*
X152968285Y-62545747D01*
X153450054Y-62223840D01*
X153771961Y-61742071D01*
X153885000Y-61173786D01*
X153885000Y-59586214D01*
X153771961Y-59017929D01*
X153450054Y-58536160D01*
X152968285Y-58214253D01*
X152400000Y-58101214D01*
X151831715Y-58214253D01*
X151349946Y-58536160D01*
X151028039Y-59017929D01*
X150915000Y-59586214D01*
X150915000Y-59620000D01*
X140995232Y-59620000D01*
X141096431Y-59471890D01*
X141147440Y-59220000D01*
X141147440Y-57620000D01*
X141103162Y-57384683D01*
X140964090Y-57168559D01*
X140751890Y-57023569D01*
X140500000Y-56972560D01*
X138900000Y-56972560D01*
X138664683Y-57016838D01*
X138448559Y-57155910D01*
X138303569Y-57368110D01*
X138282320Y-57473041D01*
X138013923Y-57204176D01*
X137486691Y-56985250D01*
X136915813Y-56984752D01*
X136388200Y-57202757D01*
X135984176Y-57606077D01*
X135765250Y-58133309D01*
X135764752Y-58704187D01*
X123247512Y-58704187D01*
X123254768Y-58686713D01*
X123255231Y-58155617D01*
X123052418Y-57664771D01*
X122677204Y-57288902D01*
X122186713Y-57085232D01*
X121655617Y-57084769D01*
X121164771Y-57287582D01*
X120788902Y-57662796D01*
X120649909Y-57997527D01*
X120512418Y-57664771D01*
X120137204Y-57288902D01*
X119646713Y-57085232D01*
X119115617Y-57084769D01*
X118624771Y-57287582D01*
X118248902Y-57662796D01*
X118109909Y-57997527D01*
X117972418Y-57664771D01*
X117597204Y-57288902D01*
X117106713Y-57085232D01*
X116575617Y-57084769D01*
X116084771Y-57287582D01*
X115708902Y-57662796D01*
X115560618Y-58019903D01*
X115533379Y-57882964D01*
X115243988Y-57449858D01*
X114810882Y-57160467D01*
X114300000Y-57058846D01*
X113789118Y-57160467D01*
X113356012Y-57449858D01*
X113066621Y-57882964D01*
X113043706Y-57998164D01*
X112931042Y-57726169D01*
X112695275Y-57664331D01*
X111939605Y-58420000D01*
X112695275Y-59175669D01*
X112931042Y-59113831D01*
X113037605Y-58811165D01*
X113066621Y-58957036D01*
X113356012Y-59390142D01*
X113789118Y-59679533D01*
X114300000Y-59781154D01*
X114810882Y-59679533D01*
X115243988Y-59390142D01*
X115533379Y-58957036D01*
X115560692Y-58819726D01*
X115707582Y-59175229D01*
X116082796Y-59551098D01*
X116573287Y-59754768D01*
X117104383Y-59755231D01*
X117595229Y-59552418D01*
X117971098Y-59177204D01*
X118110091Y-58842473D01*
X118247582Y-59175229D01*
X118620000Y-59548297D01*
X118620000Y-60960000D01*
X118677852Y-61250839D01*
X118842599Y-61497401D01*
X122049879Y-64704681D01*
X121920000Y-64678846D01*
X121409118Y-64780467D01*
X120976012Y-65069858D01*
X120686621Y-65502964D01*
X120650000Y-65687070D01*
X120613379Y-65502964D01*
X120323988Y-65069858D01*
X119890882Y-64780467D01*
X119380000Y-64678846D01*
X118869118Y-64780467D01*
X118436012Y-65069858D01*
X118146621Y-65502964D01*
X118110000Y-65687070D01*
X118073379Y-65502964D01*
X117783988Y-65069858D01*
X117350882Y-64780467D01*
X116840000Y-64678846D01*
X116329118Y-64780467D01*
X115896012Y-65069858D01*
X115606621Y-65502964D01*
X115579308Y-65640274D01*
X115432418Y-65284771D01*
X115057204Y-64908902D01*
X114566713Y-64705232D01*
X114035617Y-64704769D01*
X113544771Y-64907582D01*
X113168902Y-65282796D01*
X113020618Y-65639903D01*
X112993379Y-65502964D01*
X112703988Y-65069858D01*
X112270882Y-64780467D01*
X111760000Y-64678846D01*
X111249118Y-64780467D01*
X110816012Y-65069858D01*
X110526621Y-65502964D01*
X110425000Y-66013846D01*
X110425000Y-66066154D01*
X110526621Y-66577036D01*
X110816012Y-67010142D01*
X111249118Y-67299533D01*
X111760000Y-67401154D01*
X112270882Y-67299533D01*
X112703988Y-67010142D01*
X112993379Y-66577036D01*
X113020692Y-66439726D01*
X113167582Y-66795229D01*
X113542796Y-67171098D01*
X114033287Y-67374768D01*
X114564383Y-67375231D01*
X115055229Y-67172418D01*
X115431098Y-66797204D01*
X115579382Y-66440097D01*
X115606621Y-66577036D01*
X115896012Y-67010142D01*
X116329118Y-67299533D01*
X116840000Y-67401154D01*
X117350882Y-67299533D01*
X117783988Y-67010142D01*
X118073379Y-66577036D01*
X118110000Y-66392930D01*
X118146621Y-66577036D01*
X118436012Y-67010142D01*
X118869118Y-67299533D01*
X119380000Y-67401154D01*
X119890882Y-67299533D01*
X120323988Y-67010142D01*
X120613379Y-66577036D01*
X120650000Y-66392930D01*
X120686621Y-66577036D01*
X120976012Y-67010142D01*
X121409118Y-67299533D01*
X121920000Y-67401154D01*
X122430882Y-67299533D01*
X122863988Y-67010142D01*
X123153379Y-66577036D01*
X123255000Y-66066154D01*
X123255000Y-66013846D01*
X123229165Y-65883967D01*
X125605000Y-68259802D01*
X125605000Y-70275831D01*
X125273923Y-69944176D01*
X124746691Y-69725250D01*
X124175813Y-69724752D01*
X123648200Y-69942757D01*
X123244176Y-70346077D01*
X123025250Y-70873309D01*
X123024752Y-71444187D01*
X123242757Y-71971800D01*
X123646077Y-72375824D01*
X123727931Y-72409813D01*
X123648200Y-72442757D01*
X123244176Y-72846077D01*
X123025250Y-73373309D01*
X123024752Y-73944187D01*
X123242757Y-74471800D01*
X123646077Y-74875824D01*
X124173309Y-75094750D01*
X124744187Y-75095248D01*
X125271800Y-74877243D01*
X125605000Y-74544624D01*
X125605000Y-77953204D01*
X125467745Y-77911861D01*
X124639605Y-78740000D01*
X125467745Y-79568139D01*
X125605000Y-79526796D01*
X125605000Y-80418238D01*
X125502811Y-80265302D01*
X125141514Y-80023891D01*
X125214005Y-79993864D01*
X125288139Y-79747745D01*
X124460000Y-78919605D01*
X123631861Y-79747745D01*
X123705995Y-79993864D01*
X123782350Y-80021309D01*
X123417189Y-80265302D01*
X123106120Y-80730849D01*
X122996887Y-81280000D01*
X122997405Y-81282603D01*
X121889741Y-80174939D01*
X122244187Y-80175248D01*
X122771800Y-79957243D01*
X123175824Y-79553923D01*
X123203423Y-79487456D01*
X123206136Y-79494005D01*
X123452255Y-79568139D01*
X124280395Y-78740000D01*
X123452255Y-77911861D01*
X123206136Y-77985995D01*
X123203804Y-77992483D01*
X123177243Y-77928200D01*
X122981640Y-77732255D01*
X123631861Y-77732255D01*
X124460000Y-78560395D01*
X125288139Y-77732255D01*
X125214005Y-77486136D01*
X124676777Y-77293035D01*
X124106546Y-77320222D01*
X123705995Y-77486136D01*
X123631861Y-77732255D01*
X122981640Y-77732255D01*
X122773923Y-77524176D01*
X122246691Y-77305250D01*
X121675813Y-77304752D01*
X121148200Y-77522757D01*
X120744176Y-77926077D01*
X120525250Y-78453309D01*
X120524939Y-78810137D01*
X120140000Y-78425198D01*
X120140000Y-73388653D01*
X120353461Y-73175564D01*
X120564759Y-72666702D01*
X120565240Y-72115715D01*
X120354831Y-71606485D01*
X119965564Y-71216539D01*
X119456702Y-71005241D01*
X118905715Y-71004760D01*
X118396485Y-71215169D01*
X118006539Y-71604436D01*
X117795241Y-72113298D01*
X117794760Y-72664285D01*
X118005169Y-73173515D01*
X118394436Y-73563461D01*
X118620000Y-73657123D01*
X118620000Y-78740000D01*
X118677852Y-79030839D01*
X118842599Y-79277401D01*
X123061312Y-83496114D01*
X122996887Y-83820000D01*
X123106120Y-84369151D01*
X123417189Y-84834698D01*
X123799275Y-85090000D01*
X123417189Y-85345302D01*
X123106120Y-85810849D01*
X122996887Y-86360000D01*
X123106120Y-86909151D01*
X123417189Y-87374698D01*
X123799275Y-87630000D01*
X123417189Y-87885302D01*
X123106120Y-88350849D01*
X122996887Y-88900000D01*
X123106120Y-89449151D01*
X123417189Y-89914698D01*
X123799275Y-90170000D01*
X123417189Y-90425302D01*
X123106120Y-90890849D01*
X122996887Y-91440000D01*
X123106120Y-91989151D01*
X123417189Y-92454698D01*
X123799275Y-92710000D01*
X123417189Y-92965302D01*
X123106120Y-93430849D01*
X122996887Y-93980000D01*
X122997405Y-93982603D01*
X110667440Y-81652638D01*
X110667440Y-80480000D01*
X110623162Y-80244683D01*
X110484090Y-80028559D01*
X110271890Y-79883569D01*
X110020000Y-79832560D01*
X108420000Y-79832560D01*
X108184683Y-79876838D01*
X107968559Y-80015910D01*
X107823569Y-80228110D01*
X107772560Y-80480000D01*
X107772560Y-82080000D01*
X107816838Y-82315317D01*
X107955910Y-82531441D01*
X108168110Y-82676431D01*
X108323089Y-82707815D01*
X108177189Y-82805302D01*
X107866120Y-83270849D01*
X107756887Y-83820000D01*
X107866120Y-84369151D01*
X108177189Y-84834698D01*
X108559275Y-85090000D01*
X108177189Y-85345302D01*
X107866120Y-85810849D01*
X107756887Y-86360000D01*
X107866120Y-86909151D01*
X108177189Y-87374698D01*
X108559275Y-87630000D01*
X108177189Y-87885302D01*
X107866120Y-88350849D01*
X107756887Y-88900000D01*
X107866120Y-89449151D01*
X108177189Y-89914698D01*
X108559275Y-90170000D01*
X108177189Y-90425302D01*
X107866120Y-90890849D01*
X107756887Y-91440000D01*
X107866120Y-91989151D01*
X108177189Y-92454698D01*
X108559275Y-92710000D01*
X108177189Y-92965302D01*
X107866120Y-93430849D01*
X107756887Y-93980000D01*
X107866120Y-94529151D01*
X108177189Y-94994698D01*
X108559275Y-95250000D01*
X108177189Y-95505302D01*
X107866120Y-95970849D01*
X107756887Y-96520000D01*
X107866120Y-97069151D01*
X108177189Y-97534698D01*
X108559275Y-97790000D01*
X108177189Y-98045302D01*
X107866120Y-98510849D01*
X107756887Y-99060000D01*
X107866120Y-99609151D01*
X108177189Y-100074698D01*
X108559275Y-100330000D01*
X108177189Y-100585302D01*
X107866120Y-101050849D01*
X107756887Y-101600000D01*
X107866120Y-102149151D01*
X108177189Y-102614698D01*
X108559275Y-102870000D01*
X108177189Y-103125302D01*
X107866120Y-103590849D01*
X107756887Y-104140000D01*
X107866120Y-104689151D01*
X108177189Y-105154698D01*
X108559275Y-105410000D01*
X108177189Y-105665302D01*
X107866120Y-106130849D01*
X107756887Y-106680000D01*
X107866120Y-107229151D01*
X108177189Y-107694698D01*
X108559275Y-107950000D01*
X108177189Y-108205302D01*
X108090527Y-108335000D01*
X106680005Y-108335000D01*
X106680000Y-108334999D01*
X106397516Y-108391190D01*
X106341325Y-108402367D01*
X106054210Y-108594210D01*
X106054208Y-108594213D01*
X103554210Y-111094210D01*
X103362367Y-111381325D01*
X103362367Y-111381326D01*
X103294999Y-111720000D01*
X103295000Y-111720005D01*
X103295000Y-133475829D01*
X102964176Y-133806077D01*
X102745250Y-134333309D01*
X102744752Y-134904187D01*
X102962757Y-135431800D01*
X103366077Y-135835824D01*
X103893309Y-136054750D01*
X104464187Y-136055248D01*
X104991800Y-135837243D01*
X105256187Y-135573317D01*
X105341673Y-135779699D01*
X105520302Y-135958327D01*
X105753691Y-136055000D01*
X106394250Y-136055000D01*
X106553000Y-135896250D01*
X106553000Y-134747000D01*
X106807000Y-134747000D01*
X106807000Y-135896250D01*
X106965750Y-136055000D01*
X107606309Y-136055000D01*
X107839698Y-135958327D01*
X108018327Y-135779699D01*
X108115000Y-135546310D01*
X108115000Y-134905750D01*
X107956250Y-134747000D01*
X106807000Y-134747000D01*
X106553000Y-134747000D01*
X106533000Y-134747000D01*
X106533000Y-134493000D01*
X106553000Y-134493000D01*
X106553000Y-133343750D01*
X106807000Y-133343750D01*
X106807000Y-134493000D01*
X107956250Y-134493000D01*
X108115000Y-134334250D01*
X108115000Y-133693690D01*
X108018327Y-133460301D01*
X107839698Y-133281673D01*
X107606309Y-133185000D01*
X106965750Y-133185000D01*
X106807000Y-133343750D01*
X106553000Y-133343750D01*
X106394250Y-133185000D01*
X105753691Y-133185000D01*
X105520302Y-133281673D01*
X105341673Y-133460301D01*
X105256124Y-133666835D01*
X105065000Y-133475377D01*
X105065000Y-112086580D01*
X107046579Y-110105000D01*
X108090527Y-110105000D01*
X108177189Y-110234698D01*
X108559275Y-110490000D01*
X108177189Y-110745302D01*
X107866120Y-111210849D01*
X107756887Y-111760000D01*
X107866120Y-112309151D01*
X108177189Y-112774698D01*
X108559275Y-113030000D01*
X108177189Y-113285302D01*
X107866120Y-113750849D01*
X107756887Y-114300000D01*
X107866120Y-114849151D01*
X108177189Y-115314698D01*
X108559275Y-115570000D01*
X108177189Y-115825302D01*
X107866120Y-116290849D01*
X107756887Y-116840000D01*
X107866120Y-117389151D01*
X108177189Y-117854698D01*
X108559275Y-118110000D01*
X108177189Y-118365302D01*
X107866120Y-118830849D01*
X107756887Y-119380000D01*
X107866120Y-119929151D01*
X108177189Y-120394698D01*
X108559275Y-120650000D01*
X108177189Y-120905302D01*
X107866120Y-121370849D01*
X107756887Y-121920000D01*
X107866120Y-122469151D01*
X108177189Y-122934698D01*
X108559275Y-123190000D01*
X108177189Y-123445302D01*
X107866120Y-123910849D01*
X107756887Y-124460000D01*
X107866120Y-125009151D01*
X108177189Y-125474698D01*
X108559275Y-125730000D01*
X108177189Y-125985302D01*
X107866120Y-126450849D01*
X107756887Y-127000000D01*
X107866120Y-127549151D01*
X108177189Y-128014698D01*
X108559275Y-128270000D01*
X108177189Y-128525302D01*
X107866120Y-128990849D01*
X107756887Y-129540000D01*
X107866120Y-130089151D01*
X108177189Y-130554698D01*
X108642736Y-130865767D01*
X109191887Y-130975000D01*
X109248113Y-130975000D01*
X109797264Y-130865767D01*
X110262811Y-130554698D01*
X110573880Y-130089151D01*
X110683113Y-129540000D01*
X110573880Y-128990849D01*
X110262811Y-128525302D01*
X109880725Y-128270000D01*
X110262811Y-128014698D01*
X110573880Y-127549151D01*
X110683113Y-127000000D01*
X110573880Y-126450849D01*
X110262811Y-125985302D01*
X109880725Y-125730000D01*
X110262811Y-125474698D01*
X110573880Y-125009151D01*
X110683113Y-124460000D01*
X110573880Y-123910849D01*
X110262811Y-123445302D01*
X109880725Y-123190000D01*
X110262811Y-122934698D01*
X110573880Y-122469151D01*
X110683113Y-121920000D01*
X110573880Y-121370849D01*
X110262811Y-120905302D01*
X109880725Y-120650000D01*
X110262811Y-120394698D01*
X110573880Y-119929151D01*
X110683113Y-119380000D01*
X110573880Y-118830849D01*
X110262811Y-118365302D01*
X109880725Y-118110000D01*
X110262811Y-117854698D01*
X110573880Y-117389151D01*
X110683113Y-116840000D01*
X110573880Y-116290849D01*
X110262811Y-115825302D01*
X109880725Y-115570000D01*
X110262811Y-115314698D01*
X110573880Y-114849151D01*
X110683113Y-114300000D01*
X110573880Y-113750849D01*
X110262811Y-113285302D01*
X109880725Y-113030000D01*
X110262811Y-112774698D01*
X110573880Y-112309151D01*
X110683113Y-111760000D01*
X110573880Y-111210849D01*
X110262811Y-110745302D01*
X109880725Y-110490000D01*
X110262811Y-110234698D01*
X110573880Y-109769151D01*
X110683113Y-109220000D01*
X110573880Y-108670849D01*
X110262811Y-108205302D01*
X109880725Y-107950000D01*
X110262811Y-107694698D01*
X110573880Y-107229151D01*
X110683113Y-106680000D01*
X110573880Y-106130849D01*
X110262811Y-105665302D01*
X109880725Y-105410000D01*
X110262811Y-105154698D01*
X110573880Y-104689151D01*
X110683113Y-104140000D01*
X110573880Y-103590849D01*
X110262811Y-103125302D01*
X109880725Y-102870000D01*
X110262811Y-102614698D01*
X110573880Y-102149151D01*
X110683113Y-101600000D01*
X110573880Y-101050849D01*
X110262811Y-100585302D01*
X109880725Y-100330000D01*
X110262811Y-100074698D01*
X110573880Y-99609151D01*
X110683113Y-99060000D01*
X110573880Y-98510849D01*
X110262811Y-98045302D01*
X109880725Y-97790000D01*
X110262811Y-97534698D01*
X110573880Y-97069151D01*
X110683113Y-96520000D01*
X110573880Y-95970849D01*
X110262811Y-95505302D01*
X109880725Y-95250000D01*
X110262811Y-94994698D01*
X110573880Y-94529151D01*
X110683113Y-93980000D01*
X110573880Y-93430849D01*
X110262811Y-92965302D01*
X109880725Y-92710000D01*
X110262811Y-92454698D01*
X110573880Y-91989151D01*
X110683113Y-91440000D01*
X110573880Y-90890849D01*
X110262811Y-90425302D01*
X109880725Y-90170000D01*
X110262811Y-89914698D01*
X110573880Y-89449151D01*
X110683113Y-88900000D01*
X110573880Y-88350849D01*
X110262811Y-87885302D01*
X109880725Y-87630000D01*
X110262811Y-87374698D01*
X110573880Y-86909151D01*
X110683113Y-86360000D01*
X110573880Y-85810849D01*
X110262811Y-85345302D01*
X109880725Y-85090000D01*
X110262811Y-84834698D01*
X110573880Y-84369151D01*
X110683113Y-83820000D01*
X110682595Y-83817397D01*
X122652599Y-95787401D01*
X122899160Y-95952148D01*
X122947414Y-95961746D01*
X123101821Y-95992460D01*
X122996887Y-96520000D01*
X123106120Y-97069151D01*
X123417189Y-97534698D01*
X123821703Y-97804986D01*
X123604866Y-97907611D01*
X123228959Y-98322577D01*
X123068096Y-98710961D01*
X123190085Y-98933000D01*
X124333000Y-98933000D01*
X124333000Y-98913000D01*
X124587000Y-98913000D01*
X124587000Y-98933000D01*
X125729915Y-98933000D01*
X125754127Y-98888929D01*
X137035000Y-110169802D01*
X137035000Y-114935000D01*
X137092852Y-115225839D01*
X137257599Y-115472401D01*
X140210000Y-118424802D01*
X140210000Y-120558332D01*
X139700000Y-120456887D01*
X139150849Y-120566120D01*
X138685302Y-120877189D01*
X138430000Y-121259275D01*
X138174698Y-120877189D01*
X137709151Y-120566120D01*
X137160000Y-120456887D01*
X136610849Y-120566120D01*
X136145302Y-120877189D01*
X135890000Y-121259275D01*
X135634698Y-120877189D01*
X135169151Y-120566120D01*
X134620000Y-120456887D01*
X134070849Y-120566120D01*
X133605302Y-120877189D01*
X133335014Y-121281703D01*
X133232389Y-121064866D01*
X132817423Y-120688959D01*
X132429039Y-120528096D01*
X132207000Y-120650085D01*
X132207000Y-121793000D01*
X132227000Y-121793000D01*
X132227000Y-122047000D01*
X132207000Y-122047000D01*
X132207000Y-123189915D01*
X132251071Y-123214127D01*
X125922595Y-129542603D01*
X125923113Y-129540000D01*
X125813880Y-128990849D01*
X125502811Y-128525302D01*
X125120725Y-128270000D01*
X125502811Y-128014698D01*
X125813880Y-127549151D01*
X125923113Y-127000000D01*
X125813880Y-126450849D01*
X125502811Y-125985302D01*
X125120725Y-125730000D01*
X125502811Y-125474698D01*
X125813880Y-125009151D01*
X125923113Y-124460000D01*
X125813880Y-123910849D01*
X125502811Y-123445302D01*
X125120725Y-123190000D01*
X125502811Y-122934698D01*
X125813880Y-122469151D01*
X125853684Y-122269041D01*
X130688086Y-122269041D01*
X130927611Y-122775134D01*
X131342577Y-123151041D01*
X131730961Y-123311904D01*
X131953000Y-123189915D01*
X131953000Y-122047000D01*
X130809371Y-122047000D01*
X130688086Y-122269041D01*
X125853684Y-122269041D01*
X125923113Y-121920000D01*
X125853685Y-121570959D01*
X130688086Y-121570959D01*
X130809371Y-121793000D01*
X131953000Y-121793000D01*
X131953000Y-120650085D01*
X131730961Y-120528096D01*
X131342577Y-120688959D01*
X130927611Y-121064866D01*
X130688086Y-121570959D01*
X125853685Y-121570959D01*
X125813880Y-121370849D01*
X125502811Y-120905302D01*
X125120725Y-120650000D01*
X125502811Y-120394698D01*
X125813880Y-119929151D01*
X125923113Y-119380000D01*
X125813880Y-118830849D01*
X125502811Y-118365302D01*
X125120725Y-118110000D01*
X125502811Y-117854698D01*
X125813880Y-117389151D01*
X125923113Y-116840000D01*
X125813880Y-116290849D01*
X125502811Y-115825302D01*
X125120725Y-115570000D01*
X125502811Y-115314698D01*
X125813880Y-114849151D01*
X125923113Y-114300000D01*
X125813880Y-113750849D01*
X125502811Y-113285302D01*
X125120725Y-113030000D01*
X125502811Y-112774698D01*
X125813880Y-112309151D01*
X125923113Y-111760000D01*
X125813880Y-111210849D01*
X125502811Y-110745302D01*
X125120725Y-110490000D01*
X125502811Y-110234698D01*
X125813880Y-109769151D01*
X125923113Y-109220000D01*
X125813880Y-108670849D01*
X125502811Y-108205302D01*
X125120725Y-107950000D01*
X125502811Y-107694698D01*
X125813880Y-107229151D01*
X125923113Y-106680000D01*
X125813880Y-106130849D01*
X125502811Y-105665302D01*
X125120725Y-105410000D01*
X125502811Y-105154698D01*
X125813880Y-104689151D01*
X125923113Y-104140000D01*
X125813880Y-103590849D01*
X125502811Y-103125302D01*
X125120725Y-102870000D01*
X125502811Y-102614698D01*
X125813880Y-102149151D01*
X125923113Y-101600000D01*
X125813880Y-101050849D01*
X125502811Y-100585302D01*
X125098297Y-100315014D01*
X125315134Y-100212389D01*
X125691041Y-99797423D01*
X125851904Y-99409039D01*
X125729915Y-99187000D01*
X124587000Y-99187000D01*
X124587000Y-99207000D01*
X124333000Y-99207000D01*
X124333000Y-99187000D01*
X123190085Y-99187000D01*
X123068096Y-99409039D01*
X123228959Y-99797423D01*
X123604866Y-100212389D01*
X123821703Y-100315014D01*
X123417189Y-100585302D01*
X123106120Y-101050849D01*
X122996887Y-101600000D01*
X123106120Y-102149151D01*
X123417189Y-102614698D01*
X123799275Y-102870000D01*
X123417189Y-103125302D01*
X123106120Y-103590849D01*
X122996887Y-104140000D01*
X123106120Y-104689151D01*
X123417189Y-105154698D01*
X123799275Y-105410000D01*
X123417189Y-105665302D01*
X123106120Y-106130849D01*
X122996887Y-106680000D01*
X123106120Y-107229151D01*
X123417189Y-107694698D01*
X123799275Y-107950000D01*
X123417189Y-108205302D01*
X123106120Y-108670849D01*
X122996887Y-109220000D01*
X123106120Y-109769151D01*
X123417189Y-110234698D01*
X123799275Y-110490000D01*
X123417189Y-110745302D01*
X123106120Y-111210849D01*
X122996887Y-111760000D01*
X123106120Y-112309151D01*
X123417189Y-112774698D01*
X123799275Y-113030000D01*
X123417189Y-113285302D01*
X123106120Y-113750849D01*
X122996887Y-114300000D01*
X123106120Y-114849151D01*
X123417189Y-115314698D01*
X123799275Y-115570000D01*
X123417189Y-115825302D01*
X123106120Y-116290849D01*
X122996887Y-116840000D01*
X123106120Y-117389151D01*
X123417189Y-117854698D01*
X123799275Y-118110000D01*
X123417189Y-118365302D01*
X123106120Y-118830849D01*
X122996887Y-119380000D01*
X123106120Y-119929151D01*
X123417189Y-120394698D01*
X123799275Y-120650000D01*
X123417189Y-120905302D01*
X123106120Y-121370849D01*
X122996887Y-121920000D01*
X123106120Y-122469151D01*
X123417189Y-122934698D01*
X123799275Y-123190000D01*
X123417189Y-123445302D01*
X123106120Y-123910849D01*
X122996887Y-124460000D01*
X123106120Y-125009151D01*
X123417189Y-125474698D01*
X123799275Y-125730000D01*
X123417189Y-125985302D01*
X123106120Y-126450849D01*
X122996887Y-127000000D01*
X123106120Y-127549151D01*
X123417189Y-128014698D01*
X123799275Y-128270000D01*
X123417189Y-128525302D01*
X123106120Y-128990849D01*
X122996887Y-129540000D01*
X123106120Y-130089151D01*
X123417189Y-130554698D01*
X123882736Y-130865767D01*
X124431887Y-130975000D01*
X124488113Y-130975000D01*
X124490716Y-130974482D01*
X121382599Y-134082599D01*
X121217852Y-134329161D01*
X121160000Y-134620000D01*
X121160000Y-138502537D01*
X121127808Y-138534673D01*
X120985162Y-138878201D01*
X120984838Y-139250167D01*
X121055755Y-139421799D01*
X120922683Y-139446838D01*
X120706559Y-139585910D01*
X120650626Y-139667770D01*
X120606090Y-139598559D01*
X120393890Y-139453569D01*
X120243686Y-139423152D01*
X120314838Y-139251799D01*
X120315162Y-138879833D01*
X120173117Y-138536057D01*
X120140000Y-138502882D01*
X120140000Y-126292463D01*
X120172192Y-126260327D01*
X120314838Y-125916799D01*
X120315162Y-125544833D01*
X120173117Y-125201057D01*
X119910327Y-124937808D01*
X119566799Y-124795162D01*
X119194833Y-124794838D01*
X118851057Y-124936883D01*
X118587808Y-125199673D01*
X118445162Y-125543201D01*
X118444838Y-125915167D01*
X118586883Y-126258943D01*
X118620000Y-126292118D01*
X118620000Y-138502537D01*
X118587808Y-138534673D01*
X118445162Y-138878201D01*
X118444838Y-139250167D01*
X118515755Y-139421799D01*
X118382683Y-139446838D01*
X118166559Y-139585910D01*
X118110626Y-139667770D01*
X118066090Y-139598559D01*
X117853890Y-139453569D01*
X117602000Y-139402560D01*
X116078000Y-139402560D01*
X115842683Y-139446838D01*
X115626559Y-139585910D01*
X115573537Y-139663511D01*
X115421698Y-139511673D01*
X115188309Y-139415000D01*
X114585750Y-139415000D01*
X114427000Y-139573750D01*
X114427000Y-145923000D01*
X114447000Y-145923000D01*
X114447000Y-146177000D01*
X114427000Y-146177000D01*
X114427000Y-146197000D01*
X114173000Y-146197000D01*
X114173000Y-146177000D01*
X113061750Y-146177000D01*
X113030000Y-146208750D01*
X112998250Y-146177000D01*
X111887000Y-146177000D01*
X111887000Y-146197000D01*
X111633000Y-146197000D01*
X111633000Y-146177000D01*
X111613000Y-146177000D01*
X111613000Y-145923000D01*
X111633000Y-145923000D01*
X111633000Y-139573750D01*
X111887000Y-139573750D01*
X111887000Y-145923000D01*
X112998250Y-145923000D01*
X113030000Y-145891250D01*
X113061750Y-145923000D01*
X114173000Y-145923000D01*
X114173000Y-139573750D01*
X114014250Y-139415000D01*
X113411691Y-139415000D01*
X113178302Y-139511673D01*
X113030000Y-139659974D01*
X112881698Y-139511673D01*
X112648309Y-139415000D01*
X112045750Y-139415000D01*
X111887000Y-139573750D01*
X111633000Y-139573750D01*
X111474250Y-139415000D01*
X110871691Y-139415000D01*
X110638302Y-139511673D01*
X110487329Y-139662646D01*
X110446090Y-139598559D01*
X110233890Y-139453569D01*
X109982000Y-139402560D01*
X108458000Y-139402560D01*
X108222683Y-139446838D01*
X108006559Y-139585910D01*
X107950626Y-139667770D01*
X107906090Y-139598559D01*
X107693890Y-139453569D01*
X107442000Y-139402560D01*
X105918000Y-139402560D01*
X105682683Y-139446838D01*
X105466559Y-139585910D01*
X105321569Y-139798110D01*
X105270560Y-140050000D01*
X105270560Y-141098620D01*
X105046705Y-140949046D01*
X104775000Y-140895000D01*
X102304931Y-140895000D01*
X102026019Y-140839521D01*
X101848856Y-140721145D01*
X101730478Y-140543979D01*
X101675000Y-140265070D01*
X101675000Y-71444187D01*
X107784752Y-71444187D01*
X108002757Y-71971800D01*
X108406077Y-72375824D01*
X108487931Y-72409813D01*
X108408200Y-72442757D01*
X108004176Y-72846077D01*
X107785250Y-73373309D01*
X107784752Y-73944187D01*
X108002757Y-74471800D01*
X108406077Y-74875824D01*
X108933309Y-75094750D01*
X109504187Y-75095248D01*
X110031800Y-74877243D01*
X110435824Y-74473923D01*
X110654750Y-73946691D01*
X110655248Y-73375813D01*
X110437243Y-72848200D01*
X110253649Y-72664285D01*
X112914760Y-72664285D01*
X113125169Y-73173515D01*
X113514436Y-73563461D01*
X114023298Y-73774759D01*
X114574285Y-73775240D01*
X115083515Y-73564831D01*
X115473461Y-73175564D01*
X115684759Y-72666702D01*
X115685240Y-72115715D01*
X115474831Y-71606485D01*
X115085564Y-71216539D01*
X114576702Y-71005241D01*
X114025715Y-71004760D01*
X113516485Y-71215169D01*
X113126539Y-71604436D01*
X112915241Y-72113298D01*
X112914760Y-72664285D01*
X110253649Y-72664285D01*
X110033923Y-72444176D01*
X109952069Y-72410187D01*
X110031800Y-72377243D01*
X110435824Y-71973923D01*
X110654750Y-71446691D01*
X110655248Y-70875813D01*
X110437243Y-70348200D01*
X110033923Y-69944176D01*
X109506691Y-69725250D01*
X108935813Y-69724752D01*
X108408200Y-69942757D01*
X108004176Y-70346077D01*
X107785250Y-70873309D01*
X107784752Y-71444187D01*
X101675000Y-71444187D01*
X101675000Y-59355275D01*
X111004331Y-59355275D01*
X111066169Y-59591042D01*
X111567122Y-59767419D01*
X112097440Y-59738664D01*
X112453831Y-59591042D01*
X112515669Y-59355275D01*
X111760000Y-58599605D01*
X111004331Y-59355275D01*
X101675000Y-59355275D01*
X101675000Y-58227122D01*
X110412581Y-58227122D01*
X110441336Y-58757440D01*
X110588958Y-59113831D01*
X110824725Y-59175669D01*
X111580395Y-58420000D01*
X110824725Y-57664331D01*
X110588958Y-57726169D01*
X110412581Y-58227122D01*
X101675000Y-58227122D01*
X101675000Y-57484725D01*
X111004331Y-57484725D01*
X111760000Y-58240395D01*
X112515669Y-57484725D01*
X112453831Y-57248958D01*
X111952878Y-57072581D01*
X111422560Y-57101336D01*
X111066169Y-57248958D01*
X111004331Y-57484725D01*
X101675000Y-57484725D01*
X101675000Y-53409930D01*
X101730478Y-53131021D01*
X101848856Y-52953855D01*
X102026019Y-52835479D01*
X102304931Y-52780000D01*
X146610000Y-52780000D01*
X146610000Y-53975000D01*
G36*
X151385302Y-115342811D02*
X151850849Y-115653880D01*
X152400000Y-115763113D01*
X152886067Y-115666428D01*
X152877808Y-115674673D01*
X152735162Y-116018201D01*
X152734838Y-116390167D01*
X152876883Y-116733943D01*
X153139673Y-116997192D01*
X153483201Y-117139838D01*
X153855167Y-117140162D01*
X154198943Y-116998117D01*
X154462192Y-116735327D01*
X154604838Y-116391799D01*
X154605162Y-116019833D01*
X154463117Y-115676057D01*
X154453399Y-115666322D01*
X154940000Y-115763113D01*
X155450000Y-115661668D01*
X155450000Y-116277537D01*
X155417808Y-116309673D01*
X155275162Y-116653201D01*
X155274838Y-117025167D01*
X155416883Y-117368943D01*
X155679673Y-117632192D01*
X156023201Y-117774838D01*
X156395167Y-117775162D01*
X156738943Y-117633117D01*
X157002192Y-117370327D01*
X157144838Y-117026799D01*
X157145162Y-116654833D01*
X157003117Y-116311057D01*
X156970000Y-116277882D01*
X156970000Y-115661668D01*
X157480000Y-115763113D01*
X157990000Y-115661668D01*
X157990000Y-118817537D01*
X157957808Y-118849673D01*
X157815162Y-119193201D01*
X157814838Y-119565167D01*
X157956883Y-119908943D01*
X158219673Y-120172192D01*
X158563201Y-120314838D01*
X158935167Y-120315162D01*
X159135000Y-120232593D01*
X159135000Y-120790527D01*
X159005302Y-120877189D01*
X158735014Y-121281703D01*
X158632389Y-121064866D01*
X158217423Y-120688959D01*
X157829039Y-120528096D01*
X157607000Y-120650085D01*
X157607000Y-121793000D01*
X157627000Y-121793000D01*
X157627000Y-122047000D01*
X157607000Y-122047000D01*
X157607000Y-122067000D01*
X157353000Y-122067000D01*
X157353000Y-122047000D01*
X157333000Y-122047000D01*
X157333000Y-121793000D01*
X157353000Y-121793000D01*
X157353000Y-120650085D01*
X157130961Y-120528096D01*
X156742577Y-120688959D01*
X156327611Y-121064866D01*
X156156406Y-121426604D01*
X151667401Y-116937599D01*
X151420839Y-116772852D01*
X151130000Y-116715000D01*
X143189802Y-116715000D01*
X142237397Y-115762595D01*
X142240000Y-115763113D01*
X142789151Y-115653880D01*
X143254698Y-115342811D01*
X143510000Y-114960725D01*
X143765302Y-115342811D01*
X144230849Y-115653880D01*
X144780000Y-115763113D01*
X145329151Y-115653880D01*
X145794698Y-115342811D01*
X146050000Y-114960725D01*
X146305302Y-115342811D01*
X146770849Y-115653880D01*
X147320000Y-115763113D01*
X147869151Y-115653880D01*
X148334698Y-115342811D01*
X148590000Y-114960725D01*
X148845302Y-115342811D01*
X149310849Y-115653880D01*
X149860000Y-115763113D01*
X150409151Y-115653880D01*
X150874698Y-115342811D01*
X151130000Y-114960725D01*
X151385302Y-115342811D01*
X151385302Y-115342811D01*
G37*
X151385302Y-115342811D02*
X151850849Y-115653880D01*
X152400000Y-115763113D01*
X152886067Y-115666428D01*
X152877808Y-115674673D01*
X152735162Y-116018201D01*
X152734838Y-116390167D01*
X152876883Y-116733943D01*
X153139673Y-116997192D01*
X153483201Y-117139838D01*
X153855167Y-117140162D01*
X154198943Y-116998117D01*
X154462192Y-116735327D01*
X154604838Y-116391799D01*
X154605162Y-116019833D01*
X154463117Y-115676057D01*
X154453399Y-115666322D01*
X154940000Y-115763113D01*
X155450000Y-115661668D01*
X155450000Y-116277537D01*
X155417808Y-116309673D01*
X155275162Y-116653201D01*
X155274838Y-117025167D01*
X155416883Y-117368943D01*
X155679673Y-117632192D01*
X156023201Y-117774838D01*
X156395167Y-117775162D01*
X156738943Y-117633117D01*
X157002192Y-117370327D01*
X157144838Y-117026799D01*
X157145162Y-116654833D01*
X157003117Y-116311057D01*
X156970000Y-116277882D01*
X156970000Y-115661668D01*
X157480000Y-115763113D01*
X157990000Y-115661668D01*
X157990000Y-118817537D01*
X157957808Y-118849673D01*
X157815162Y-119193201D01*
X157814838Y-119565167D01*
X157956883Y-119908943D01*
X158219673Y-120172192D01*
X158563201Y-120314838D01*
X158935167Y-120315162D01*
X159135000Y-120232593D01*
X159135000Y-120790527D01*
X159005302Y-120877189D01*
X158735014Y-121281703D01*
X158632389Y-121064866D01*
X158217423Y-120688959D01*
X157829039Y-120528096D01*
X157607000Y-120650085D01*
X157607000Y-121793000D01*
X157627000Y-121793000D01*
X157627000Y-122047000D01*
X157607000Y-122047000D01*
X157607000Y-122067000D01*
X157353000Y-122067000D01*
X157353000Y-122047000D01*
X157333000Y-122047000D01*
X157333000Y-121793000D01*
X157353000Y-121793000D01*
X157353000Y-120650085D01*
X157130961Y-120528096D01*
X156742577Y-120688959D01*
X156327611Y-121064866D01*
X156156406Y-121426604D01*
X151667401Y-116937599D01*
X151420839Y-116772852D01*
X151130000Y-116715000D01*
X143189802Y-116715000D01*
X142237397Y-115762595D01*
X142240000Y-115763113D01*
X142789151Y-115653880D01*
X143254698Y-115342811D01*
X143510000Y-114960725D01*
X143765302Y-115342811D01*
X144230849Y-115653880D01*
X144780000Y-115763113D01*
X145329151Y-115653880D01*
X145794698Y-115342811D01*
X146050000Y-114960725D01*
X146305302Y-115342811D01*
X146770849Y-115653880D01*
X147320000Y-115763113D01*
X147869151Y-115653880D01*
X148334698Y-115342811D01*
X148590000Y-114960725D01*
X148845302Y-115342811D01*
X149310849Y-115653880D01*
X149860000Y-115763113D01*
X150409151Y-115653880D01*
X150874698Y-115342811D01*
X151130000Y-114960725D01*
X151385302Y-115342811D01*
M02*
