M48
;DRILL file {KiCad 4.0.7} date 2024 March 18, Monday 14:50:27
;FORMAT={-:-/ absolute / metric / decimal}
FMAT,2
METRIC,TZ
T1C0.400
T2C0.700
T3C0.800
T4C1.000
T5C1.300
%
G90
G05
M71
T1
X119.38Y-125.73
X119.38Y-139.065
X121.92Y-139.065
X124.46Y-139.065
X125.73Y-133.35
X127.Y-139.065
X129.54Y-139.065
X132.08Y-139.065
X134.62Y-139.065
X137.16Y-134.62
X139.7Y-86.36
X139.7Y-135.89
X140.97Y-139.065
X142.24Y-137.16
X143.51Y-127.635
X144.78Y-138.43
X146.05Y-127.
X151.13Y-111.76
X152.4Y-124.46
X153.67Y-90.17
X153.67Y-116.205
X154.94Y-123.825
X156.21Y-87.63
X156.21Y-116.84
X158.75Y-100.33
X158.75Y-119.38
X163.83Y-112.395
X165.1Y-115.57
X166.37Y-99.06
X175.26Y-79.375
X175.26Y-90.17
X176.53Y-80.645
X176.53Y-87.63
X176.53Y-120.65
X177.8Y-81.28
X177.8Y-85.09
T2
X111.76Y-58.42
X111.76Y-66.04
X114.3Y-58.42
X114.3Y-66.04
X116.84Y-58.42
X116.84Y-66.04
X119.38Y-58.42
X119.38Y-66.04
X121.92Y-58.42
X121.92Y-66.04
T3
X104.18Y-134.62
X106.68Y-134.62
X109.22Y-71.16
X109.22Y-73.66
X109.22Y-81.28
X109.22Y-83.82
X109.22Y-86.36
X109.22Y-88.9
X109.22Y-91.44
X109.22Y-93.98
X109.22Y-96.52
X109.22Y-99.06
X109.22Y-101.6
X109.22Y-104.14
X109.22Y-106.68
X109.22Y-109.22
X109.22Y-111.76
X109.22Y-114.3
X109.22Y-116.84
X109.22Y-119.38
X109.22Y-121.92
X109.22Y-124.46
X109.22Y-127.
X109.22Y-129.54
X114.3Y-72.39
X119.18Y-72.39
X121.96Y-78.74
X124.46Y-71.16
X124.46Y-73.66
X124.46Y-78.74
X124.46Y-81.28
X124.46Y-83.82
X124.46Y-86.36
X124.46Y-88.9
X124.46Y-91.44
X124.46Y-93.98
X124.46Y-96.52
X124.46Y-99.06
X124.46Y-101.6
X124.46Y-104.14
X124.46Y-106.68
X124.46Y-109.22
X124.46Y-111.76
X124.46Y-114.3
X124.46Y-116.84
X124.46Y-119.38
X124.46Y-121.92
X124.46Y-124.46
X124.46Y-127.
X124.46Y-129.54
X128.27Y-62.23
X129.54Y-68.58
X130.81Y-62.23
X132.04Y-68.58
X132.08Y-121.92
X132.08Y-129.54
X133.35Y-62.23
X134.62Y-121.92
X134.62Y-129.54
X137.16Y-76.2
X137.16Y-78.7
X137.16Y-121.92
X137.16Y-129.54
X137.2Y-58.42
X137.2Y-66.04
X139.7Y-58.42
X139.7Y-66.04
X139.7Y-76.2
X139.7Y-83.82
X139.7Y-91.44
X139.7Y-99.06
X139.7Y-106.68
X139.7Y-114.3
X139.7Y-121.92
X139.7Y-129.54
X142.24Y-76.2
X142.24Y-83.82
X142.24Y-91.44
X142.24Y-99.06
X142.24Y-106.68
X142.24Y-114.3
X142.24Y-121.92
X142.24Y-129.54
X144.78Y-76.2
X144.78Y-83.82
X144.78Y-91.44
X144.78Y-99.06
X144.78Y-106.68
X144.78Y-114.3
X144.78Y-121.92
X144.78Y-129.54
X147.32Y-76.2
X147.32Y-83.82
X147.32Y-91.44
X147.32Y-99.06
X147.32Y-106.68
X147.32Y-114.3
X147.32Y-121.92
X147.32Y-129.54
X149.86Y-76.2
X149.86Y-83.82
X149.86Y-91.44
X149.86Y-99.06
X149.86Y-106.68
X149.86Y-114.3
X149.86Y-121.92
X149.86Y-129.54
X152.4Y-76.2
X152.4Y-83.82
X152.4Y-91.44
X152.4Y-99.06
X152.4Y-106.68
X152.4Y-114.3
X154.94Y-76.2
X154.94Y-83.82
X154.94Y-91.44
X154.94Y-99.06
X154.94Y-106.68
X154.94Y-114.3
X157.48Y-76.2
X157.48Y-83.82
X157.48Y-91.44
X157.48Y-99.06
X157.48Y-106.68
X157.48Y-114.3
X157.48Y-121.92
X157.48Y-129.54
X160.02Y-76.2
X160.02Y-83.82
X160.02Y-91.44
X160.02Y-99.06
X160.02Y-106.68
X160.02Y-114.3
X160.02Y-121.92
X160.02Y-129.54
X162.56Y-76.2
X162.56Y-83.82
X162.56Y-91.44
X162.56Y-99.06
X162.56Y-106.68
X162.56Y-114.3
X162.56Y-121.92
X162.56Y-129.54
X165.1Y-121.92
X165.1Y-129.54
X167.64Y-121.92
X167.64Y-129.54
X170.18Y-121.92
X170.18Y-129.54
X172.72Y-121.92
X172.72Y-129.54
X180.34Y-76.2
X180.34Y-78.74
X180.34Y-81.28
X180.34Y-83.82
X180.34Y-86.36
X180.34Y-88.9
X180.34Y-91.44
X180.34Y-93.98
X180.34Y-96.52
X180.34Y-99.06
X180.34Y-101.6
X180.34Y-104.14
X180.34Y-106.68
X180.34Y-109.22
X180.34Y-121.92
X180.34Y-129.54
X182.88Y-121.92
X182.88Y-129.54
X185.42Y-121.92
X185.42Y-129.54
X187.96Y-121.92
X187.96Y-129.54
X190.5Y-121.92
X190.5Y-129.54
X193.04Y-121.92
X193.04Y-129.54
X193.08Y-73.66
X195.58Y-73.66
X195.58Y-76.2
X195.58Y-78.74
X195.58Y-81.28
X195.58Y-83.82
X195.58Y-86.36
X195.58Y-88.9
X195.58Y-91.44
X195.58Y-93.98
X195.58Y-96.52
X195.58Y-99.06
X195.58Y-101.6
X195.58Y-104.14
X195.58Y-106.68
X195.58Y-109.22
X195.58Y-121.92
X195.58Y-129.54
X198.12Y-127.
X198.12Y-129.5
T4
X152.4Y-59.63G85X152.4Y-61.13
G05
T5
X153.Y-55.88G85X151.8Y-55.88
G05
T0
M30
